<?xml version="1.0" encoding="utf-8"?>
<!-- Generator: Adobe Illustrator 25.2.1, SVG Export Plug-In . SVG Version: 6.00 Build 0)  -->
<svg version="1.1" id="Mountain_Cabinet_Rear" xmlns="http://www.w3.org/2000/svg" xmlns:xlink="http://www.w3.org/1999/xlink"
	 x="0px" y="0px" viewBox="0 0 432 619.2" style="enable-background:new 0 0 432 619.2;" xml:space="preserve">
<style type="text/css">
	.st0{fill:#FFFFFF;}
	.st1{fill:none;stroke:#435663;stroke-width:2;stroke-linecap:square;stroke-miterlimit:10;}
	.st2{fill:#FFFFFF;stroke:#454547;stroke-width:0.985;stroke-linecap:round;stroke-linejoin:bevel;}
	.st3{fill:#141414;}
	.st4{font-family:'Verdana';}
	.st5{font-size:12px;}
	.st6{fill:#FFFFFF;stroke:#1F1F1F;stroke-width:0.75;stroke-miterlimit:10;}
	.st7{font-size:9.4336px;}
	.st8{fill:#FFFFFF;stroke:#454547;stroke-width:0.246;stroke-linecap:round;stroke-linejoin:bevel;}
	.st9{font-size:7.5464px;}
	.st10{font-size:9.1727px;}
	.st11{fill:#FFFBDE;stroke:#454547;stroke-width:0.5;stroke-linecap:round;stroke-linejoin:bevel;}
	.st12{fill:none;}
	.st13{font-size:9.8999px;}
	.st14{fill:#C8C8C8;stroke:#1F1F1F;stroke-width:0.5;stroke-miterlimit:10;}
</style>
<rect x="4" y="1.6" class="st0" width="426" height="619"/>
<g>
	<rect x="8" y="16.6" class="st1" width="410.9" height="598"/>
	<g>
		<g>
			<rect x="60.2" y="21.8" class="st2" width="164.9" height="144.5"/>
			<rect x="60.2" y="169" class="st2" width="164.9" height="144.5"/>
			<rect x="60.2" y="316.1" class="st2" width="164.9" height="144.5"/>
			<rect x="60.2" y="464.2" class="st2" width="164.9" height="144.5"/>
		</g>
		<g>
			<rect x="239.7" y="21.8" class="st2" width="164.9" height="144.5"/>
			<rect x="239.7" y="169" class="st2" width="164.9" height="144.5"/>
			<rect x="239.7" y="316.1" class="st2" width="164.9" height="144.5"/>
			<rect x="239.7" y="464.2" class="st2" width="164.9" height="144.5"/>
		</g>
		<text transform="matrix(1 0 0 1 198.1133 10.2855)" class="st3 st4 st5">Rear</text>
		<g>
			<rect x="71.4" y="37.5" class="st6" width="142.1" height="10.9"/>
			<text transform="matrix(1 0 0 1 90.0894 45.828)" class="st3 st4 st7">S</text>
			<text transform="matrix(1 0 0 1 96.4463 45.828)" class="st3 st4 st7">witch/</text>
			<text transform="matrix(1 0 0 1 125.6387 45.828)" class="st3 st4 st7">P</text>
			<text transform="matrix(1 0 0 1 131.0967 45.828)" class="st3 st4 st7">eriph Blade 7</text>
			<rect x="71.4" y="49.7" class="st6" width="142.1" height="10.9"/>
			<text transform="matrix(1 0 0 1 90.0894 58.3715)" class="st3 st4 st7">S</text>
			<text transform="matrix(1 0 0 1 96.4463 58.3715)" class="st3 st4 st7">witch/</text>
			<text transform="matrix(1 0 0 1 125.6387 58.3715)" class="st3 st4 st7">P</text>
			<text transform="matrix(1 0 0 1 131.0967 58.3715)" class="st3 st4 st7">eriph Blade 6</text>
			<rect x="71.4" y="62.2" class="st6" width="142.1" height="10.6"/>
			<text transform="matrix(1 0 0 1 90.0894 70.9154)" class="st3 st4 st7">S</text>
			<text transform="matrix(1 0 0 1 96.4463 70.9154)" class="st3 st4 st7">witch/</text>
			<text transform="matrix(1 0 0 1 125.6387 70.9154)" class="st3 st4 st7">P</text>
			<text transform="matrix(1 0 0 1 131.0967 70.9154)" class="st3 st4 st7">eriph Blade 5</text>
			<rect x="71.4" y="74.9" class="st6" width="142.1" height="10.9"/>
			<text transform="matrix(1 0 0 1 90.0894 83.4589)" class="st3 st4 st7">S</text>
			<text transform="matrix(1 0 0 1 96.4463 83.4589)" class="st3 st4 st7">witch/</text>
			<text transform="matrix(1 0 0 1 125.6387 83.4589)" class="st3 st4 st7">P</text>
			<text transform="matrix(1 0 0 1 131.0967 83.4589)" class="st3 st4 st7">eriph Blade 4</text>
			<rect x="71.4" y="113.2" class="st6" width="142.1" height="10.9"/>
			<text transform="matrix(1 0 0 1 90.0894 121.476)" class="st3 st4 st7">S</text>
			<text transform="matrix(1 0 0 1 96.4463 121.476)" class="st3 st4 st7">witch/</text>
			<text transform="matrix(1 0 0 1 125.6387 121.476)" class="st3 st4 st7">P</text>
			<text transform="matrix(1 0 0 1 131.0967 121.476)" class="st3 st4 st7">eriph Blade 3</text>
			<rect x="71.4" y="125.6" class="st6" width="142.1" height="10.9"/>
			<text transform="matrix(1 0 0 1 90.0894 134.3022)" class="st3 st4 st7">S</text>
			<text transform="matrix(1 0 0 1 96.4463 134.3022)" class="st3 st4 st7">witch/</text>
			<text transform="matrix(1 0 0 1 125.6387 134.3022)" class="st3 st4 st7">P</text>
			<text transform="matrix(1 0 0 1 131.0967 134.3022)" class="st3 st4 st7">eriph Blade 2</text>
			<rect x="71.4" y="138.3" class="st6" width="142.1" height="11.6"/>
			<text transform="matrix(1 0 0 1 90.0894 146.6903)" class="st3 st4 st7">S</text>
			<text transform="matrix(1 0 0 1 96.4463 146.6903)" class="st3 st4 st7">witch/</text>
			<text transform="matrix(1 0 0 1 125.6387 146.6903)" class="st3 st4 st7">P</text>
			<text transform="matrix(1 0 0 1 131.0967 146.6903)" class="st3 st4 st7">eriph Blade 1</text>
			<rect x="71.4" y="151.2" class="st6" width="142.1" height="11.6"/>
			<text transform="matrix(1 0 0 1 90.0894 159.9506)" class="st3 st4 st7">S</text>
			<text transform="matrix(1 0 0 1 96.4463 159.9506)" class="st3 st4 st7">witch/</text>
			<text transform="matrix(1 0 0 1 125.6387 159.9506)" class="st3 st4 st7">P</text>
			<text transform="matrix(1 0 0 1 131.0967 159.9506)" class="st3 st4 st7">eriph Blade 0</text>
			<g>
				<rect x="71.4" y="234.1" class="st8" width="142.1" height="11.5"/>
				<text transform="matrix(1 0 0 1 131.9912 242.1161)" class="st3 st4 st9">Blank</text>
			</g>
			<rect x="71.4" y="100.5" class="st6" width="142.1" height="11.5"/>
			<text transform="matrix(1 0 0 1 127.0386 108.5561)" class="st3 st4 st10">CMM 7</text>
		</g>
		<g>
			<rect x="252.9" y="37.5" class="st11" width="140.4" height="10.9"/>
			<text transform="matrix(1 0 0 1 270.8525 45.828)" class="st3 st4 st7">S</text>
			<text transform="matrix(1 0 0 1 277.21 45.828)" class="st3 st4 st7">witch/</text>
			<text transform="matrix(1 0 0 1 306.4023 45.828)" class="st3 st4 st7">P</text>
			<text transform="matrix(1 0 0 1 311.8604 45.828)" class="st3 st4 st7">eriph Blade 7</text>
			<rect x="252.9" y="49.7" class="st11" width="140.4" height="10.9"/>
			<text transform="matrix(1 0 0 1 270.8525 58.3715)" class="st3 st4 st7">S</text>
			<text transform="matrix(1 0 0 1 277.21 58.3715)" class="st3 st4 st7">witch/</text>
			<text transform="matrix(1 0 0 1 306.4023 58.3715)" class="st3 st4 st7">P</text>
			<text transform="matrix(1 0 0 1 311.8604 58.3715)" class="st3 st4 st7">eriph Blade 6</text>
			<rect x="252.9" y="62.2" class="st11" width="140.4" height="10.6"/>
			<text transform="matrix(1 0 0 1 270.8525 70.9154)" class="st3 st4 st7">S</text>
			<text transform="matrix(1 0 0 1 277.21 70.9154)" class="st3 st4 st7">witch/</text>
			<text transform="matrix(1 0 0 1 306.4023 70.9154)" class="st3 st4 st7">P</text>
			<text transform="matrix(1 0 0 1 311.8604 70.9154)" class="st3 st4 st7">eriph Blade 5</text>
			<rect x="252.9" y="74.9" class="st11" width="140.4" height="10.9"/>
			<text transform="matrix(1 0 0 1 270.8525 83.4589)" class="st3 st4 st7">S</text>
			<text transform="matrix(1 0 0 1 277.21 83.4589)" class="st3 st4 st7">witch/</text>
			<text transform="matrix(1 0 0 1 306.4023 83.4589)" class="st3 st4 st7">P</text>
			<text transform="matrix(1 0 0 1 311.8604 83.4589)" class="st3 st4 st7">eriph Blade 4</text>
			<rect x="252.9" y="113.2" class="st11" width="140.4" height="10.9"/>
			<text transform="matrix(1 0 0 1 270.8525 121.476)" class="st3 st4 st7">S</text>
			<text transform="matrix(1 0 0 1 277.21 121.476)" class="st3 st4 st7">witch/</text>
			<text transform="matrix(1 0 0 1 306.4023 121.476)" class="st3 st4 st7">P</text>
			<text transform="matrix(1 0 0 1 311.8604 121.476)" class="st3 st4 st7">eriph Blade 3</text>
			<rect x="252.9" y="125.6" class="st11" width="140.4" height="10.9"/>
			<text transform="matrix(1 0 0 1 270.8525 134.3022)" class="st3 st4 st7">S</text>
			<text transform="matrix(1 0 0 1 277.21 134.3022)" class="st3 st4 st7">witch/</text>
			<text transform="matrix(1 0 0 1 306.4023 134.3022)" class="st3 st4 st7">P</text>
			<text transform="matrix(1 0 0 1 311.8604 134.3022)" class="st3 st4 st7">eriph Blade 2</text>
			<rect x="252.9" y="138.3" class="st11" width="140.4" height="11.6"/>
			<text transform="matrix(1 0 0 1 270.8525 146.6903)" class="st3 st4 st7">S</text>
			<text transform="matrix(1 0 0 1 277.21 146.6903)" class="st3 st4 st7">witch/</text>
			<text transform="matrix(1 0 0 1 306.4023 146.6903)" class="st3 st4 st7">P</text>
			<text transform="matrix(1 0 0 1 311.8604 146.6903)" class="st3 st4 st7">eriph Blade 1</text>
			<rect x="252.9" y="151.2" class="st11" width="140.4" height="11.6"/>
			<text transform="matrix(1 0 0 1 270.8525 159.9506)" class="st3 st4 st7">S</text>
			<text transform="matrix(1 0 0 1 277.21 159.9506)" class="st3 st4 st7">witch/</text>
			<text transform="matrix(1 0 0 1 306.4023 159.9506)" class="st3 st4 st7">P</text>
			<text transform="matrix(1 0 0 1 311.8604 159.9506)" class="st3 st4 st7">eriph Blade 0</text>
			<g>
				<rect x="252.9" y="234.1" class="st8" width="140.4" height="11.5"/>
				<text transform="matrix(1 0 0 1 313.4648 242.1161)" class="st3 st4 st9">Blank</text>
			</g>
			<rect x="252.9" y="100.5" class="st11" width="140.4" height="11.5"/>
			<text transform="matrix(1 0 0 1 308.5127 108.5561)" class="st3 st4 st10">CMM 6</text>
		</g>
		<g>
			<rect x="130.9" y="22.3" class="st12" width="57.4" height="12.5"/>
			<text transform="matrix(1 0 0 1 120.189 33.3461)" class="st3 st4 st13">Chassis 7</text>
		</g>
		<g>
			<rect x="284.7" y="22.3" class="st12" width="57.4" height="12.5"/>
			<text transform="matrix(1 0 0 1 302.0303 33.3461)" class="st3 st4 st13">Chassis 6</text>
		</g>
		<g>
			<rect x="130.9" y="169.4" class="st12" width="57.4" height="12.5"/>
			<text transform="matrix(1 0 0 1 120.189 180.475)" class="st3 st4 st13">Chassis 5</text>
		</g>
		<g>
			<rect x="284.7" y="169.4" class="st12" width="57.4" height="12.5"/>
			<text transform="matrix(1 0 0 1 302.0303 180.475)" class="st3 st4 st13">Chassis 4</text>
		</g>
		<g>
			<rect x="130.9" y="316.5" class="st12" width="57.4" height="12.5"/>
			<text transform="matrix(1 0 0 1 120.189 327.6059)" class="st3 st4 st13">Chassis 3</text>
		</g>
		<g>
			<rect x="284.7" y="316.5" class="st12" width="57.4" height="12.5"/>
			<text transform="matrix(1 0 0 1 302.0303 327.6059)" class="st3 st4 st13">Chassis 2</text>
		</g>
		<g>
			<rect x="130.9" y="464.7" class="st12" width="57.4" height="12.5"/>
			<text transform="matrix(1 0 0 1 120.189 475.7309)" class="st3 st4 st13">Chassis 1</text>
		</g>
		<g>
			<rect x="284.7" y="464.7" class="st12" width="57.4" height="12.5"/>
			<text transform="matrix(1 0 0 1 302.0303 475.7309)" class="st3 st4 st13">Chassis 0</text>
		</g>
		<g>
			<rect x="71.4" y="184.5" class="st6" width="142.1" height="10.9"/>
			<text transform="matrix(1 0 0 1 90.0894 192.8481)" class="st3 st4 st7">S</text>
			<text transform="matrix(1 0 0 1 96.4463 192.8481)" class="st3 st4 st7">witch/</text>
			<text transform="matrix(1 0 0 1 125.6387 192.8481)" class="st3 st4 st7">P</text>
			<text transform="matrix(1 0 0 1 131.0967 192.8481)" class="st3 st4 st7">eriph Blade 7</text>
			<rect x="71.4" y="196.8" class="st6" width="142.1" height="10.9"/>
			<text transform="matrix(1 0 0 1 90.0894 205.393)" class="st3 st4 st7">S</text>
			<text transform="matrix(1 0 0 1 96.4463 205.393)" class="st3 st4 st7">witch/</text>
			<text transform="matrix(1 0 0 1 125.6387 205.393)" class="st3 st4 st7">P</text>
			<text transform="matrix(1 0 0 1 131.0967 205.393)" class="st3 st4 st7">eriph Blade 6</text>
			<rect x="71.4" y="209.2" class="st6" width="142.1" height="10.6"/>
			<text transform="matrix(1 0 0 1 90.0894 217.9369)" class="st3 st4 st7">S</text>
			<text transform="matrix(1 0 0 1 96.4463 217.9369)" class="st3 st4 st7">witch/</text>
			<text transform="matrix(1 0 0 1 125.6387 217.9369)" class="st3 st4 st7">P</text>
			<text transform="matrix(1 0 0 1 131.0967 217.9369)" class="st3 st4 st7">eriph Blade 5</text>
			<rect x="71.4" y="221.9" class="st6" width="142.1" height="10.9"/>
			<text transform="matrix(1 0 0 1 90.0894 230.4779)" class="st3 st4 st7">S</text>
			<text transform="matrix(1 0 0 1 96.4463 230.4779)" class="st3 st4 st7">witch/</text>
			<text transform="matrix(1 0 0 1 125.6387 230.4779)" class="st3 st4 st7">P</text>
			<text transform="matrix(1 0 0 1 131.0967 230.4779)" class="st3 st4 st7">eriph Blade 4</text>
			<rect x="71.4" y="260.2" class="st6" width="142.1" height="10.9"/>
			<text transform="matrix(1 0 0 1 90.0894 268.496)" class="st3 st4 st7">S</text>
			<text transform="matrix(1 0 0 1 96.4463 268.496)" class="st3 st4 st7">witch/</text>
			<text transform="matrix(1 0 0 1 125.6387 268.496)" class="st3 st4 st7">P</text>
			<text transform="matrix(1 0 0 1 131.0967 268.496)" class="st3 st4 st7">eriph Blade 3</text>
			<rect x="71.4" y="272.7" class="st6" width="142.1" height="10.9"/>
			<text transform="matrix(1 0 0 1 90.0894 281.3212)" class="st3 st4 st7">S</text>
			<text transform="matrix(1 0 0 1 96.4463 281.3212)" class="st3 st4 st7">witch/</text>
			<text transform="matrix(1 0 0 1 125.6387 281.3212)" class="st3 st4 st7">P</text>
			<text transform="matrix(1 0 0 1 131.0967 281.3212)" class="st3 st4 st7">eriph Blade 2</text>
			<rect x="71.4" y="285.3" class="st6" width="142.1" height="11.6"/>
			<text transform="matrix(1 0 0 1 90.0894 293.7118)" class="st3 st4 st7">S</text>
			<text transform="matrix(1 0 0 1 96.4463 293.7118)" class="st3 st4 st7">witch/</text>
			<text transform="matrix(1 0 0 1 125.6387 293.7118)" class="st3 st4 st7">P</text>
			<text transform="matrix(1 0 0 1 131.0967 293.7118)" class="st3 st4 st7">eriph Blade 1</text>
			<rect x="71.4" y="298.2" class="st6" width="142.1" height="11.6"/>
			<text transform="matrix(1 0 0 1 90.0894 306.9726)" class="st3 st4 st7">S</text>
			<text transform="matrix(1 0 0 1 96.4463 306.9726)" class="st3 st4 st7">witch/</text>
			<text transform="matrix(1 0 0 1 125.6387 306.9726)" class="st3 st4 st7">P</text>
			<text transform="matrix(1 0 0 1 131.0967 306.9726)" class="st3 st4 st7">eriph Blade 0</text>
			<rect x="71.4" y="87.3" class="st14" width="142.1" height="11.5"/>
			<text transform="matrix(1 0 0 1 128.667 96.0419)" class="st3 st4 st10">CEC 1</text>
			<rect x="71.4" y="247.6" class="st6" width="142.1" height="11.5"/>
			<text transform="matrix(1 0 0 1 127.0386 255.6425)" class="st3 st4 st10">CMM 5</text>
		</g>
		<g>
			<rect x="252.9" y="184.5" class="st11" width="140.4" height="10.9"/>
			<text transform="matrix(1 0 0 1 270.8525 192.8481)" class="st3 st4 st7">S</text>
			<text transform="matrix(1 0 0 1 277.21 192.8481)" class="st3 st4 st7">witch/</text>
			<text transform="matrix(1 0 0 1 306.4023 192.8481)" class="st3 st4 st7">P</text>
			<text transform="matrix(1 0 0 1 311.8604 192.8481)" class="st3 st4 st7">eriph Blade 7</text>
			<rect x="252.9" y="196.8" class="st11" width="140.4" height="10.9"/>
			<text transform="matrix(1 0 0 1 270.8525 205.393)" class="st3 st4 st7">S</text>
			<text transform="matrix(1 0 0 1 277.21 205.393)" class="st3 st4 st7">witch/</text>
			<text transform="matrix(1 0 0 1 306.4023 205.393)" class="st3 st4 st7">P</text>
			<text transform="matrix(1 0 0 1 311.8604 205.393)" class="st3 st4 st7">eriph Blade 6</text>
			<rect x="252.9" y="209.2" class="st11" width="140.4" height="10.6"/>
			<text transform="matrix(1 0 0 1 270.8525 217.9369)" class="st3 st4 st7">S</text>
			<text transform="matrix(1 0 0 1 277.21 217.9369)" class="st3 st4 st7">witch/</text>
			<text transform="matrix(1 0 0 1 306.4023 217.9369)" class="st3 st4 st7">P</text>
			<text transform="matrix(1 0 0 1 311.8604 217.9369)" class="st3 st4 st7">eriph Blade 5</text>
			<rect x="252.9" y="221.9" class="st11" width="140.4" height="10.9"/>
			<text transform="matrix(1 0 0 1 270.8525 230.4779)" class="st3 st4 st7">S</text>
			<text transform="matrix(1 0 0 1 277.21 230.4779)" class="st3 st4 st7">witch/</text>
			<text transform="matrix(1 0 0 1 306.4023 230.4779)" class="st3 st4 st7">P</text>
			<text transform="matrix(1 0 0 1 311.8604 230.4779)" class="st3 st4 st7">eriph Blade 4</text>
			<rect x="252.9" y="260.2" class="st11" width="140.4" height="10.9"/>
			<text transform="matrix(1 0 0 1 270.8525 268.496)" class="st3 st4 st7">S</text>
			<text transform="matrix(1 0 0 1 277.21 268.496)" class="st3 st4 st7">witch/</text>
			<text transform="matrix(1 0 0 1 306.4023 268.496)" class="st3 st4 st7">P</text>
			<text transform="matrix(1 0 0 1 311.8604 268.496)" class="st3 st4 st7">eriph Blade 3</text>
			<rect x="252.9" y="272.7" class="st11" width="140.4" height="10.9"/>
			<text transform="matrix(1 0 0 1 270.8525 281.3212)" class="st3 st4 st7">S</text>
			<text transform="matrix(1 0 0 1 277.21 281.3212)" class="st3 st4 st7">witch/</text>
			<text transform="matrix(1 0 0 1 306.4023 281.3212)" class="st3 st4 st7">P</text>
			<text transform="matrix(1 0 0 1 311.8604 281.3212)" class="st3 st4 st7">eriph Blade 2</text>
			<rect x="252.9" y="285.3" class="st11" width="140.4" height="11.6"/>
			<text transform="matrix(1 0 0 1 270.8525 293.7118)" class="st3 st4 st7">S</text>
			<text transform="matrix(1 0 0 1 277.21 293.7118)" class="st3 st4 st7">witch/</text>
			<text transform="matrix(1 0 0 1 306.4023 293.7118)" class="st3 st4 st7">P</text>
			<text transform="matrix(1 0 0 1 311.8604 293.7118)" class="st3 st4 st7">eriph Blade 1</text>
			<rect x="252.9" y="298.2" class="st11" width="140.4" height="11.6"/>
			<text transform="matrix(1 0 0 1 270.8525 306.9726)" class="st3 st4 st7">S</text>
			<text transform="matrix(1 0 0 1 277.21 306.9726)" class="st3 st4 st7">witch/</text>
			<text transform="matrix(1 0 0 1 306.4023 306.9726)" class="st3 st4 st7">P</text>
			<text transform="matrix(1 0 0 1 311.8604 306.9726)" class="st3 st4 st7">eriph Blade 0</text>
			<rect x="252.9" y="87.3" class="st14" width="140.4" height="11.5"/>
			<text transform="matrix(1 0 0 1 310.1396 96.0419)" class="st3 st4 st10">CEC 0</text>
			<rect x="252.9" y="247.6" class="st11" width="140.4" height="11.5"/>
			<text transform="matrix(1 0 0 1 308.5127 255.6425)" class="st3 st4 st10">CMM 4</text>
		</g>
		<g>
			<rect x="71.4" y="333.5" class="st6" width="142.1" height="10.9"/>
			<text transform="matrix(1 0 0 1 90.0894 341.808)" class="st3 st4 st7">S</text>
			<text transform="matrix(1 0 0 1 96.4463 341.808)" class="st3 st4 st7">witch/</text>
			<text transform="matrix(1 0 0 1 125.6387 341.808)" class="st3 st4 st7">P</text>
			<text transform="matrix(1 0 0 1 131.0967 341.808)" class="st3 st4 st7">eriph Blade 7</text>
			<rect x="71.4" y="345.7" class="st6" width="142.1" height="10.9"/>
			<text transform="matrix(1 0 0 1 90.0894 354.35)" class="st3 st4 st7">S</text>
			<text transform="matrix(1 0 0 1 96.4463 354.35)" class="st3 st4 st7">witch/</text>
			<text transform="matrix(1 0 0 1 125.6387 354.35)" class="st3 st4 st7">P</text>
			<text transform="matrix(1 0 0 1 131.0967 354.35)" class="st3 st4 st7">eriph Blade 6</text>
			<rect x="71.4" y="358.1" class="st6" width="142.1" height="10.6"/>
			<text transform="matrix(1 0 0 1 90.0894 366.8949)" class="st3 st4 st7">S</text>
			<text transform="matrix(1 0 0 1 96.4463 366.8949)" class="st3 st4 st7">witch/</text>
			<text transform="matrix(1 0 0 1 125.6387 366.8949)" class="st3 st4 st7">P</text>
			<text transform="matrix(1 0 0 1 131.0967 366.8949)" class="st3 st4 st7">eriph Blade 5</text>
			<rect x="71.4" y="370.8" class="st6" width="142.1" height="10.9"/>
			<text transform="matrix(1 0 0 1 90.0894 379.4379)" class="st3 st4 st7">S</text>
			<text transform="matrix(1 0 0 1 96.4463 379.4379)" class="st3 st4 st7">witch/</text>
			<text transform="matrix(1 0 0 1 125.6387 379.4379)" class="st3 st4 st7">P</text>
			<text transform="matrix(1 0 0 1 131.0967 379.4379)" class="st3 st4 st7">eriph Blade 4</text>
			<rect x="71.4" y="409.1" class="st6" width="142.1" height="10.9"/>
			<text transform="matrix(1 0 0 1 90.0894 417.4535)" class="st3 st4 st7">S</text>
			<text transform="matrix(1 0 0 1 96.4463 417.4535)" class="st3 st4 st7">witch/</text>
			<text transform="matrix(1 0 0 1 125.6387 417.4535)" class="st3 st4 st7">P</text>
			<text transform="matrix(1 0 0 1 131.0967 417.4535)" class="st3 st4 st7">eriph Blade 3</text>
			<rect x="71.4" y="421.6" class="st6" width="142.1" height="10.9"/>
			<text transform="matrix(1 0 0 1 90.0894 430.2787)" class="st3 st4 st7">S</text>
			<text transform="matrix(1 0 0 1 96.4463 430.2787)" class="st3 st4 st7">witch/</text>
			<text transform="matrix(1 0 0 1 125.6387 430.2787)" class="st3 st4 st7">P</text>
			<text transform="matrix(1 0 0 1 131.0967 430.2787)" class="st3 st4 st7">eriph Blade 2</text>
			<rect x="71.4" y="434.2" class="st6" width="142.1" height="11.6"/>
			<text transform="matrix(1 0 0 1 90.0894 442.6713)" class="st3 st4 st7">S</text>
			<text transform="matrix(1 0 0 1 96.4463 442.6713)" class="st3 st4 st7">witch/</text>
			<text transform="matrix(1 0 0 1 125.6387 442.6713)" class="st3 st4 st7">P</text>
			<text transform="matrix(1 0 0 1 131.0967 442.6713)" class="st3 st4 st7">eriph Blade 1</text>
			<rect x="71.4" y="447.2" class="st6" width="142.1" height="11.6"/>
			<text transform="matrix(1 0 0 1 90.0894 455.9301)" class="st3 st4 st7">S</text>
			<text transform="matrix(1 0 0 1 96.4463 455.9301)" class="st3 st4 st7">witch/</text>
			<text transform="matrix(1 0 0 1 125.6387 455.9301)" class="st3 st4 st7">P</text>
			<text transform="matrix(1 0 0 1 131.0967 455.9301)" class="st3 st4 st7">eriph Blade 0</text>
			<rect x="71.4" y="383.6" class="st8" width="142.1" height="11.5"/>
			<text transform="matrix(1 0 0 1 131.9912 391.0717)" class="st3 st4 st9">Blank</text>
			<rect x="71.4" y="396.5" class="st6" width="142.1" height="11.5"/>
			<text transform="matrix(1 0 0 1 127.0386 403.9057)" class="st3 st4 st10">CMM 3</text>
		</g>
		<g>
			<rect x="252.9" y="333.5" class="st11" width="140.4" height="10.9"/>
			<text transform="matrix(1 0 0 1 270.8525 341.808)" class="st3 st4 st7">S</text>
			<text transform="matrix(1 0 0 1 277.21 341.808)" class="st3 st4 st7">witch/</text>
			<text transform="matrix(1 0 0 1 306.4023 341.808)" class="st3 st4 st7">P</text>
			<text transform="matrix(1 0 0 1 311.8604 341.808)" class="st3 st4 st7">eriph Blade 7</text>
			<rect x="252.9" y="345.7" class="st11" width="140.4" height="10.9"/>
			<text transform="matrix(1 0 0 1 270.8525 354.35)" class="st3 st4 st7">S</text>
			<text transform="matrix(1 0 0 1 277.21 354.35)" class="st3 st4 st7">witch/</text>
			<text transform="matrix(1 0 0 1 306.4023 354.35)" class="st3 st4 st7">P</text>
			<text transform="matrix(1 0 0 1 311.8604 354.35)" class="st3 st4 st7">eriph Blade 6</text>
			<rect x="252.9" y="358.1" class="st11" width="140.4" height="10.6"/>
			<text transform="matrix(1 0 0 1 270.8525 366.8949)" class="st3 st4 st7">S</text>
			<text transform="matrix(1 0 0 1 277.21 366.8949)" class="st3 st4 st7">witch/</text>
			<text transform="matrix(1 0 0 1 306.4023 366.8949)" class="st3 st4 st7">P</text>
			<text transform="matrix(1 0 0 1 311.8604 366.8949)" class="st3 st4 st7">eriph Blade 5</text>
			<rect x="252.9" y="370.8" class="st11" width="140.4" height="10.9"/>
			<text transform="matrix(1 0 0 1 270.8525 379.4379)" class="st3 st4 st7">S</text>
			<text transform="matrix(1 0 0 1 277.21 379.4379)" class="st3 st4 st7">witch/</text>
			<text transform="matrix(1 0 0 1 306.4023 379.4379)" class="st3 st4 st7">P</text>
			<text transform="matrix(1 0 0 1 311.8604 379.4379)" class="st3 st4 st7">eriph Blade 4</text>
			<rect x="252.9" y="409.1" class="st11" width="140.4" height="10.9"/>
			<text transform="matrix(1 0 0 1 270.8525 417.4535)" class="st3 st4 st7">S</text>
			<text transform="matrix(1 0 0 1 277.21 417.4535)" class="st3 st4 st7">witch/</text>
			<text transform="matrix(1 0 0 1 306.4023 417.4535)" class="st3 st4 st7">P</text>
			<text transform="matrix(1 0 0 1 311.8604 417.4535)" class="st3 st4 st7">eriph Blade 3</text>
			<rect x="252.9" y="421.6" class="st11" width="140.4" height="10.9"/>
			<text transform="matrix(1 0 0 1 270.8525 430.2787)" class="st3 st4 st7">S</text>
			<text transform="matrix(1 0 0 1 277.21 430.2787)" class="st3 st4 st7">witch/</text>
			<text transform="matrix(1 0 0 1 306.4023 430.2787)" class="st3 st4 st7">P</text>
			<text transform="matrix(1 0 0 1 311.8604 430.2787)" class="st3 st4 st7">eriph Blade 2</text>
			<rect x="252.9" y="434.2" class="st11" width="140.4" height="11.6"/>
			<text transform="matrix(1 0 0 1 270.8525 442.6713)" class="st3 st4 st7">S</text>
			<text transform="matrix(1 0 0 1 277.21 442.6713)" class="st3 st4 st7">witch/</text>
			<text transform="matrix(1 0 0 1 306.4023 442.6713)" class="st3 st4 st7">P</text>
			<text transform="matrix(1 0 0 1 311.8604 442.6713)" class="st3 st4 st7">eriph Blade 1</text>
			<rect x="252.9" y="447.2" class="st11" width="140.4" height="11.6"/>
			<text transform="matrix(1 0 0 1 270.8525 455.9301)" class="st3 st4 st7">S</text>
			<text transform="matrix(1 0 0 1 277.21 455.9301)" class="st3 st4 st7">witch/</text>
			<text transform="matrix(1 0 0 1 306.4023 455.9301)" class="st3 st4 st7">P</text>
			<text transform="matrix(1 0 0 1 311.8604 455.9301)" class="st3 st4 st7">eriph Blade 0</text>
			<rect x="252.9" y="383.6" class="st8" width="140.4" height="11.5"/>
			<text transform="matrix(1 0 0 1 313.4648 391.0717)" class="st3 st4 st9">Blank</text>
			<rect x="252.9" y="396.5" class="st11" width="140.4" height="11.5"/>
			<text transform="matrix(1 0 0 1 308.5127 403.9057)" class="st3 st4 st10">CMM 2</text>
		</g>
		<g>
			<rect x="71.4" y="481.7" class="st6" width="140.4" height="10.9"/>
			<text transform="matrix(1 0 0 1 90.0894 490.0492)" class="st3 st4 st7">S</text>
			<text transform="matrix(1 0 0 1 96.4463 490.0492)" class="st3 st4 st7">witch/</text>
			<text transform="matrix(1 0 0 1 125.6387 490.0492)" class="st3 st4 st7">P</text>
			<text transform="matrix(1 0 0 1 131.0967 490.0492)" class="st3 st4 st7">eriph Blade 7</text>
			<rect x="71.4" y="494" class="st6" width="140.4" height="10.9"/>
			<text transform="matrix(1 0 0 1 90.0894 502.5922)" class="st3 st4 st7">S</text>
			<text transform="matrix(1 0 0 1 96.4463 502.5922)" class="st3 st4 st7">witch/</text>
			<text transform="matrix(1 0 0 1 125.6387 502.5922)" class="st3 st4 st7">P</text>
			<text transform="matrix(1 0 0 1 131.0967 502.5922)" class="st3 st4 st7">eriph Blade 6</text>
			<rect x="71.4" y="506.4" class="st6" width="140.4" height="10.6"/>
			<text transform="matrix(1 0 0 1 90.0894 515.1361)" class="st3 st4 st7">S</text>
			<text transform="matrix(1 0 0 1 96.4463 515.1361)" class="st3 st4 st7">witch/</text>
			<text transform="matrix(1 0 0 1 125.6387 515.1361)" class="st3 st4 st7">P</text>
			<text transform="matrix(1 0 0 1 131.0967 515.1361)" class="st3 st4 st7">eriph Blade 5</text>
			<rect x="71.4" y="519.1" class="st6" width="140.4" height="10.9"/>
			<text transform="matrix(1 0 0 1 90.0894 527.6771)" class="st3 st4 st7">S</text>
			<text transform="matrix(1 0 0 1 96.4463 527.6771)" class="st3 st4 st7">witch/</text>
			<text transform="matrix(1 0 0 1 125.6387 527.6771)" class="st3 st4 st7">P</text>
			<text transform="matrix(1 0 0 1 131.0967 527.6771)" class="st3 st4 st7">eriph Blade 4</text>
			<rect x="71.4" y="557.4" class="st6" width="140.4" height="10.9"/>
			<text transform="matrix(1 0 0 1 90.0894 565.6937)" class="st3 st4 st7">S</text>
			<text transform="matrix(1 0 0 1 96.4463 565.6937)" class="st3 st4 st7">witch/</text>
			<text transform="matrix(1 0 0 1 125.6387 565.6937)" class="st3 st4 st7">P</text>
			<text transform="matrix(1 0 0 1 131.0967 565.6937)" class="st3 st4 st7">eriph Blade 3</text>
			<rect x="71.4" y="569.9" class="st6" width="140.4" height="10.9"/>
			<text transform="matrix(1 0 0 1 90.0894 578.5199)" class="st3 st4 st7">S</text>
			<text transform="matrix(1 0 0 1 96.4463 578.5199)" class="st3 st4 st7">witch/</text>
			<text transform="matrix(1 0 0 1 125.6387 578.5199)" class="st3 st4 st7">P</text>
			<text transform="matrix(1 0 0 1 131.0967 578.5199)" class="st3 st4 st7">eriph Blade 2</text>
			<rect x="71.4" y="582.5" class="st6" width="140.4" height="11.6"/>
			<text transform="matrix(1 0 0 1 90.0894 590.9105)" class="st3 st4 st7">S</text>
			<text transform="matrix(1 0 0 1 96.4463 590.9105)" class="st3 st4 st7">witch/</text>
			<text transform="matrix(1 0 0 1 125.6387 590.9105)" class="st3 st4 st7">P</text>
			<text transform="matrix(1 0 0 1 131.0967 590.9105)" class="st3 st4 st7">eriph Blade 1</text>
			<rect x="71.4" y="595.4" class="st6" width="140.4" height="11.6"/>
			<text transform="matrix(1 0 0 1 90.0894 604.1703)" class="st3 st4 st7">S</text>
			<text transform="matrix(1 0 0 1 96.4463 604.1703)" class="st3 st4 st7">witch/</text>
			<text transform="matrix(1 0 0 1 125.6387 604.1703)" class="st3 st4 st7">P</text>
			<text transform="matrix(1 0 0 1 131.0967 604.1703)" class="st3 st4 st7">eriph Blade 0</text>
			<rect x="71.4" y="531.8" class="st8" width="140.4" height="11.5"/>
			<text transform="matrix(1 0 0 1 131.9912 539.8324)" class="st3 st4 st9">Blank</text>
			<rect x="71.4" y="544.7" class="st6" width="140.4" height="11.5"/>
			<text transform="matrix(1 0 0 1 127.0386 553.4711)" class="st3 st4 st10">CMM 1</text>
		</g>
		<g>
			<rect x="252.9" y="481.7" class="st11" width="140.4" height="10.9"/>
			<text transform="matrix(1 0 0 1 270.8525 490.0492)" class="st3 st4 st7">S</text>
			<text transform="matrix(1 0 0 1 277.21 490.0492)" class="st3 st4 st7">witch/</text>
			<text transform="matrix(1 0 0 1 306.4023 490.0492)" class="st3 st4 st7">P</text>
			<text transform="matrix(1 0 0 1 311.8604 490.0492)" class="st3 st4 st7">eriph Blade 7</text>
			<rect x="252.9" y="494" class="st11" width="140.4" height="10.9"/>
			<text transform="matrix(1 0 0 1 270.8525 502.5922)" class="st3 st4 st7">S</text>
			<text transform="matrix(1 0 0 1 277.21 502.5922)" class="st3 st4 st7">witch/</text>
			<text transform="matrix(1 0 0 1 306.4023 502.5922)" class="st3 st4 st7">P</text>
			<text transform="matrix(1 0 0 1 311.8604 502.5922)" class="st3 st4 st7">eriph Blade 6</text>
			<rect x="252.9" y="506.4" class="st11" width="140.4" height="10.6"/>
			<text transform="matrix(1 0 0 1 270.8525 515.1361)" class="st3 st4 st7">S</text>
			<text transform="matrix(1 0 0 1 277.21 515.1361)" class="st3 st4 st7">witch/</text>
			<text transform="matrix(1 0 0 1 306.4023 515.1361)" class="st3 st4 st7">P</text>
			<text transform="matrix(1 0 0 1 311.8604 515.1361)" class="st3 st4 st7">eriph Blade 5</text>
			<rect x="252.9" y="519.1" class="st11" width="140.4" height="10.9"/>
			<text transform="matrix(1 0 0 1 270.8525 527.6771)" class="st3 st4 st7">S</text>
			<text transform="matrix(1 0 0 1 277.21 527.6771)" class="st3 st4 st7">witch/</text>
			<text transform="matrix(1 0 0 1 306.4023 527.6771)" class="st3 st4 st7">P</text>
			<text transform="matrix(1 0 0 1 311.8604 527.6771)" class="st3 st4 st7">eriph Blade 4</text>
			<rect x="252.9" y="557.4" class="st11" width="140.4" height="10.9"/>
			<text transform="matrix(1 0 0 1 270.8545 565.6937)" class="st3 st4 st7">S</text>
			<text transform="matrix(1 0 0 1 277.2109 565.6937)" class="st3 st4 st7">witch/</text>
			<text transform="matrix(1 0 0 1 306.4033 565.6937)" class="st3 st4 st7">P</text>
			<text transform="matrix(1 0 0 1 311.8613 565.6937)" class="st3 st4 st7">eriph Blade 3</text>
			<rect x="252.9" y="569.8" class="st11" width="140.4" height="10.9"/>
			<text transform="matrix(1 0 0 1 270.8545 578.5199)" class="st3 st4 st7">S</text>
			<text transform="matrix(1 0 0 1 277.2109 578.5199)" class="st3 st4 st7">witch/</text>
			<text transform="matrix(1 0 0 1 306.4033 578.5199)" class="st3 st4 st7">P</text>
			<text transform="matrix(1 0 0 1 311.8613 578.5199)" class="st3 st4 st7">eriph Blade 2</text>
			<rect x="252.9" y="582.5" class="st11" width="140.4" height="11.6"/>
			<text transform="matrix(1 0 0 1 270.8545 590.9105)" class="st3 st4 st7">S</text>
			<text transform="matrix(1 0 0 1 277.2109 590.9105)" class="st3 st4 st7">witch/</text>
			<text transform="matrix(1 0 0 1 306.4033 590.9105)" class="st3 st4 st7">P</text>
			<text transform="matrix(1 0 0 1 311.8613 590.9105)" class="st3 st4 st7">eriph Blade 1</text>
			<rect x="252.9" y="595.4" class="st11" width="140.4" height="11.6"/>
			<text transform="matrix(1 0 0 1 270.8545 604.1703)" class="st3 st4 st7">S</text>
			<text transform="matrix(1 0 0 1 277.2109 604.1703)" class="st3 st4 st7">witch/</text>
			<text transform="matrix(1 0 0 1 306.4033 604.1703)" class="st3 st4 st7">P</text>
			<text transform="matrix(1 0 0 1 311.8613 604.1703)" class="st3 st4 st7">eriph Blade 0</text>
			<rect x="252.9" y="531.8" class="st8" width="140.4" height="11.5"/>
			<text transform="matrix(1 0 0 1 313.4648 539.8324)" class="st3 st4 st9">Blank</text>
			<rect x="252.9" y="544.7" class="st11" width="140.4" height="11.5"/>
			<text transform="matrix(1 0 0 1 308.5127 553.4711)" class="st3 st4 st10">CMM 0</text>
		</g>
	</g>
</g>
</svg>
