<?xml version="1.0" encoding="utf-8"?>
<!-- Generator: Adobe Illustrator 25.2.1, SVG Export Plug-In . SVG Version: 6.00 Build 0)  -->
<svg version="1.1" id="Layer_1" xmlns="http://www.w3.org/2000/svg" xmlns:xlink="http://www.w3.org/1999/xlink" x="0px" y="0px"
	 viewBox="0 0 432 624.2" style="enable-background:new 0 0 432 624.2;" xml:space="preserve">
<style type="text/css">
	.st0{fill:#FFFFFF;}
	.st1{fill:none;stroke:#435663;stroke-width:2;stroke-linecap:square;stroke-miterlimit:9.9998;}
	.st2{fill:#FFFBDE;stroke:#454547;stroke-width:0.75;stroke-linecap:round;stroke-linejoin:bevel;stroke-miterlimit:3.9999;}
	.st3{fill:#FFFFFF;stroke:#1F1F1F;stroke-width:0.75;stroke-miterlimit:9.9998;}
	.st4{fill:#FFFBDE;}
	.st5{fill:#FFFFFF;stroke:#454547;stroke-width:1;stroke-linecap:round;stroke-linejoin:bevel;stroke-miterlimit:3.9999;}
	.st6{fill:none;stroke:#454547;stroke-width:0.75;stroke-linecap:round;stroke-linejoin:bevel;stroke-miterlimit:3.9999;}
	.st7{fill:none;stroke:#454547;stroke-width:1;stroke-linecap:round;stroke-linejoin:bevel;stroke-miterlimit:3.9999;}
	.st8{fill:#141414;}
	.st9{font-family:'Verdana';}
	.st10{font-size:9.2568px;}
	.st11{font-size:10.0072px;}
	.st12{font-size:12px;}
	.st13{font-size:6.1716px;}
	.st14{font-size:8.1878px;}
</style>
<rect x="4" y="2" class="st0" width="427" height="621"/>
<g id="Mountain_Cabinet_Front">
	<g>
		<rect x="12.5" y="19.7" class="st1" width="408.4" height="594.3"/>
		<g>
			<rect x="39.3" y="29.8" class="st2" width="15.8" height="138.5"/>
			<rect x="57.1" y="29.8" class="st2" width="15.8" height="138.5"/>
			<rect x="74.6" y="29.8" class="st2" width="15.8" height="138.5"/>
			<rect x="92.4" y="29.8" class="st2" width="15.8" height="138.5"/>
			<rect x="109.9" y="29.8" class="st2" width="15.8" height="138.5"/>
			<rect x="127.8" y="29.8" class="st2" width="15.8" height="138.5"/>
			<rect x="145.3" y="29.8" class="st2" width="15.8" height="138.5"/>
			<rect x="163.1" y="29.8" class="st2" width="15.8" height="138.5"/>
		</g>
		<g>
			<rect x="236.7" y="29.8" class="st3" width="15.8" height="138.5"/>
			<rect x="254.5" y="29.8" class="st3" width="15.8" height="138.5"/>
			<rect x="272" y="29.8" class="st3" width="15.8" height="138.5"/>
			<rect x="289.8" y="29.8" class="st3" width="15.8" height="138.5"/>
			<rect x="307.3" y="29.8" class="st3" width="15.8" height="138.5"/>
			<rect x="325.2" y="29.8" class="st3" width="15.8" height="138.5"/>
			<rect x="342.7" y="29.8" class="st3" width="15.8" height="138.5"/>
			<rect x="360.5" y="29.8" class="st3" width="15.8" height="138.5"/>
		</g>
		<rect x="82.4" y="39.7" class="st4" width="59.4" height="14.1"/>
		<rect x="278" y="39.7" class="st0" width="59.4" height="14.1"/>
		<rect x="380.4" y="36.7" class="st5" width="24.9" height="124.3"/>
		<rect x="36.6" y="26.7" class="st6" width="341.5" height="143.8"/>
		<g>
			<rect x="39.3" y="175.3" class="st2" width="15.8" height="138.5"/>
			<rect x="57.1" y="175.3" class="st2" width="15.8" height="138.5"/>
			<rect x="74.6" y="175.3" class="st2" width="15.8" height="138.5"/>
			<rect x="92.4" y="175.3" class="st2" width="15.8" height="138.5"/>
			<rect x="109.9" y="175.3" class="st2" width="15.8" height="138.5"/>
			<rect x="127.8" y="175.3" class="st2" width="15.8" height="138.5"/>
			<rect x="145.3" y="175.3" class="st2" width="15.8" height="138.5"/>
			<rect x="163.1" y="175.3" class="st2" width="15.8" height="138.5"/>
		</g>
		<g>
			<rect x="236.7" y="175.3" class="st3" width="15.8" height="138.5"/>
			<rect x="254.5" y="175.3" class="st3" width="15.8" height="138.5"/>
			<rect x="272" y="175.3" class="st3" width="15.8" height="138.5"/>
			<rect x="289.8" y="175.3" class="st3" width="15.8" height="138.5"/>
			<rect x="307.3" y="175.3" class="st3" width="15.8" height="138.5"/>
			<rect x="325.2" y="175.3" class="st3" width="15.8" height="138.5"/>
			<rect x="342.7" y="175.3" class="st3" width="15.8" height="138.5"/>
			<rect x="360.5" y="175.3" class="st3" width="15.8" height="138.5"/>
		</g>
		<rect x="82" y="185.2" class="st4" width="59.4" height="14.1"/>
		<rect x="279.7" y="185.2" class="st0" width="59.4" height="14.1"/>
		<rect x="380.4" y="182.2" class="st5" width="24.9" height="124.3"/>
		<rect x="36.6" y="173.8" class="st7" width="341.5" height="143.8"/>
		<g>
			<rect x="39.3" y="324.2" class="st2" width="15.8" height="138.5"/>
			<rect x="57.1" y="324.2" class="st2" width="15.8" height="138.5"/>
			<rect x="74.6" y="324.2" class="st2" width="15.8" height="138.5"/>
			<rect x="92.4" y="324.2" class="st2" width="15.8" height="138.5"/>
			<rect x="109.9" y="324.2" class="st2" width="15.8" height="138.5"/>
			<rect x="127.8" y="324.2" class="st2" width="15.8" height="138.5"/>
			<rect x="145.3" y="324.2" class="st2" width="15.8" height="138.5"/>
			<rect x="163.1" y="324.2" class="st2" width="15.8" height="138.5"/>
		</g>
		<g>
			<rect x="236.7" y="324.2" class="st3" width="15.8" height="138.5"/>
			<rect x="254.5" y="324.2" class="st3" width="15.8" height="138.5"/>
			<rect x="272" y="324.2" class="st3" width="15.8" height="138.5"/>
			<rect x="289.8" y="324.2" class="st3" width="15.8" height="138.5"/>
			<rect x="307.3" y="324.2" class="st3" width="15.8" height="138.5"/>
			<rect x="325.2" y="324.2" class="st3" width="15.8" height="138.5"/>
			<rect x="342.7" y="324.2" class="st3" width="15.8" height="138.5"/>
			<rect x="360.5" y="324.2" class="st3" width="15.8" height="138.5"/>
		</g>
		<rect x="82.4" y="334.1" class="st4" width="59.4" height="14.1"/>
		<rect x="280.4" y="334.1" class="st0" width="59.4" height="14.1"/>
		<rect x="380.4" y="331" class="st5" width="24.9" height="124.3"/>
		<rect x="36.6" y="321" class="st7" width="341.5" height="143.8"/>
		<g>
			<rect x="39.3" y="471.4" class="st2" width="15.8" height="138.5"/>
			<rect x="57.1" y="471.4" class="st2" width="15.8" height="138.5"/>
			<rect x="74.6" y="471.4" class="st2" width="15.8" height="138.5"/>
			<rect x="92.4" y="471.4" class="st2" width="15.8" height="138.5"/>
			<rect x="109.9" y="471.4" class="st2" width="15.8" height="138.5"/>
			<rect x="127.8" y="471.4" class="st2" width="15.8" height="138.5"/>
			<rect x="145.3" y="471.4" class="st2" width="15.8" height="138.5"/>
			<rect x="163.1" y="471.4" class="st2" width="15.8" height="138.5"/>
		</g>
		<g>
			<rect x="236.7" y="471.4" class="st3" width="15.8" height="138.5"/>
			<rect x="254.5" y="471.4" class="st3" width="15.8" height="138.5"/>
			<rect x="272" y="471.4" class="st3" width="15.8" height="138.5"/>
			<rect x="289.8" y="471.4" class="st3" width="15.8" height="138.5"/>
			<rect x="307.3" y="471.4" class="st3" width="15.8" height="138.5"/>
			<rect x="325.2" y="471.4" class="st3" width="15.8" height="138.5"/>
			<rect x="342.7" y="471.4" class="st3" width="15.8" height="138.5"/>
			<rect x="360.5" y="471.4" class="st3" width="15.8" height="138.5"/>
		</g>
		<rect x="79.6" y="481.3" class="st4" width="59.4" height="14.1"/>
		<rect x="280" y="481.3" class="st0" width="59.4" height="14.1"/>
		<rect x="380.4" y="478.2" class="st5" width="24.9" height="124.3"/>
		<rect x="36.6" y="468.2" class="st7" width="341.5" height="143.8"/>
		<text transform="matrix(6.123234e-17 -1 1 6.123234e-17 50.9116 165.4492)" class="st8 st9 st10">Compute Blade</text>
		<text transform="matrix(6.123234e-17 -1 1 6.123234e-17 68.7407 165.4492)" class="st8 st9 st10">Compute Blade</text>
		<text transform="matrix(6.123234e-17 -1 1 6.123234e-17 86.2456 165.4492)" class="st8 st9 st10">Compute Blade</text>
		<text transform="matrix(6.123234e-17 -1 1 6.123234e-17 104.0747 165.4492)" class="st8 st9 st10">Compute Blade</text>
		<text transform="matrix(6.123234e-17 -1 1 6.123234e-17 121.5815 165.4492)" class="st8 st9 st10">Compute Blade</text>
		<text transform="matrix(6.123234e-17 -1 1 6.123234e-17 139.4097 165.4492)" class="st8 st9 st10">Compute Blade</text>
		<text transform="matrix(6.123234e-17 -1 1 6.123234e-17 156.9146 165.4492)" class="st8 st9 st10">Compute Blade</text>
		<text transform="matrix(6.123234e-17 -1 1 6.123234e-17 174.7446 165.4492)" class="st8 st9 st10">Compute Blade</text>
		<text transform="matrix(6.123234e-17 -1 1 6.123234e-17 248.3369 165.4492)" class="st8 st9 st10">Compute Blade</text>
		<text transform="matrix(6.123234e-17 -1 1 6.123234e-17 266.166 165.4492)" class="st8 st9 st10">Compute Blade</text>
		<text transform="matrix(6.123234e-17 -1 1 6.123234e-17 283.6709 165.4492)" class="st8 st9 st10">Compute Blade</text>
		<text transform="matrix(6.123234e-17 -1 1 6.123234e-17 301.501 165.4492)" class="st8 st9 st10">Compute Blade</text>
		<text transform="matrix(6.123234e-17 -1 1 6.123234e-17 319.0068 165.4492)" class="st8 st9 st10">Compute Blade</text>
		<text transform="matrix(6.123234e-17 -1 1 6.123234e-17 336.834 165.4492)" class="st8 st9 st10">Compute Blade</text>
		<text transform="matrix(6.123234e-17 -1 1 6.123234e-17 354.3418 165.4492)" class="st8 st9 st10">Compute Blade</text>
		<text transform="matrix(6.123234e-17 -1 1 6.123234e-17 372.1709 165.4492)" class="st8 st9 st10">Compute Blade</text>
		<g>
			<text transform="matrix(1 0 0 1 44.8267 89.0205)" class="st8 st9 st10">0</text>
			<text transform="matrix(1 0 0 1 62.0737 89.0205)" class="st8 st9 st10">1</text>
			<text transform="matrix(1 0 0 1 79.3208 89.0205)" class="st8 st9 st10">2</text>
			<text transform="matrix(1 0 0 1 97.8296 89.0205)" class="st8 st9 st10">3</text>
			<text transform="matrix(1 0 0 1 114.6558 89.0205)" class="st8 st9 st10">4</text>
			<text transform="matrix(1 0 0 1 132.7437 89.0205)" class="st8 st9 st10">5</text>
			<text transform="matrix(1 0 0 1 150.4116 89.0205)" class="st8 st9 st10">6</text>
			<text transform="matrix(1 0 0 1 168.0776 89.0205)" class="st8 st9 st10">7</text>
			<text transform="matrix(1 0 0 1 242.2529 89.0205)" class="st8 st9 st10">0</text>
			<text transform="matrix(1 0 0 1 259.5 89.0205)" class="st8 st9 st10">1</text>
			<text transform="matrix(1 0 0 1 276.7471 89.0205)" class="st8 st9 st10">2</text>
			<text transform="matrix(1 0 0 1 295.2549 89.0205)" class="st8 st9 st10">3</text>
			<text transform="matrix(1 0 0 1 312.082 89.0205)" class="st8 st9 st10">4</text>
			<text transform="matrix(1 0 0 1 330.1699 89.0205)" class="st8 st9 st10">5</text>
			<text transform="matrix(1 0 0 1 347.8369 89.0205)" class="st8 st9 st10">6</text>
			<text transform="matrix(1 0 0 1 365.5039 89.0205)" class="st8 st9 st10">7</text>
		</g>
		<text transform="matrix(1 0 0 1 86.3013 50.3887)" class="st8 st9 st11">Chassis 6</text>
		<text transform="matrix(1 0 0 1 281.9258 50.3887)" class="st8 st9 st11">Chassis 7</text>
		<text transform="matrix(1 0 0 1 382.6279 100.8711)" class="st8 st9 st10">PDU</text>
		<text transform="matrix(1 0 0 1 389.4297 111.9795)" class="st8 st9 st10">3</text>
		<text transform="matrix(6.123234e-17 -1 1 6.123234e-17 50.9116 310.3535)" class="st8 st9 st10">Compute Blade</text>
		<text transform="matrix(6.123234e-17 -1 1 6.123234e-17 68.7407 310.3535)" class="st8 st9 st10">Compute Blade</text>
		<text transform="matrix(6.123234e-17 -1 1 6.123234e-17 86.2456 310.3535)" class="st8 st9 st10">Compute Blade</text>
		<text transform="matrix(6.123234e-17 -1 1 6.123234e-17 104.0747 310.3535)" class="st8 st9 st10">Compute Blade</text>
		<text transform="matrix(6.123234e-17 -1 1 6.123234e-17 121.5815 310.3535)" class="st8 st9 st10">Compute Blade</text>
		<text transform="matrix(6.123234e-17 -1 1 6.123234e-17 139.4097 310.3535)" class="st8 st9 st10">Compute Blade</text>
		<text transform="matrix(6.123234e-17 -1 1 6.123234e-17 156.9146 310.3535)" class="st8 st9 st10">Compute Blade</text>
		<text transform="matrix(6.123234e-17 -1 1 6.123234e-17 174.7446 310.3535)" class="st8 st9 st10">Compute Blade</text>
		<text transform="matrix(6.123234e-17 -1 1 6.123234e-17 248.3369 309.8916)" class="st8 st9 st10">Compute Blade</text>
		<text transform="matrix(6.123234e-17 -1 1 6.123234e-17 266.166 309.8916)" class="st8 st9 st10">Compute Blade</text>
		<text transform="matrix(6.123234e-17 -1 1 6.123234e-17 283.6709 309.8916)" class="st8 st9 st10">Compute Blade</text>
		<text transform="matrix(6.123234e-17 -1 1 6.123234e-17 301.501 309.8916)" class="st8 st9 st10">Compute Blade</text>
		<text transform="matrix(6.123234e-17 -1 1 6.123234e-17 319.0068 309.8916)" class="st8 st9 st10">Compute Blade</text>
		<text transform="matrix(6.123234e-17 -1 1 6.123234e-17 336.834 309.8916)" class="st8 st9 st10">Compute Blade</text>
		<text transform="matrix(6.123234e-17 -1 1 6.123234e-17 354.3418 309.8916)" class="st8 st9 st10">Compute Blade</text>
		<text transform="matrix(6.123234e-17 -1 1 6.123234e-17 372.1709 309.8916)" class="st8 st9 st10">Compute Blade</text>
		<g>
			<text transform="matrix(1 0 0 1 44.8267 233.8164)" class="st8 st9 st10">0</text>
			<text transform="matrix(1 0 0 1 62.0737 233.8164)" class="st8 st9 st10">1</text>
			<text transform="matrix(1 0 0 1 79.3208 233.8164)" class="st8 st9 st10">2</text>
			<text transform="matrix(1 0 0 1 97.8296 233.8164)" class="st8 st9 st10">3</text>
			<text transform="matrix(1 0 0 1 114.6558 233.8164)" class="st8 st9 st10">4</text>
			<text transform="matrix(1 0 0 1 132.7437 233.8164)" class="st8 st9 st10">5</text>
			<text transform="matrix(1 0 0 1 150.4116 233.8164)" class="st8 st9 st10">6</text>
			<text transform="matrix(1 0 0 1 168.0776 233.8164)" class="st8 st9 st10">7</text>
			<text transform="matrix(1 0 0 1 242.2529 233.8164)" class="st8 st9 st10">0</text>
			<text transform="matrix(1 0 0 1 259.5 233.8164)" class="st8 st9 st10">1</text>
			<text transform="matrix(1 0 0 1 276.7471 233.8164)" class="st8 st9 st10">2</text>
			<text transform="matrix(1 0 0 1 295.2549 233.8164)" class="st8 st9 st10">3</text>
			<text transform="matrix(1 0 0 1 312.082 233.8164)" class="st8 st9 st10">4</text>
			<text transform="matrix(1 0 0 1 330.1699 233.8164)" class="st8 st9 st10">5</text>
			<text transform="matrix(1 0 0 1 347.8369 233.8164)" class="st8 st9 st10">6</text>
			<text transform="matrix(1 0 0 1 365.5039 233.8164)" class="st8 st9 st10">7</text>
		</g>
		<text transform="matrix(1 0 0 1 85.6626 196.4736)" class="st8 st9 st11">Chassis 4</text>
		<text transform="matrix(1 0 0 1 283.3115 196.1279)" class="st8 st9 st11">Chassis 5</text>
		<text transform="matrix(1 0 0 1 382.6279 244.2705)" class="st8 st9 st10">PDU</text>
		<text transform="matrix(1 0 0 1 389.4297 255.3799)" class="st8 st9 st10">2</text>
		<text transform="matrix(6.123234e-17 -1 1 6.123234e-17 50.9116 459.3486)" class="st8 st9 st10">Compute Blade</text>
		<text transform="matrix(6.123234e-17 -1 1 6.123234e-17 68.7407 459.3486)" class="st8 st9 st10">Compute Blade</text>
		<text transform="matrix(6.123234e-17 -1 1 6.123234e-17 86.2456 459.3486)" class="st8 st9 st10">Compute Blade</text>
		<text transform="matrix(6.123234e-17 -1 1 6.123234e-17 104.0747 459.3486)" class="st8 st9 st10">Compute Blade</text>
		<text transform="matrix(6.123234e-17 -1 1 6.123234e-17 121.5815 459.3486)" class="st8 st9 st10">Compute Blade</text>
		<text transform="matrix(6.123234e-17 -1 1 6.123234e-17 139.4097 459.3486)" class="st8 st9 st10">Compute Blade</text>
		<text transform="matrix(6.123234e-17 -1 1 6.123234e-17 156.9146 459.3486)" class="st8 st9 st10">Compute Blade</text>
		<text transform="matrix(6.123234e-17 -1 1 6.123234e-17 174.7446 459.3486)" class="st8 st9 st10">Compute Blade</text>
		<text transform="matrix(6.123234e-17 -1 1 6.123234e-17 248.3369 458.8887)" class="st8 st9 st10">Compute Blade</text>
		<text transform="matrix(6.123234e-17 -1 1 6.123234e-17 266.166 458.8887)" class="st8 st9 st10">Compute Blade</text>
		<text transform="matrix(6.123234e-17 -1 1 6.123234e-17 283.6709 458.8887)" class="st8 st9 st10">Compute Blade</text>
		<text transform="matrix(6.123234e-17 -1 1 6.123234e-17 301.501 458.8887)" class="st8 st9 st10">Compute Blade</text>
		<text transform="matrix(6.123234e-17 -1 1 6.123234e-17 319.0068 458.8887)" class="st8 st9 st10">Compute Blade</text>
		<text transform="matrix(6.123234e-17 -1 1 6.123234e-17 336.834 458.8887)" class="st8 st9 st10">Compute Blade</text>
		<text transform="matrix(6.123234e-17 -1 1 6.123234e-17 354.3418 458.8887)" class="st8 st9 st10">Compute Blade</text>
		<text transform="matrix(6.123234e-17 -1 1 6.123234e-17 372.1709 458.8887)" class="st8 st9 st10">Compute Blade</text>
		<g>
			<text transform="matrix(1 0 0 1 44.8267 383.832)" class="st8 st9 st10">0</text>
			<text transform="matrix(1 0 0 1 62.0737 383.832)" class="st8 st9 st10">1</text>
			<text transform="matrix(1 0 0 1 79.3208 383.832)" class="st8 st9 st10">2</text>
			<text transform="matrix(1 0 0 1 97.8296 383.832)" class="st8 st9 st10">3</text>
			<text transform="matrix(1 0 0 1 114.6558 383.832)" class="st8 st9 st10">4</text>
			<text transform="matrix(1 0 0 1 132.7437 383.832)" class="st8 st9 st10">5</text>
			<text transform="matrix(1 0 0 1 150.4116 383.832)" class="st8 st9 st10">6</text>
			<text transform="matrix(1 0 0 1 168.0776 383.832)" class="st8 st9 st10">7</text>
			<text transform="matrix(1 0 0 1 242.2529 383.832)" class="st8 st9 st10">0</text>
			<text transform="matrix(1 0 0 1 259.5 383.832)" class="st8 st9 st10">1</text>
			<text transform="matrix(1 0 0 1 276.7471 383.832)" class="st8 st9 st10">2</text>
			<text transform="matrix(1 0 0 1 295.2549 383.832)" class="st8 st9 st10">3</text>
			<text transform="matrix(1 0 0 1 312.082 383.832)" class="st8 st9 st10">4</text>
			<text transform="matrix(1 0 0 1 330.1699 383.832)" class="st8 st9 st10">5</text>
			<text transform="matrix(1 0 0 1 347.8369 383.832)" class="st8 st9 st10">6</text>
			<text transform="matrix(1 0 0 1 365.5039 383.832)" class="st8 st9 st10">7</text>
		</g>
		<text transform="matrix(1 0 0 1 85.9722 345.1191)" class="st8 st9 st11">Chassis 2</text>
		<text transform="matrix(1 0 0 1 283.9971 345.1191)" class="st8 st9 st11">Chassis 3</text>
		<text transform="matrix(1 0 0 1 382.6279 390.1582)" class="st8 st9 st10">PDU</text>
		<text transform="matrix(1 0 0 1 389.4297 401.2676)" class="st8 st9 st10">1</text>
		<text transform="matrix(6.123234e-17 -1 1 6.123234e-17 50.9116 606.0146)" class="st8 st9 st10">Compute Blade</text>
		<text transform="matrix(6.123234e-17 -1 1 6.123234e-17 68.7407 606.0146)" class="st8 st9 st10">Compute Blade</text>
		<text transform="matrix(6.123234e-17 -1 1 6.123234e-17 86.2456 606.0146)" class="st8 st9 st10">Compute Blade</text>
		<text transform="matrix(6.123234e-17 -1 1 6.123234e-17 104.0747 606.0146)" class="st8 st9 st10">Compute Blade</text>
		<text transform="matrix(6.123234e-17 -1 1 6.123234e-17 121.5815 606.0146)" class="st8 st9 st10">Compute Blade</text>
		<text transform="matrix(6.123234e-17 -1 1 6.123234e-17 139.4097 606.0146)" class="st8 st9 st10">Compute Blade</text>
		<text transform="matrix(6.123234e-17 -1 1 6.123234e-17 156.9146 606.0146)" class="st8 st9 st10">Compute Blade</text>
		<text transform="matrix(6.123234e-17 -1 1 6.123234e-17 174.7446 606.0146)" class="st8 st9 st10">Compute Blade</text>
		<text transform="matrix(1 0 0 1 44.8267 529.0723)" class="st8 st9 st10">0</text>
		<text transform="matrix(1 0 0 1 62.0737 529.0723)" class="st8 st9 st10">1</text>
		<text transform="matrix(1 0 0 1 79.3208 529.0723)" class="st8 st9 st10">2</text>
		<text transform="matrix(1 0 0 1 97.8296 529.0723)" class="st8 st9 st10">3</text>
		<text transform="matrix(1 0 0 1 114.6558 529.0723)" class="st8 st9 st10">4</text>
		<text transform="matrix(1 0 0 1 132.7437 529.0723)" class="st8 st9 st10">5</text>
		<text transform="matrix(1 0 0 1 150.4116 529.0723)" class="st8 st9 st10">6</text>
		<text transform="matrix(1 0 0 1 168.0776 529.0723)" class="st8 st9 st10">7</text>
		<text transform="matrix(6.123234e-17 -1 1 6.123234e-17 248.3369 605.5576)" class="st8 st9 st10">Compute Blade</text>
		<text transform="matrix(6.123234e-17 -1 1 6.123234e-17 266.166 605.5576)" class="st8 st9 st10">Compute Blade</text>
		<text transform="matrix(6.123234e-17 -1 1 6.123234e-17 283.6709 605.5576)" class="st8 st9 st10">Compute Blade</text>
		<text transform="matrix(6.123234e-17 -1 1 6.123234e-17 301.501 605.5576)" class="st8 st9 st10">Compute Blade</text>
		<text transform="matrix(6.123234e-17 -1 1 6.123234e-17 319.0068 605.5576)" class="st8 st9 st10">Compute Blade</text>
		<text transform="matrix(6.123234e-17 -1 1 6.123234e-17 336.834 605.5576)" class="st8 st9 st10">Compute Blade</text>
		<text transform="matrix(6.123234e-17 -1 1 6.123234e-17 354.3418 605.5576)" class="st8 st9 st10">Compute Blade</text>
		<text transform="matrix(6.123234e-17 -1 1 6.123234e-17 372.1709 605.5576)" class="st8 st9 st10">Compute Blade</text>
		<text transform="matrix(1 0 0 1 259.5 529.0723)" class="st8 st9 st10">1</text>
		<text transform="matrix(1 0 0 1 242.2529 529.0723)" class="st8 st9 st10">0</text>
		<text transform="matrix(1 0 0 1 276.7471 529.0723)" class="st8 st9 st10">2</text>
		<text transform="matrix(1 0 0 1 295.2549 529.0723)" class="st8 st9 st10">3</text>
		<text transform="matrix(1 0 0 1 312.082 529.0723)" class="st8 st9 st10">4</text>
		<text transform="matrix(1 0 0 1 330.1699 529.0723)" class="st8 st9 st10">5</text>
		<text transform="matrix(1 0 0 1 347.8369 529.0723)" class="st8 st9 st10">6</text>
		<text transform="matrix(1 0 0 1 365.5039 529.0723)" class="st8 st9 st10">7</text>
		<text transform="matrix(1 0 0 1 84.6636 492.4727)" class="st8 st9 st11">Chassis 0</text>
		<text transform="matrix(1 0 0 1 283.6543 492.8193)" class="st8 st9 st11">Chassis 1</text>
		<text transform="matrix(1 0 0 1 382.6279 534.8643)" class="st8 st9 st10">PDU</text>
		<text transform="matrix(1 0 0 1 389.4297 545.9727)" class="st8 st9 st10">0</text>
		<text transform="matrix(1 0 0 1 190.8228 13.9102)" class="st8 st9 st12">Front</text>
		<g>
			<g>
				<rect x="180.8" y="104" class="st2" width="17.9" height="63.9"/>
				<rect x="198.9" y="104" class="st2" width="17.9" height="63.9"/>
				<rect x="217.2" y="104" class="st2" width="17.9" height="63.9"/>
				<rect x="180" y="29.2" class="st7" width="55.8" height="139.2"/>
				<text transform="matrix(1 0 0 1 187.8003 112.8945)" class="st8 st9 st10">0</text>
				<text transform="matrix(1 0 0 1 205.8618 112.8945)" class="st8 st9 st10">1</text>
				<text transform="matrix(1 0 0 1 224.1509 112.8945)" class="st8 st9 st10">2</text>
				<rect x="180.6" y="93" class="st0" width="54.5" height="10.8"/>
				<g>
					<rect x="182.8" y="114.7" class="st4" width="51" height="40.1"/>
					<text transform="matrix(1 0 0 1 187.1958 121.0195)" class="st8 st9 st13">P</text>
					<text transform="matrix(1 0 0 1 190.9175 121.0195)" class="st8 st9 st13">h</text>
					<text transform="matrix(1 0 0 1 194.7622 121.0195)" class="st8 st9 st13">ysical PSUs</text>
					<text transform="matrix(1 0 0 1 188.8999 151.7217)" class="st8 st9 st13">Logical PSUs</text>
				</g>
				<g>
					<g>
						<rect x="180.8" y="29.8" class="st3" width="17.9" height="63.3"/>
						<rect x="198.9" y="29.8" class="st3" width="17.9" height="63.3"/>
						<rect x="217.2" y="29.8" class="st3" width="17.9" height="63.3"/>
					</g>
					<g>
						<text transform="matrix(1 0 0 1 187.8003 39.0811)" class="st8 st9 st10">3</text>
						<text transform="matrix(1 0 0 1 205.8618 39.0811)" class="st8 st9 st10">4</text>
						<text transform="matrix(1 0 0 1 224.1509 39.0811)" class="st8 st9 st10">5</text>
					</g>
					<g>
						<rect x="182.8" y="42.5" class="st0" width="51" height="40.9"/>
						<g>
							<text transform="matrix(1 0 0 1 187.8003 89.8145)" class="st8 st9 st10">0</text>
							<text transform="matrix(1 0 0 1 205.8618 89.8145)" class="st8 st9 st10">1</text>
							<text transform="matrix(1 0 0 1 224.1509 89.8145)" class="st8 st9 st10">2</text>
						</g>
						<text transform="matrix(1 0 0 1 187.1958 48.918)" class="st8 st9 st13">P</text>
						<text transform="matrix(1 0 0 1 190.9175 48.918)" class="st8 st9 st13">h</text>
						<text transform="matrix(1 0 0 1 194.7622 48.918)" class="st8 st9 st13">ysical PSUs</text>
						<text transform="matrix(1 0 0 1 188.8999 80.4893)" class="st8 st9 st13">Logical PSUs</text>
					</g>
				</g>
				<g>
					<text transform="matrix(1 0 0 1 187.8003 164.5029)" class="st8 st9 st10">0</text>
					<text transform="matrix(1 0 0 1 205.8618 164.5029)" class="st8 st9 st10">1</text>
					<text transform="matrix(1 0 0 1 224.1509 164.5029)" class="st8 st9 st10">2</text>
				</g>
			</g>
			<text transform="matrix(1 0 0 1 183.478 101.6143)" class="st8 st9 st14">R</text>
			<text transform="matrix(1 0 0 1 188.9712 101.6143)" class="st8 st9 st14">ect Shelf 3</text>
		</g>
		<g>
			<rect x="180.8" y="248.4" class="st2" width="17.9" height="63.9"/>
			<rect x="198.9" y="248.4" class="st2" width="17.9" height="63.9"/>
			<rect x="217.2" y="248.4" class="st2" width="17.9" height="63.9"/>
			<rect x="180" y="173.6" class="st7" width="55.8" height="139.2"/>
			<text transform="matrix(1 0 0 1 187.8003 257.3311)" class="st8 st9 st10">0</text>
			<text transform="matrix(1 0 0 1 205.8618 257.3311)" class="st8 st9 st10">1</text>
			<text transform="matrix(1 0 0 1 224.1509 257.3311)" class="st8 st9 st10">2</text>
			<rect x="180.6" y="237.4" class="st0" width="54.5" height="10.8"/>
			<g>
				<rect x="182.8" y="259.2" class="st4" width="51" height="40.1"/>
				<text transform="matrix(1 0 0 1 187.1958 265.4551)" class="st8 st9 st13">P</text>
				<text transform="matrix(1 0 0 1 190.9175 265.4551)" class="st8 st9 st13">h</text>
				<text transform="matrix(1 0 0 1 194.7622 265.4551)" class="st8 st9 st13">ysical PSUs</text>
				<text transform="matrix(1 0 0 1 188.8999 296.1572)" class="st8 st9 st13">Logical PSUs</text>
			</g>
			<g>
				<g>
					<rect x="180.8" y="174.2" class="st3" width="17.9" height="63.3"/>
					<rect x="198.9" y="174.2" class="st3" width="17.9" height="63.3"/>
					<rect x="217.2" y="174.2" class="st3" width="17.9" height="63.3"/>
				</g>
				<g>
					<text transform="matrix(1 0 0 1 187.8003 183.5176)" class="st8 st9 st10">3</text>
					<text transform="matrix(1 0 0 1 205.8618 183.5176)" class="st8 st9 st10">4</text>
					<text transform="matrix(1 0 0 1 224.1509 183.5176)" class="st8 st9 st10">5</text>
				</g>
				<g>
					<rect x="182.8" y="186.9" class="st0" width="51" height="40.9"/>
					<g>
						<text transform="matrix(1 0 0 1 187.8003 234.25)" class="st8 st9 st10">0</text>
						<text transform="matrix(1 0 0 1 205.8618 234.25)" class="st8 st9 st10">1</text>
						<text transform="matrix(1 0 0 1 224.1509 234.25)" class="st8 st9 st10">2</text>
					</g>
					<text transform="matrix(1 0 0 1 187.1958 193.3525)" class="st8 st9 st13">P</text>
					<text transform="matrix(1 0 0 1 190.9175 193.3525)" class="st8 st9 st13">h</text>
					<text transform="matrix(1 0 0 1 194.7622 193.3525)" class="st8 st9 st13">ysical PSUs</text>
					<text transform="matrix(1 0 0 1 188.8999 224.9238)" class="st8 st9 st13">Logical PSUs</text>
				</g>
			</g>
			<g>
				<text transform="matrix(1 0 0 1 187.8003 308.9385)" class="st8 st9 st10">0</text>
				<text transform="matrix(1 0 0 1 205.8618 308.9385)" class="st8 st9 st10">1</text>
				<text transform="matrix(1 0 0 1 224.1509 308.9385)" class="st8 st9 st10">2</text>
			</g>
		</g>
		<g>
			<rect x="180.8" y="398.6" class="st2" width="17.9" height="63.9"/>
			<rect x="198.9" y="398.6" class="st2" width="17.9" height="63.9"/>
			<rect x="217.2" y="398.6" class="st2" width="17.9" height="63.9"/>
			<rect x="180" y="323.8" class="st7" width="55.8" height="139.2"/>
			<text transform="matrix(1 0 0 1 187.8003 407.5195)" class="st8 st9 st10">0</text>
			<text transform="matrix(1 0 0 1 205.8618 407.5195)" class="st8 st9 st10">1</text>
			<text transform="matrix(1 0 0 1 224.1509 407.5195)" class="st8 st9 st10">2</text>
			<rect x="180.6" y="387.6" class="st0" width="54.5" height="10.8"/>
			<g>
				<rect x="182.8" y="409.3" class="st4" width="51" height="40.1"/>
				<text transform="matrix(1 0 0 1 187.1958 415.6436)" class="st8 st9 st13">P</text>
				<text transform="matrix(1 0 0 1 190.9175 415.6436)" class="st8 st9 st13">h</text>
				<text transform="matrix(1 0 0 1 194.7622 415.6436)" class="st8 st9 st13">ysical PSUs</text>
				<text transform="matrix(1 0 0 1 188.8999 446.3457)" class="st8 st9 st13">Logical PSUs</text>
			</g>
			<g>
				<g>
					<rect x="180.8" y="324.4" class="st3" width="17.9" height="63.3"/>
					<rect x="198.9" y="324.4" class="st3" width="17.9" height="63.3"/>
					<rect x="217.2" y="324.4" class="st3" width="17.9" height="63.3"/>
				</g>
				<g>
					<text transform="matrix(1 0 0 1 187.8003 333.7061)" class="st8 st9 st10">3</text>
					<text transform="matrix(1 0 0 1 205.8618 333.7061)" class="st8 st9 st10">4</text>
					<text transform="matrix(1 0 0 1 224.1509 333.7061)" class="st8 st9 st10">5</text>
				</g>
				<g>
					<rect x="182.8" y="337.1" class="st0" width="51" height="40.9"/>
					<g>
						<text transform="matrix(1 0 0 1 187.8003 384.4385)" class="st8 st9 st10">0</text>
						<text transform="matrix(1 0 0 1 205.8618 384.4385)" class="st8 st9 st10">1</text>
						<text transform="matrix(1 0 0 1 224.1509 384.4385)" class="st8 st9 st10">2</text>
					</g>
					<text transform="matrix(1 0 0 1 187.1958 343.541)" class="st8 st9 st13">P</text>
					<text transform="matrix(1 0 0 1 190.9175 343.541)" class="st8 st9 st13">h</text>
					<text transform="matrix(1 0 0 1 194.7622 343.541)" class="st8 st9 st13">ysical PSUs</text>
					<text transform="matrix(1 0 0 1 188.8999 375.1133)" class="st8 st9 st13">Logical PSUs</text>
				</g>
			</g>
			<g>
				<text transform="matrix(1 0 0 1 187.8003 459.125)" class="st8 st9 st10">0</text>
				<text transform="matrix(1 0 0 1 205.8618 459.125)" class="st8 st9 st10">1</text>
				<text transform="matrix(1 0 0 1 224.1509 459.125)" class="st8 st9 st10">2</text>
			</g>
		</g>
		<g>
			<rect x="180.8" y="545.2" class="st2" width="17.9" height="63.9"/>
			<rect x="198.9" y="545.2" class="st2" width="17.9" height="63.9"/>
			<rect x="217.2" y="545.2" class="st2" width="17.9" height="63.9"/>
			<rect x="180" y="470.4" class="st7" width="55.8" height="139.2"/>
			<text transform="matrix(1 0 0 1 187.8003 554.1006)" class="st8 st9 st10">0</text>
			<text transform="matrix(1 0 0 1 205.8618 554.1006)" class="st8 st9 st10">1</text>
			<text transform="matrix(1 0 0 1 224.1509 554.1006)" class="st8 st9 st10">2</text>
			<rect x="180.6" y="534.2" class="st0" width="54.5" height="10.8"/>
			<g>
				<rect x="182.8" y="555.9" class="st4" width="51" height="40.1"/>
				<text transform="matrix(1 0 0 1 187.1958 562.2256)" class="st8 st9 st13">P</text>
				<text transform="matrix(1 0 0 1 190.9175 562.2256)" class="st8 st9 st13">h</text>
				<text transform="matrix(1 0 0 1 194.7622 562.2256)" class="st8 st9 st13">ysical PSUs</text>
				<text transform="matrix(1 0 0 1 188.8999 592.9277)" class="st8 st9 st13">Logical PSUs</text>
			</g>
			<g>
				<g>
					<rect x="180.8" y="471" class="st3" width="17.9" height="63.3"/>
					<rect x="198.9" y="471" class="st3" width="17.9" height="63.3"/>
					<rect x="217.2" y="471" class="st3" width="17.9" height="63.3"/>
				</g>
				<g>
					<text transform="matrix(1 0 0 1 187.8003 480.2891)" class="st8 st9 st10">3</text>
					<text transform="matrix(1 0 0 1 205.8618 480.2891)" class="st8 st9 st10">4</text>
					<text transform="matrix(1 0 0 1 224.1509 480.2891)" class="st8 st9 st10">5</text>
				</g>
				<g>
					<rect x="182.8" y="483.7" class="st0" width="51" height="40.9"/>
					<g>
						<text transform="matrix(1 0 0 1 187.8003 531.0215)" class="st8 st9 st10">0</text>
						<text transform="matrix(1 0 0 1 205.8618 531.0215)" class="st8 st9 st10">1</text>
						<text transform="matrix(1 0 0 1 224.1509 531.0215)" class="st8 st9 st10">2</text>
					</g>
					<text transform="matrix(1 0 0 1 187.1958 490.124)" class="st8 st9 st13">P</text>
					<text transform="matrix(1 0 0 1 190.9175 490.124)" class="st8 st9 st13">h</text>
					<text transform="matrix(1 0 0 1 194.7622 490.124)" class="st8 st9 st13">ysical PSUs</text>
					<text transform="matrix(1 0 0 1 188.8999 521.6963)" class="st8 st9 st13">Logical PSUs</text>
				</g>
			</g>
			<g>
				<text transform="matrix(1 0 0 1 187.8003 605.71)" class="st8 st9 st10">0</text>
				<text transform="matrix(1 0 0 1 205.8618 605.71)" class="st8 st9 st10">1</text>
				<text transform="matrix(1 0 0 1 224.1509 605.71)" class="st8 st9 st10">2</text>
			</g>
		</g>
		<text transform="matrix(1 0 0 1 182.4204 245.8271)" class="st8 st9 st14">R</text>
		<text transform="matrix(1 0 0 1 187.9136 245.8271)" class="st8 st9 st14">ect Shelf 2</text>
		<text transform="matrix(1 0 0 1 183.478 395.4209)" class="st8 st9 st14">R</text>
		<text transform="matrix(1 0 0 1 188.9712 395.4209)" class="st8 st9 st14">ect Shelf 1</text>
		<text transform="matrix(1 0 0 1 183.478 542.5986)" class="st8 st9 st14">R</text>
		<text transform="matrix(1 0 0 1 188.9712 542.5986)" class="st8 st9 st14">ect Shelf 0</text>
	</g>
</g>
</svg>
