<svg id="Layer_1" data-name="Layer 1" xmlns="http://www.w3.org/2000/svg" width="7in" height="2.42in" viewBox="0 0 504 174.241"><title>PSU_Status</title><rect x="60.331" y="40.881" width="47.697" height="88.383" fill="#515254"/><rect x="62.716" y="44.4" width="42.928" height="81.345" fill="none" stroke="#fff" stroke-miterlimit="10"/><circle cx="76.141" cy="62.647" r="4.085" fill="#88c540" stroke="#231f20" stroke-linecap="round" stroke-linejoin="bevel" stroke-width="0.25"/><rect x="85.085" y="60.776" width="1.783" height="1.081" fill="#fff"/><rect x="91.548" y="60.776" width="1.783" height="1.081" fill="#fff"/><rect x="87.932" y="60.776" width="2.581" height="1.081" fill="#fff"/><rect x="85.009" y="63.323" width="8.398" height="1.284" fill="#fff"/><circle cx="76.141" cy="86.786" r="4.085" fill="#ee2924" stroke="#231f20" stroke-linecap="round" stroke-linejoin="bevel" stroke-width="0.25"/><rect x="88.389" y="85.043" width="1.483" height="4.943" fill="#fff"/><rect x="88.389" y="82.458" width="1.483" height="1.293" fill="#fff"/><circle cx="76.141" cy="110.564" r="4.085" fill="#88c540" stroke="#231f20" stroke-linecap="round" stroke-linejoin="bevel" stroke-width="0.25"/><path d="M91.592,113.365a3.348,3.348,0,0,1-2.452-1.447c-.281-.313-.63-.7-.827-.713a4.674,4.674,0,0,0-2.11,1.426.7.7,0,1,1-1.032-.956c.3-.327,1.888-1.967,3.224-1.875a2.8,2.8,0,0,1,1.792,1.177c.532.593.918.981,1.405.981a2.118,2.118,0,0,0,1.683-.928.7.7,0,1,1,1.207.724A3.527,3.527,0,0,1,91.592,113.365Z" fill="#fff"/><text transform="translate(110.99 56.98)" font-size="9" fill="#3b3b3c" font-family="Verdana">DC OK<tspan x="0" y="10.8">Green/</tspan><tspan x="31.324" y="10.8" letter-spacing="-0.063em">Y</tspan><tspan x="36.29" y="10.8">ellow</tspan></text><text transform="translate(110.989 90.186)" font-size="9" fill="#3b3b3c" font-family="Verdana"><tspan letter-spacing="-0.049em">F</tspan><tspan x="4.733" y="0">ault </tspan><tspan x="25.014" y="0" letter-spacing="-0.024em">R</tspan><tspan x="31.052" y="0">ed</tspan></text><text transform="translate(110.989 111.565)" font-size="9" fill="#3b3b3c" font-family="Verdana">AC OK<tspan x="0" y="10.8">Green/</tspan><tspan x="31.324" y="10.8" letter-spacing="-0.063em">Y</tspan><tspan x="36.29" y="10.8">ellow</tspan></text><path d="M321.394,21.385h-1.743l-.456-1.323h-2.421l-.456,1.323h-1.7l2.417-6.544h1.942Zm-2.6-2.523-.805-2.344-.805,2.344Z" fill="#3b3b3c"/><path d="M325.292,21.512a4.089,4.089,0,0,1-1.348-.215,2.8,2.8,0,0,1-1.748-1.705,4.118,4.118,0,0,1-.244-1.472,4.067,4.067,0,0,1,.233-1.411,3,3,0,0,1,.677-1.085,2.867,2.867,0,0,1,1.056-.673,3.89,3.89,0,0,1,1.378-.237,5.584,5.584,0,0,1,.745.046,5.157,5.157,0,0,1,.613.121,4.513,4.513,0,0,1,.533.186c.161.07.3.133.42.192v1.586h-.193c-.082-.07-.186-.153-.31-.249a4.141,4.141,0,0,0-.423-.284,2.972,2.972,0,0,0-.524-.236,1.847,1.847,0,0,0-.6-.1,2.054,2.054,0,0,0-.677.111,1.665,1.665,0,0,0-.594.371,1.825,1.825,0,0,0-.42.662,2.784,2.784,0,0,0-.16,1,2.644,2.644,0,0,0,.174,1.026,1.779,1.779,0,0,0,.437.649,1.6,1.6,0,0,0,.6.345,2.192,2.192,0,0,0,.65.1,2.087,2.087,0,0,0,.609-.092,2.362,2.362,0,0,0,.555-.249,3.606,3.606,0,0,0,.4-.272c.123-.1.223-.179.3-.249h.175V20.95q-.246.11-.469.206a3.85,3.85,0,0,1-.471.167,5.47,5.47,0,0,1-.6.141A4.835,4.835,0,0,1,325.292,21.512Z" fill="#3b3b3c"/><path d="M338.286,18.115a3.415,3.415,0,0,1-.9,2.486,3.793,3.793,0,0,1-4.953,0,3.415,3.415,0,0,1-.9-2.486,3.417,3.417,0,0,1,.9-2.494,3.8,3.8,0,0,1,4.949,0A3.406,3.406,0,0,1,338.286,18.115Zm-2.236,1.657a1.949,1.949,0,0,0,.364-.706,3.422,3.422,0,0,0,.119-.955,3.213,3.213,0,0,0-.137-1,1.942,1.942,0,0,0-.355-.668,1.334,1.334,0,0,0-.517-.382,1.637,1.637,0,0,0-1.213-.005,1.406,1.406,0,0,0-.52.378,1.853,1.853,0,0,0-.359.679,3.311,3.311,0,0,0-.138,1,3.236,3.236,0,0,0,.134,1,1.968,1.968,0,0,0,.354.671,1.348,1.348,0,0,0,.514.382,1.591,1.591,0,0,0,.62.123,1.57,1.57,0,0,0,.619-.125A1.368,1.368,0,0,0,336.05,19.772Z" fill="#3b3b3c"/><path d="M345.682,21.385h-2.074l-1.955-2.619-.391.484v2.135h-1.688V14.841h1.688v2.965l2.337-2.965h1.956L343,17.869Z" fill="#3b3b3c"/><path d="M366.559,16.107h-3.01v1.217h2.791V18.59h-2.791v2.8H361.87V14.841h4.689Z" fill="#3b3b3c"/><path d="M370.624,20.862c-.085.064-.191.142-.317.233a1.992,1.992,0,0,1-.838.371,2.766,2.766,0,0,1-.55.051,1.677,1.677,0,0,1-1.178-.435,1.443,1.443,0,0,1-.475-1.112,1.5,1.5,0,0,1,.243-.884,1.623,1.623,0,0,1,.685-.54,3.845,3.845,0,0,1,1.09-.281q.651-.084,1.349-.123v-.027a.569.569,0,0,0-.334-.564,2.418,2.418,0,0,0-.985-.156,2.791,2.791,0,0,0-.835.138c-.3.092-.507.163-.636.213H367.7V16.555c.167-.044.439-.095.816-.156a7.166,7.166,0,0,1,1.131-.09,3.5,3.5,0,0,1,1.949.416,1.472,1.472,0,0,1,.6,1.3v3.358h-1.569Zm0-.768V19.069q-.321.025-.694.072a3.369,3.369,0,0,0-.567.108.788.788,0,0,0-.363.216.55.55,0,0,0-.125.375.994.994,0,0,0,.026.249.382.382,0,0,0,.132.185.655.655,0,0,0,.242.129,1.686,1.686,0,0,0,.44.041,1.3,1.3,0,0,0,.48-.1A1.5,1.5,0,0,0,370.624,20.094Z" fill="#3b3b3c"/><path d="M378.565,21.385h-1.587V20.84a4.7,4.7,0,0,1-.8.508,2.02,2.02,0,0,1-.869.173,1.643,1.643,0,0,1-1.258-.47,1.963,1.963,0,0,1-.441-1.389V16.45h1.586V18.9q0,.373.025.622a1.053,1.053,0,0,0,.112.41.508.508,0,0,0,.252.238,1.218,1.218,0,0,0,.473.074,1.584,1.584,0,0,0,.448-.074,1.954,1.954,0,0,0,.474-.22v-3.5h1.587Z" fill="#3b3b3c"/><path d="M381.645,21.385h-1.586V14.547h1.586Z" fill="#3b3b3c"/><path d="M386.291,21.341a4.514,4.514,0,0,1-.541.1,5.478,5.478,0,0,1-.7.038,2.115,2.115,0,0,1-1.373-.374,1.578,1.578,0,0,1-.452-1.279V17.522h-.65V16.45h.65V15.039h1.587V16.45h1.477v1.072h-1.477v1.752c0,.173,0,.324,0,.453a.934.934,0,0,0,.071.348.49.49,0,0,0,.216.244.922.922,0,0,0,.454.09,1.325,1.325,0,0,0,.322-.052,1.41,1.41,0,0,0,.278-.1h.132Z" fill="#3b3b3c"/><path d="M411.319,18.12a3.208,3.208,0,0,1-.417,1.637,3.045,3.045,0,0,1-1.054,1.109,3.25,3.25,0,0,1-1.051.405,7.007,7.007,0,0,1-1.354.114h-2.306V14.841h2.373a6.161,6.161,0,0,1,1.38.135,3.181,3.181,0,0,1,.975.38,2.97,2.97,0,0,1,1.066,1.114A3.349,3.349,0,0,1,411.319,18.12Zm-1.744-.013A2.415,2.415,0,0,0,409.34,17a1.652,1.652,0,0,0-.745-.718,1.938,1.938,0,0,0-.53-.174,5.233,5.233,0,0,0-.815-.046h-.426v4.1h.426a5.058,5.058,0,0,0,.884-.055,1.919,1.919,0,0,0,.548-.2,1.62,1.62,0,0,0,.677-.706A2.469,2.469,0,0,0,409.575,18.107Z" fill="#3b3b3c"/><path d="M415.564,21.512a4.072,4.072,0,0,1-1.346-.215,2.789,2.789,0,0,1-1.749-1.705,4.117,4.117,0,0,1-.245-1.472,4.066,4.066,0,0,1,.234-1.411,3,3,0,0,1,.677-1.085,2.859,2.859,0,0,1,1.056-.673,3.887,3.887,0,0,1,1.378-.237,5.562,5.562,0,0,1,.745.046,5.2,5.2,0,0,1,.613.121,4.6,4.6,0,0,1,.534.186c.159.07.3.133.42.192v1.586h-.194q-.123-.105-.309-.249a4.179,4.179,0,0,0-.425-.284,2.952,2.952,0,0,0-.522-.236,1.859,1.859,0,0,0-.6-.1,2.058,2.058,0,0,0-.677.111,1.662,1.662,0,0,0-.593.371,1.81,1.81,0,0,0-.419.662,2.74,2.74,0,0,0-.161,1,2.644,2.644,0,0,0,.174,1.026,1.767,1.767,0,0,0,.437.649,1.6,1.6,0,0,0,.6.345,2.2,2.2,0,0,0,.651.1,2.087,2.087,0,0,0,.609-.092,2.37,2.37,0,0,0,.556-.249,3.673,3.673,0,0,0,.4-.272c.123-.1.225-.179.3-.249h.176V20.95c-.164.073-.322.142-.471.206a3.776,3.776,0,0,1-.47.167,5.523,5.523,0,0,1-.6.141A4.857,4.857,0,0,1,415.564,21.512Z" fill="#3b3b3c"/><path d="M428.559,18.115a3.41,3.41,0,0,1-.9,2.486,3.792,3.792,0,0,1-4.952,0,3.411,3.411,0,0,1-.9-2.486,3.413,3.413,0,0,1,.9-2.494,3.8,3.8,0,0,1,4.947,0A3.4,3.4,0,0,1,428.559,18.115Zm-2.237,1.657a1.95,1.95,0,0,0,.365-.706,3.42,3.42,0,0,0,.12-.955,3.213,3.213,0,0,0-.137-1,1.96,1.96,0,0,0-.356-.668,1.338,1.338,0,0,0-.516-.382,1.611,1.611,0,0,0-.609-.119,1.6,1.6,0,0,0-.6.114,1.409,1.409,0,0,0-.521.378,1.852,1.852,0,0,0-.358.679,3.278,3.278,0,0,0-.139,1,3.236,3.236,0,0,0,.134,1,1.968,1.968,0,0,0,.354.671,1.348,1.348,0,0,0,.514.382,1.6,1.6,0,0,0,.62.123,1.574,1.574,0,0,0,.619-.125A1.349,1.349,0,0,0,426.322,19.772Z" fill="#3b3b3c"/><path d="M435.956,21.385h-2.073l-1.956-2.619-.392.484v2.135h-1.687V14.841h1.687v2.965l2.338-2.965h1.956l-2.559,3.028Z" fill="#3b3b3c"/><text transform="translate(194.21 37.129)" font-size="9" fill="#3b3b3c" font-family="Verdana">OK<tspan x="13.32" y="0" letter-spacing="12em">	</tspan><tspan x="124.488" y="0">1</tspan><tspan x="130.209" y="0" letter-spacing="3.745em">	</tspan><tspan x="167.075" y="0">0</tspan><tspan x="172.796" y="0" letter-spacing="3.817em">	</tspan><tspan x="210.318" y="0">1</tspan><tspan x="0" y="12">O</tspan><tspan x="7.084" y="12" letter-spacing="-0.009em">v</tspan><tspan x="12.331" y="12">ertemp</tspan><tspan x="44.802" y="12" letter-spacing="8.502em">	</tspan><tspan x="124.488" y="12">1</tspan><tspan x="130.209" y="12" letter-spacing="3.745em">	</tspan><tspan x="167.075" y="12">Blink</tspan><tspan x="189.206" y="12" letter-spacing="1.994em">	</tspan><tspan x="210.318" y="12">1</tspan><tspan x="0" y="24">Thermal Shutdown</tspan><tspan x="85.456" y="24" letter-spacing="3.985em">	</tspan><tspan x="124.488" y="24">1</tspan><tspan x="130.209" y="24" letter-spacing="3.745em">	</tspan><tspan x="167.075" y="24">1</tspan><tspan x="172.796" y="24" letter-spacing="3.818em">	</tspan><tspan x="210.318" y="24">0</tspan><tspan x="0" y="36">AC out of limits</tspan><tspan x="69.658" y="36" letter-spacing="5.741em">	</tspan><tspan x="124.488" y="36">Blink</tspan><tspan x="146.619" y="36" letter-spacing="1.921em">	</tspan><tspan x="167.075" y="36">0</tspan><tspan x="172.796" y="36" letter-spacing="3.817em">	</tspan><tspan x="210.318" y="36">0</tspan><tspan x="0" y="48">AC lost</tspan><tspan x="31.768" y="48" letter-spacing="9.951em">	</tspan><tspan x="124.488" y="48" letter-spacing="-0.063em">Y</tspan><tspan x="129.454" y="48">ellow</tspan><tspan x="152.582" y="48" letter-spacing="1.259em">	</tspan><tspan x="167.075" y="48">0</tspan><tspan x="172.796" y="48" letter-spacing="3.817em">	</tspan><tspan x="210.318" y="48">0</tspan><tspan x="0" y="60">Boost </tspan><tspan x="28.494" y="60" letter-spacing="-0.049em">F</tspan><tspan x="33.227" y="60">ail</tspan><tspan x="43.572" y="60" letter-spacing="8.639em">	</tspan><tspan x="124.488" y="60">1</tspan><tspan x="130.209" y="60" letter-spacing="3.745em">	</tspan><tspan x="167.075" y="60">1</tspan><tspan x="172.796" y="60" letter-spacing="3.817em">	</tspan><tspan x="210.318" y="60">0</tspan><tspan x="0" y="72">O</tspan><tspan x="7.084" y="72" letter-spacing="-0.009em">v</tspan><tspan x="12.331" y="72">er </tspan><tspan x="24.697" y="72" letter-spacing="-0.009em">v</tspan><tspan x="29.944" y="72">oltage</tspan><tspan x="57.797" y="72" letter-spacing="7.059em">	</tspan><tspan x="124.488" y="72">1</tspan><tspan x="130.209" y="72" letter-spacing="3.745em">	</tspan><tspan x="167.075" y="72">1</tspan><tspan x="172.796" y="72" letter-spacing="3.817em">	</tspan><tspan x="210.318" y="72">0</tspan><tspan x="0" y="84">O</tspan><tspan x="7.084" y="84" letter-spacing="-0.009em">v</tspan><tspan x="12.331" y="84">er Current</tspan><tspan x="58.961" y="84" letter-spacing="6.929em">	</tspan><tspan x="124.488" y="84">1</tspan><tspan x="130.209" y="84" letter-spacing="3.745em">	</tspan><tspan x="167.075" y="84">0 </tspan><tspan x="175.96" y="84" letter-spacing="3.466em">	</tspan><tspan x="210.318" y="84">Blink</tspan><tspan x="0" y="96">Non-catastrophic failure</tspan><tspan x="108.593" y="96" letter-spacing="1.414em">	</tspan><tspan x="124.488" y="96">1</tspan><tspan x="130.209" y="96" letter-spacing="3.745em">	</tspan><tspan x="167.075" y="96">1</tspan><tspan x="172.796" y="96" letter-spacing="3.817em">	</tspan><tspan x="210.318" y="96">1</tspan><tspan x="0" y="108">Standy</tspan><tspan x="31.733" y="108" letter-spacing="9.955em">	</tspan><tspan x="124.488" y="108">1</tspan><tspan x="130.209" y="108" letter-spacing="3.745em">	</tspan><tspan x="167.075" y="108">0</tspan><tspan x="172.796" y="108" letter-spacing="3.817em">	</tspan><tspan x="210.318" y="108">0</tspan><tspan x="0" y="120">Output Unbalence</tspan><tspan x="81.211" y="120" letter-spacing="4.457em">	</tspan><tspan x="124.488" y="120">1</tspan><tspan x="130.209" y="120" letter-spacing="3.745em">	</tspan><tspan x="167.075" y="120">0</tspan><tspan x="172.796" y="120" letter-spacing="3.817em">	</tspan><tspan x="210.318" y="120" letter-spacing="0em">Blink </tspan><tspan x="235.614" y="120" letter-spacing="-0.063em">Y</tspan><tspan x="240.58" y="120">ellow/Green</tspan></text><rect x="189.309" y="26.726" width="304.7" height="135.3" fill="none" stroke="#464547" stroke-miterlimit="10"/><rect x="311.118" y="10.226" width="182.891" height="151.8" fill="none" stroke="#464547" stroke-miterlimit="10"/></svg>