<svg id="Mountain_Cabinet_Rear" xmlns="http://www.w3.org/2000/svg" width="6.5in" height="8in" viewBox="0 0 468 576">
  <g>
    <rect x="58.999" y="18.686" width="378.036" height="550.086" fill="none" stroke="#435663" stroke-linecap="square" stroke-miterlimit="10" stroke-width="3"/>
    <g>
      <g>
        <rect x="107.003" y="23.478" width="151.698" height="132.908" fill="#fff" stroke="#454547" stroke-linecap="round" stroke-linejoin="bevel" stroke-width="0.985"/>
        <rect x="107.003" y="158.825" width="151.698" height="132.908" fill="#fff" stroke="#454547" stroke-linecap="round" stroke-linejoin="bevel" stroke-width="0.985"/>
        <rect x="107.003" y="294.171" width="151.698" height="132.908" fill="#fff" stroke="#454547" stroke-linecap="round" stroke-linejoin="bevel" stroke-width="0.985"/>
        <rect x="107.003" y="430.433" width="151.698" height="132.908" fill="#fff" stroke="#454547" stroke-linecap="round" stroke-linejoin="bevel" stroke-width="0.985"/>
      </g>
      <g>
        <rect x="272.152" y="23.478" width="151.698" height="132.908" fill="#fff" stroke="#454547" stroke-linecap="round" stroke-linejoin="bevel" stroke-width="0.985"/>
        <rect x="272.152" y="158.825" width="151.698" height="132.908" fill="#fff" stroke="#454547" stroke-linecap="round" stroke-linejoin="bevel" stroke-width="0.985"/>
        <rect x="272.152" y="294.171" width="151.698" height="132.908" fill="#fff" stroke="#454547" stroke-linecap="round" stroke-linejoin="bevel" stroke-width="0.985"/>
        <rect x="272.152" y="430.433" width="151.698" height="132.908" fill="#fff" stroke="#454547" stroke-linecap="round" stroke-linejoin="bevel" stroke-width="0.985"/>
      </g>
      <text transform="translate(233.887 12.858)" font-size="11" fill="#141414" font-family="Verdana"><tspan letter-spacing="-0.024em">R</tspan><tspan x="7.38" y="0">ear</tspan></text>
      <g>
        <rect x="177.738" y="-22.473" width="9.983" height="130.738" transform="translate(139.834 225.625) rotate(-90)" fill="#fff" stroke="#1f1f1f" stroke-miterlimit="10" stroke-width="0.75"/>
        <text transform="translate(134.515 45.554)" font-size="8.678" fill="#141414" font-family="Verdana"><tspan letter-spacing="-0.01em">S</tspan><tspan x="5.848" y="0" letter-spacing="0em">witch/</tspan><tspan x="32.702" y="0" letter-spacing="-0.024em">P</tspan><tspan x="37.723" y="0">eriph Blade 7</tspan></text>
        <rect x="177.738" y="-11.23" width="9.983" height="130.738" transform="translate(128.591 236.868) rotate(-90)" fill="#fff" stroke="#1f1f1f" stroke-miterlimit="10" stroke-width="0.75"/>
        <text transform="translate(134.515 57.093)" font-size="8.678" fill="#141414" font-family="Verdana"><tspan letter-spacing="-0.01em">S</tspan><tspan x="5.848" y="0" letter-spacing="0em">witch/</tspan><tspan x="32.702" y="0" letter-spacing="-0.024em">P</tspan><tspan x="37.723" y="0">eriph Blade 6</tspan></text>
        <rect x="177.859" y="0.073" width="9.74" height="130.738" transform="translate(117.287 248.171) rotate(-90)" fill="#fff" stroke="#1f1f1f" stroke-miterlimit="10" stroke-width="0.75"/>
        <text transform="translate(134.515 68.632)" font-size="8.678" fill="#141414" font-family="Verdana"><tspan letter-spacing="-0.01em">S</tspan><tspan x="5.848" y="0" letter-spacing="0em">witch/</tspan><tspan x="32.702" y="0" letter-spacing="-0.024em">P</tspan><tspan x="37.723" y="0">eriph Blade 5</tspan></text>
        <rect x="177.738" y="11.877" width="9.983" height="130.738" transform="translate(105.484 259.975) rotate(-90)" fill="#fff" stroke="#1f1f1f" stroke-miterlimit="10" stroke-width="0.75"/>
        <text transform="translate(134.515 80.171)" font-size="8.678" fill="#141414" font-family="Verdana"><tspan letter-spacing="-0.01em">S</tspan><tspan x="5.848" y="0" letter-spacing="0em">witch/</tspan><tspan x="32.702" y="0" letter-spacing="-0.024em">P</tspan><tspan x="37.723" y="0">eriph Blade 4</tspan></text>
        <rect x="177.738" y="47.111" width="9.983" height="130.738" transform="translate(70.25 295.209) rotate(-90)" fill="#fff" stroke="#1f1f1f" stroke-miterlimit="10" stroke-width="0.75"/>
        <text transform="translate(134.515 115.143)" font-size="8.678" fill="#141414" font-family="Verdana"><tspan letter-spacing="-0.01em">S</tspan><tspan x="5.848" y="0" letter-spacing="0em">witch/</tspan><tspan x="32.702" y="0" letter-spacing="-0.024em">P</tspan><tspan x="37.723" y="0">eriph Blade 3</tspan></text>
        <rect x="177.738" y="58.588" width="9.983" height="130.738" transform="translate(58.773 306.686) rotate(-90)" fill="#fff" stroke="#1f1f1f" stroke-miterlimit="10" stroke-width="0.75"/>
        <text transform="translate(134.515 126.942)" font-size="8.678" fill="#141414" font-family="Verdana"><tspan letter-spacing="-0.01em">S</tspan><tspan x="5.848" y="0" letter-spacing="0em">witch/</tspan><tspan x="32.702" y="0" letter-spacing="-0.024em">P</tspan><tspan x="37.723" y="0">eriph Blade 2</tspan></text>
        <rect x="177.405" y="70.541" width="10.649" height="130.738" transform="translate(46.819 318.639) rotate(-90)" fill="#fff" stroke="#1f1f1f" stroke-miterlimit="10" stroke-width="0.75"/>
        <text transform="translate(134.515 138.338)" font-size="8.678" fill="#141414" font-family="Verdana"><tspan letter-spacing="-0.01em">S</tspan><tspan x="5.848" y="0" letter-spacing="0em">witch/</tspan><tspan x="32.702" y="0" letter-spacing="-0.024em">P</tspan><tspan x="37.723" y="0">eriph Blade 1</tspan></text>
        <rect x="177.405" y="82.427" width="10.649" height="130.738" transform="translate(34.934 330.525) rotate(-90)" fill="#fff" stroke="#1f1f1f" stroke-miterlimit="10" stroke-width="0.75"/>
        <text transform="translate(134.515 150.536)" font-size="8.678" fill="#141414" font-family="Verdana"><tspan letter-spacing="-0.01em">S</tspan><tspan x="5.848" y="0" letter-spacing="0em">witch/</tspan><tspan x="32.702" y="0" letter-spacing="-0.024em">P</tspan><tspan x="37.723" y="0">eriph Blade 0</tspan></text>
        <g>
          <rect x="177.445" y="158.665" width="10.569" height="130.738" transform="translate(-41.304 406.763) rotate(-90)" fill="#fff" stroke="#454547" stroke-linecap="round" stroke-linejoin="bevel" stroke-width="0.246"/>
          <text transform="translate(173.061 226.121)" font-size="6.942" fill="#141414" font-family="Verdana">Blank</text>
        </g>
        <rect x="177.445" y="35.791" width="10.569" height="130.738" transform="translate(81.57 283.889) rotate(-90)" fill="#fff" stroke="#1f1f1f" stroke-miterlimit="10" stroke-width="0.75"/>
        <text transform="translate(168.505 103.258)" font-size="8.438" fill="#141414" font-family="Verdana">CMM 7</text>
      </g>
      <g>
        <rect x="343.878" y="-21.676" width="9.983" height="129.142" transform="translate(305.974 391.765) rotate(-90)" fill="#fffbde" stroke="#454547" stroke-linecap="round" stroke-linejoin="bevel" stroke-width="0.5"/>
        <text transform="translate(300.801 45.554)" font-size="8.678" fill="#141414" font-family="Verdana"><tspan letter-spacing="-0.01em">S</tspan><tspan x="5.848" y="0" letter-spacing="0em">witch/</tspan><tspan x="32.702" y="0" letter-spacing="-0.024em">P</tspan><tspan x="37.723" y="0">eriph Blade 7</tspan></text>
        <rect x="343.878" y="-10.433" width="9.983" height="129.142" transform="translate(294.731 403.008) rotate(-90)" fill="#fffbde" stroke="#454547" stroke-linecap="round" stroke-linejoin="bevel" stroke-width="0.5"/>
        <text transform="translate(300.801 57.093)" font-size="8.678" fill="#141414" font-family="Verdana"><tspan letter-spacing="-0.01em">S</tspan><tspan x="5.848" y="0" letter-spacing="0em">witch/</tspan><tspan x="32.702" y="0" letter-spacing="-0.024em">P</tspan><tspan x="37.723" y="0">eriph Blade 6</tspan></text>
        <rect x="343.999" y="0.871" width="9.74" height="129.142" transform="translate(283.428 414.311) rotate(-90)" fill="#fffbde" stroke="#454547" stroke-linecap="round" stroke-linejoin="bevel" stroke-width="0.5"/>
        <text transform="translate(300.801 68.632)" font-size="8.678" fill="#141414" font-family="Verdana"><tspan letter-spacing="-0.01em">S</tspan><tspan x="5.848" y="0" letter-spacing="0em">witch/</tspan><tspan x="32.702" y="0" letter-spacing="-0.024em">P</tspan><tspan x="37.723" y="0">eriph Blade 5</tspan></text>
        <rect x="343.878" y="12.675" width="9.983" height="129.142" transform="translate(271.624 426.115) rotate(-90)" fill="#fffbde" stroke="#454547" stroke-linecap="round" stroke-linejoin="bevel" stroke-width="0.5"/>
        <text transform="translate(300.801 80.171)" font-size="8.678" fill="#141414" font-family="Verdana"><tspan letter-spacing="-0.01em">S</tspan><tspan x="5.848" y="0" letter-spacing="0em">witch/</tspan><tspan x="32.702" y="0" letter-spacing="-0.024em">P</tspan><tspan x="37.723" y="0">eriph Blade 4</tspan></text>
        <rect x="343.878" y="47.909" width="9.983" height="129.142" transform="translate(236.39 461.349) rotate(-90)" fill="#fffbde" stroke="#454547" stroke-linecap="round" stroke-linejoin="bevel" stroke-width="0.5"/>
        <text transform="translate(300.801 115.143)" font-size="8.678" fill="#141414" font-family="Verdana"><tspan letter-spacing="-0.01em">S</tspan><tspan x="5.848" y="0" letter-spacing="0em">witch/</tspan><tspan x="32.702" y="0" letter-spacing="-0.024em">P</tspan><tspan x="37.723" y="0">eriph Blade 3</tspan></text>
        <rect x="343.878" y="59.386" width="9.983" height="129.142" transform="translate(224.913 472.826) rotate(-90)" fill="#fffbde" stroke="#454547" stroke-linecap="round" stroke-linejoin="bevel" stroke-width="0.5"/>
        <text transform="translate(300.801 126.942)" font-size="8.678" fill="#141414" font-family="Verdana"><tspan letter-spacing="-0.01em">S</tspan><tspan x="5.848" y="0" letter-spacing="0em">witch/</tspan><tspan x="32.702" y="0" letter-spacing="-0.024em">P</tspan><tspan x="37.723" y="0">eriph Blade 2</tspan></text>
        <rect x="343.545" y="71.339" width="10.649" height="129.142" transform="translate(212.96 484.78) rotate(-90)" fill="#fffbde" stroke="#454547" stroke-linecap="round" stroke-linejoin="bevel" stroke-width="0.5"/>
        <text transform="translate(300.801 138.338)" font-size="8.678" fill="#141414" font-family="Verdana"><tspan letter-spacing="-0.01em">S</tspan><tspan x="5.848" y="0" letter-spacing="0em">witch/</tspan><tspan x="32.702" y="0" letter-spacing="-0.024em">P</tspan><tspan x="37.723" y="0">eriph Blade 1</tspan></text>
        <rect x="343.545" y="83.225" width="10.649" height="129.142" transform="translate(201.074 496.665) rotate(-90)" fill="#fffbde" stroke="#454547" stroke-linecap="round" stroke-linejoin="bevel" stroke-width="0.5"/>
        <text transform="translate(300.801 150.536)" font-size="8.678" fill="#141414" font-family="Verdana"><tspan letter-spacing="-0.01em">S</tspan><tspan x="5.848" y="0" letter-spacing="0em">witch/</tspan><tspan x="32.702" y="0" letter-spacing="-0.024em">P</tspan><tspan x="37.723" y="0">eriph Blade 0</tspan></text>
        <g>
          <rect x="343.585" y="159.462" width="10.569" height="129.142" transform="translate(124.836 572.903) rotate(-90)" fill="#fff" stroke="#454547" stroke-linecap="round" stroke-linejoin="bevel" stroke-width="0.246"/>
          <text transform="translate(340 226.121)" font-size="6.942" fill="#141414" font-family="Verdana">Blank</text>
        </g>
        <rect x="343.585" y="36.588" width="10.569" height="129.142" transform="translate(247.71 450.029) rotate(-90)" fill="#fffbde" stroke="#454547" stroke-linecap="round" stroke-linejoin="bevel" stroke-width="0.5"/>
        <text transform="translate(335.444 103.258)" font-size="8.438" fill="#141414" font-family="Verdana">CMM 6</text>
      </g>
      <g>
        <rect x="172.013" y="23.899" width="52.801" height="11.461" fill="none"/>
        <text transform="translate(162.204 34.072)" font-size="9.107" fill="#141414" font-family="Verdana">Chassis 7</text>
      </g>
      <g>
        <rect x="313.557" y="23.899" width="52.801" height="11.461" fill="none"/>
        <text transform="translate(329.481 34.072)" font-size="9.107" fill="#141414" font-family="Verdana">Chassis 6</text>
      </g>
      <g>
        <rect x="172.013" y="159.246" width="52.801" height="11.461" fill="none"/>
        <text transform="translate(162.204 169.417)" font-size="9.107" fill="#141414" font-family="Verdana">Chassis 5</text>
      </g>
      <g>
        <rect x="313.557" y="159.246" width="52.801" height="11.461" fill="none"/>
        <text transform="translate(329.481 169.417)" font-size="9.107" fill="#141414" font-family="Verdana">Chassis 4</text>
      </g>
      <g>
        <rect x="172.013" y="294.593" width="52.801" height="11.461" fill="none"/>
        <text transform="translate(162.204 304.764)" font-size="9.107" fill="#141414" font-family="Verdana">Chassis 3</text>
      </g>
      <g>
        <rect x="313.557" y="294.593" width="52.801" height="11.461" fill="none"/>
        <text transform="translate(329.481 304.764)" font-size="9.107" fill="#141414" font-family="Verdana">Chassis 2</text>
      </g>
      <g>
        <rect x="172.013" y="430.854" width="52.801" height="11.461" fill="none"/>
        <text transform="translate(162.204 441.025)" font-size="9.107" fill="#141414" font-family="Verdana">Chassis 1</text>
      </g>
      <g>
        <rect x="313.557" y="430.854" width="52.801" height="11.461" fill="none"/>
        <text transform="translate(329.481 441.025)" font-size="9.107" fill="#141414" font-family="Verdana">Chassis 0</text>
      </g>
      <g>
        <rect x="177.738" y="112.772" width="9.983" height="130.738" transform="translate(4.588 360.871) rotate(-90)" fill="#fff" stroke="#1f1f1f" stroke-miterlimit="10" stroke-width="0.75"/>
        <text transform="translate(134.515 180.799)" font-size="8.678" fill="#141414" font-family="Verdana"><tspan letter-spacing="-0.01em">S</tspan><tspan x="5.848" y="0" letter-spacing="0em">witch/</tspan><tspan x="32.702" y="0" letter-spacing="-0.024em">P</tspan><tspan x="37.723" y="0">eriph Blade 7</tspan></text>
        <rect x="177.738" y="124.016" width="9.983" height="130.738" transform="translate(-6.655 372.114) rotate(-90)" fill="#fff" stroke="#1f1f1f" stroke-miterlimit="10" stroke-width="0.75"/>
        <text transform="translate(134.515 192.339)" font-size="8.678" fill="#141414" font-family="Verdana"><tspan letter-spacing="-0.01em">S</tspan><tspan x="5.848" y="0" letter-spacing="0em">witch/</tspan><tspan x="32.702" y="0" letter-spacing="-0.024em">P</tspan><tspan x="37.723" y="0">eriph Blade 6</tspan></text>
        <rect x="177.859" y="135.319" width="9.74" height="130.738" transform="translate(-17.958 383.417) rotate(-90)" fill="#fff" stroke="#1f1f1f" stroke-miterlimit="10" stroke-width="0.75"/>
        <text transform="translate(134.515 203.878)" font-size="8.678" fill="#141414" font-family="Verdana"><tspan letter-spacing="-0.01em">S</tspan><tspan x="5.848" y="0" letter-spacing="0em">witch/</tspan><tspan x="32.702" y="0" letter-spacing="-0.024em">P</tspan><tspan x="37.723" y="0">eriph Blade 5</tspan></text>
        <rect x="177.738" y="147.123" width="9.983" height="130.738" transform="translate(-29.762 395.221) rotate(-90)" fill="#fff" stroke="#1f1f1f" stroke-miterlimit="10" stroke-width="0.75"/>
        <text transform="translate(134.515 215.415)" font-size="8.678" fill="#141414" font-family="Verdana"><tspan letter-spacing="-0.01em">S</tspan><tspan x="5.848" y="0" letter-spacing="0em">witch/</tspan><tspan x="32.702" y="0" letter-spacing="-0.024em">P</tspan><tspan x="37.723" y="0">eriph Blade 4</tspan></text>
        <rect x="177.738" y="182.357" width="9.983" height="130.738" transform="translate(-64.996 430.455) rotate(-90)" fill="#fff" stroke="#1f1f1f" stroke-miterlimit="10" stroke-width="0.75"/>
        <text transform="translate(134.515 250.388)" font-size="8.678" fill="#141414" font-family="Verdana"><tspan letter-spacing="-0.01em">S</tspan><tspan x="5.848" y="0" letter-spacing="0em">witch/</tspan><tspan x="32.702" y="0" letter-spacing="-0.024em">P</tspan><tspan x="37.723" y="0">eriph Blade 3</tspan></text>
        <rect x="177.738" y="193.834" width="9.983" height="130.738" transform="translate(-76.473 441.932) rotate(-90)" fill="#fff" stroke="#1f1f1f" stroke-miterlimit="10" stroke-width="0.75"/>
        <text transform="translate(134.515 262.186)" font-size="8.678" fill="#141414" font-family="Verdana"><tspan letter-spacing="-0.01em">S</tspan><tspan x="5.848" y="0" letter-spacing="0em">witch/</tspan><tspan x="32.702" y="0" letter-spacing="-0.024em">P</tspan><tspan x="37.723" y="0">eriph Blade 2</tspan></text>
        <rect x="177.405" y="205.787" width="10.649" height="130.738" transform="translate(-88.427 453.885) rotate(-90)" fill="#fff" stroke="#1f1f1f" stroke-miterlimit="10" stroke-width="0.75"/>
        <text transform="translate(134.515 273.584)" font-size="8.678" fill="#141414" font-family="Verdana"><tspan letter-spacing="-0.01em">S</tspan><tspan x="5.848" y="0" letter-spacing="0em">witch/</tspan><tspan x="32.702" y="0" letter-spacing="-0.024em">P</tspan><tspan x="37.723" y="0">eriph Blade 1</tspan></text>
        <rect x="177.405" y="217.673" width="10.649" height="130.738" transform="translate(-100.312 465.771) rotate(-90)" fill="#fff" stroke="#1f1f1f" stroke-miterlimit="10" stroke-width="0.75"/>
        <text transform="translate(134.515 285.783)" font-size="8.678" fill="#141414" font-family="Verdana"><tspan letter-spacing="-0.01em">S</tspan><tspan x="5.848" y="0" letter-spacing="0em">witch/</tspan><tspan x="32.702" y="0" letter-spacing="-0.024em">P</tspan><tspan x="37.723" y="0">eriph Blade 0</tspan></text>
        <rect x="177.445" y="23.592" width="10.569" height="130.738" transform="translate(93.768 271.69) rotate(-90)" fill="#c8c8c8" stroke="#1f1f1f" stroke-miterlimit="10" stroke-width="0.5"/>
        <text transform="translate(170.003 91.746)" font-size="8.438" fill="#141414" font-family="Verdana">CEC 1</text>
        <rect x="177.445" y="171.037" width="10.569" height="130.738" transform="translate(-53.676 419.135) rotate(-90)" fill="#fff" stroke="#1f1f1f" stroke-miterlimit="10" stroke-width="0.75"/>
        <text transform="translate(168.505 238.564)" font-size="8.438" fill="#141414" font-family="Verdana">CMM 5</text>
      </g>
      <g>
        <rect x="343.878" y="113.57" width="9.983" height="129.142" transform="translate(170.728 527.011) rotate(-90)" fill="#fffbde" stroke="#454547" stroke-linecap="round" stroke-linejoin="bevel" stroke-width="0.5"/>
        <text transform="translate(300.801 180.799)" font-size="8.678" fill="#141414" font-family="Verdana"><tspan letter-spacing="-0.01em">S</tspan><tspan x="5.848" y="0" letter-spacing="0em">witch/</tspan><tspan x="32.702" y="0" letter-spacing="-0.024em">P</tspan><tspan x="37.723" y="0">eriph Blade 7</tspan></text>
        <rect x="343.878" y="124.813" width="9.983" height="129.142" transform="translate(159.485 538.254) rotate(-90)" fill="#fffbde" stroke="#454547" stroke-linecap="round" stroke-linejoin="bevel" stroke-width="0.5"/>
        <text transform="translate(300.801 192.339)" font-size="8.678" fill="#141414" font-family="Verdana"><tspan letter-spacing="-0.01em">S</tspan><tspan x="5.848" y="0" letter-spacing="0em">witch/</tspan><tspan x="32.702" y="0" letter-spacing="-0.024em">P</tspan><tspan x="37.723" y="0">eriph Blade 6</tspan></text>
        <rect x="343.999" y="136.117" width="9.74" height="129.142" transform="translate(148.182 549.557) rotate(-90)" fill="#fffbde" stroke="#454547" stroke-linecap="round" stroke-linejoin="bevel" stroke-width="0.5"/>
        <text transform="translate(300.801 203.878)" font-size="8.678" fill="#141414" font-family="Verdana"><tspan letter-spacing="-0.01em">S</tspan><tspan x="5.848" y="0" letter-spacing="0em">witch/</tspan><tspan x="32.702" y="0" letter-spacing="-0.024em">P</tspan><tspan x="37.723" y="0">eriph Blade 5</tspan></text>
        <rect x="343.878" y="147.92" width="9.983" height="129.142" transform="translate(136.378 561.361) rotate(-90)" fill="#fffbde" stroke="#454547" stroke-linecap="round" stroke-linejoin="bevel" stroke-width="0.5"/>
        <text transform="translate(300.801 215.415)" font-size="8.678" fill="#141414" font-family="Verdana"><tspan letter-spacing="-0.01em">S</tspan><tspan x="5.848" y="0" letter-spacing="0em">witch/</tspan><tspan x="32.702" y="0" letter-spacing="-0.024em">P</tspan><tspan x="37.723" y="0">eriph Blade 4</tspan></text>
        <rect x="343.878" y="183.155" width="9.983" height="129.142" transform="translate(101.144 596.595) rotate(-90)" fill="#fffbde" stroke="#454547" stroke-linecap="round" stroke-linejoin="bevel" stroke-width="0.5"/>
        <text transform="translate(300.801 250.388)" font-size="8.678" fill="#141414" font-family="Verdana"><tspan letter-spacing="-0.01em">S</tspan><tspan x="5.848" y="0" letter-spacing="0em">witch/</tspan><tspan x="32.702" y="0" letter-spacing="-0.024em">P</tspan><tspan x="37.723" y="0">eriph Blade 3</tspan></text>
        <rect x="343.878" y="194.631" width="9.983" height="129.142" transform="translate(89.667 608.072) rotate(-90)" fill="#fffbde" stroke="#454547" stroke-linecap="round" stroke-linejoin="bevel" stroke-width="0.5"/>
        <text transform="translate(300.801 262.186)" font-size="8.678" fill="#141414" font-family="Verdana"><tspan letter-spacing="-0.01em">S</tspan><tspan x="5.848" y="0" letter-spacing="0em">witch/</tspan><tspan x="32.702" y="0" letter-spacing="-0.024em">P</tspan><tspan x="37.723" y="0">eriph Blade 2</tspan></text>
        <rect x="343.545" y="206.585" width="10.649" height="129.142" transform="translate(77.714 620.025) rotate(-90)" fill="#fffbde" stroke="#454547" stroke-linecap="round" stroke-linejoin="bevel" stroke-width="0.5"/>
        <text transform="translate(300.801 273.584)" font-size="8.678" fill="#141414" font-family="Verdana"><tspan letter-spacing="-0.01em">S</tspan><tspan x="5.848" y="0" letter-spacing="0em">witch/</tspan><tspan x="32.702" y="0" letter-spacing="-0.024em">P</tspan><tspan x="37.723" y="0">eriph Blade 1</tspan></text>
        <rect x="343.545" y="218.47" width="10.649" height="129.142" transform="translate(65.828 631.911) rotate(-90)" fill="#fffbde" stroke="#454547" stroke-linecap="round" stroke-linejoin="bevel" stroke-width="0.5"/>
        <text transform="translate(300.801 285.783)" font-size="8.678" fill="#141414" font-family="Verdana"><tspan letter-spacing="-0.01em">S</tspan><tspan x="5.848" y="0" letter-spacing="0em">witch/</tspan><tspan x="32.702" y="0" letter-spacing="-0.024em">P</tspan><tspan x="37.723" y="0">eriph Blade 0</tspan></text>
        <rect x="343.585" y="24.39" width="10.569" height="129.142" transform="translate(259.908 437.831) rotate(-90)" fill="#c8c8c8" stroke="#1f1f1f" stroke-miterlimit="10" stroke-width="0.5"/>
        <text transform="translate(336.941 91.746)" font-size="8.438" fill="#141414" font-family="Verdana">CEC 0</text>
        <rect x="343.585" y="171.834" width="10.569" height="129.142" transform="translate(112.464 585.275) rotate(-90)" fill="#fffbde" stroke="#454547" stroke-linecap="round" stroke-linejoin="bevel" stroke-width="0.5"/>
        <text transform="translate(335.444 238.564)" font-size="8.438" fill="#141414" font-family="Verdana">CMM 4</text>
      </g>
      <g>
        <rect x="177.738" y="249.8" width="9.983" height="130.738" transform="translate(-132.439 497.898) rotate(-90)" fill="#fff" stroke="#1f1f1f" stroke-miterlimit="10" stroke-width="0.75"/>
        <text transform="translate(134.515 317.828)" font-size="8.678" fill="#141414" font-family="Verdana"><tspan letter-spacing="-0.01em">S</tspan><tspan x="5.848" y="0" letter-spacing="0em">witch/</tspan><tspan x="32.702" y="0" letter-spacing="-0.024em">P</tspan><tspan x="37.723" y="0">eriph Blade 7</tspan></text>
        <rect x="177.738" y="261.043" width="9.983" height="130.738" transform="translate(-143.683 509.141) rotate(-90)" fill="#fff" stroke="#1f1f1f" stroke-miterlimit="10" stroke-width="0.75"/>
        <text transform="translate(134.515 329.366)" font-size="8.678" fill="#141414" font-family="Verdana"><tspan letter-spacing="-0.01em">S</tspan><tspan x="5.848" y="0" letter-spacing="0em">witch/</tspan><tspan x="32.702" y="0" letter-spacing="-0.024em">P</tspan><tspan x="37.723" y="0">eriph Blade 6</tspan></text>
        <rect x="177.859" y="272.347" width="9.74" height="130.738" transform="translate(-154.986 520.445) rotate(-90)" fill="#fff" stroke="#1f1f1f" stroke-miterlimit="10" stroke-width="0.75"/>
        <text transform="translate(134.515 340.906)" font-size="8.678" fill="#141414" font-family="Verdana"><tspan letter-spacing="-0.01em">S</tspan><tspan x="5.848" y="0" letter-spacing="0em">witch/</tspan><tspan x="32.702" y="0" letter-spacing="-0.024em">P</tspan><tspan x="37.723" y="0">eriph Blade 5</tspan></text>
        <rect x="177.738" y="284.15" width="9.983" height="130.738" transform="translate(-166.79 532.249) rotate(-90)" fill="#fff" stroke="#1f1f1f" stroke-miterlimit="10" stroke-width="0.75"/>
        <text transform="translate(134.515 352.444)" font-size="8.678" fill="#141414" font-family="Verdana"><tspan letter-spacing="-0.01em">S</tspan><tspan x="5.848" y="0" letter-spacing="0em">witch/</tspan><tspan x="32.702" y="0" letter-spacing="-0.024em">P</tspan><tspan x="37.723" y="0">eriph Blade 4</tspan></text>
        <rect x="177.738" y="319.384" width="9.983" height="130.738" transform="translate(-202.024 567.483) rotate(-90)" fill="#fff" stroke="#1f1f1f" stroke-miterlimit="10" stroke-width="0.75"/>
        <text transform="translate(134.515 387.415)" font-size="8.678" fill="#141414" font-family="Verdana"><tspan letter-spacing="-0.01em">S</tspan><tspan x="5.848" y="0" letter-spacing="0em">witch/</tspan><tspan x="32.702" y="0" letter-spacing="-0.024em">P</tspan><tspan x="37.723" y="0">eriph Blade 3</tspan></text>
        <rect x="177.738" y="330.861" width="9.983" height="130.738" transform="translate(-213.501 578.96) rotate(-90)" fill="#fff" stroke="#1f1f1f" stroke-miterlimit="10" stroke-width="0.75"/>
        <text transform="translate(134.515 399.213)" font-size="8.678" fill="#141414" font-family="Verdana"><tspan letter-spacing="-0.01em">S</tspan><tspan x="5.848" y="0" letter-spacing="0em">witch/</tspan><tspan x="32.702" y="0" letter-spacing="-0.024em">P</tspan><tspan x="37.723" y="0">eriph Blade 2</tspan></text>
        <rect x="177.405" y="342.815" width="10.649" height="130.738" transform="translate(-225.454 590.913) rotate(-90)" fill="#fff" stroke="#1f1f1f" stroke-miterlimit="10" stroke-width="0.75"/>
        <text transform="translate(134.515 410.613)" font-size="8.678" fill="#141414" font-family="Verdana"><tspan letter-spacing="-0.01em">S</tspan><tspan x="5.848" y="0" letter-spacing="0em">witch/</tspan><tspan x="32.702" y="0" letter-spacing="-0.024em">P</tspan><tspan x="37.723" y="0">eriph Blade 1</tspan></text>
        <rect x="177.405" y="354.7" width="10.649" height="130.738" transform="translate(-237.34 602.799) rotate(-90)" fill="#fff" stroke="#1f1f1f" stroke-miterlimit="10" stroke-width="0.75"/>
        <text transform="translate(134.515 422.81)" font-size="8.678" fill="#141414" font-family="Verdana"><tspan letter-spacing="-0.01em">S</tspan><tspan x="5.848" y="0" letter-spacing="0em">witch/</tspan><tspan x="32.702" y="0" letter-spacing="-0.024em">P</tspan><tspan x="37.723" y="0">eriph Blade 0</tspan></text>
        <rect x="177.445" y="296.193" width="10.569" height="130.738" transform="translate(-178.833 544.292) rotate(-90)" fill="#fff" stroke="#454547" stroke-linecap="round" stroke-linejoin="bevel" stroke-width="0.246"/>
        <text transform="translate(173.061 363.146)" font-size="6.942" fill="#141414" font-family="Verdana">Blank</text>
        <rect x="177.445" y="308.064" width="10.569" height="130.738" transform="translate(-190.703 556.162) rotate(-90)" fill="#fff" stroke="#1f1f1f" stroke-miterlimit="10" stroke-width="0.75"/>
        <text transform="translate(168.505 374.952)" font-size="8.438" fill="#141414" font-family="Verdana">CMM 3</text>
      </g>
      <g>
        <rect x="343.878" y="250.598" width="9.983" height="129.142" transform="translate(33.701 664.038) rotate(-90)" fill="#fffbde" stroke="#454547" stroke-linecap="round" stroke-linejoin="bevel" stroke-width="0.5"/>
        <text transform="translate(300.801 317.828)" font-size="8.678" fill="#141414" font-family="Verdana"><tspan letter-spacing="-0.01em">S</tspan><tspan x="5.848" y="0" letter-spacing="0em">witch/</tspan><tspan x="32.702" y="0" letter-spacing="-0.024em">P</tspan><tspan x="37.723" y="0">eriph Blade 7</tspan></text>
        <rect x="343.878" y="261.841" width="9.983" height="129.142" transform="translate(22.458 675.281) rotate(-90)" fill="#fffbde" stroke="#454547" stroke-linecap="round" stroke-linejoin="bevel" stroke-width="0.5"/>
        <text transform="translate(300.801 329.366)" font-size="8.678" fill="#141414" font-family="Verdana"><tspan letter-spacing="-0.01em">S</tspan><tspan x="5.848" y="0" letter-spacing="0em">witch/</tspan><tspan x="32.702" y="0" letter-spacing="-0.024em">P</tspan><tspan x="37.723" y="0">eriph Blade 6</tspan></text>
        <rect x="343.999" y="273.144" width="9.74" height="129.142" transform="translate(11.154 686.585) rotate(-90)" fill="#fffbde" stroke="#454547" stroke-linecap="round" stroke-linejoin="bevel" stroke-width="0.5"/>
        <text transform="translate(300.801 340.906)" font-size="8.678" fill="#141414" font-family="Verdana"><tspan letter-spacing="-0.01em">S</tspan><tspan x="5.848" y="0" letter-spacing="0em">witch/</tspan><tspan x="32.702" y="0" letter-spacing="-0.024em">P</tspan><tspan x="37.723" y="0">eriph Blade 5</tspan></text>
        <rect x="343.878" y="284.948" width="9.983" height="129.142" transform="translate(-0.65 698.389) rotate(-90)" fill="#fffbde" stroke="#454547" stroke-linecap="round" stroke-linejoin="bevel" stroke-width="0.5"/>
        <text transform="translate(300.801 352.444)" font-size="8.678" fill="#141414" font-family="Verdana"><tspan letter-spacing="-0.01em">S</tspan><tspan x="5.848" y="0" letter-spacing="0em">witch/</tspan><tspan x="32.702" y="0" letter-spacing="-0.024em">P</tspan><tspan x="37.723" y="0">eriph Blade 4</tspan></text>
        <rect x="343.878" y="320.182" width="9.983" height="129.142" transform="translate(-35.884 733.623) rotate(-90)" fill="#fffbde" stroke="#454547" stroke-linecap="round" stroke-linejoin="bevel" stroke-width="0.5"/>
        <text transform="translate(300.801 387.415)" font-size="8.678" fill="#141414" font-family="Verdana"><tspan letter-spacing="-0.01em">S</tspan><tspan x="5.848" y="0" letter-spacing="0em">witch/</tspan><tspan x="32.702" y="0" letter-spacing="-0.024em">P</tspan><tspan x="37.723" y="0">eriph Blade 3</tspan></text>
        <rect x="343.878" y="331.659" width="9.983" height="129.142" transform="translate(-47.361 745.1) rotate(-90)" fill="#fffbde" stroke="#454547" stroke-linecap="round" stroke-linejoin="bevel" stroke-width="0.5"/>
        <text transform="translate(300.801 399.213)" font-size="8.678" fill="#141414" font-family="Verdana"><tspan letter-spacing="-0.01em">S</tspan><tspan x="5.848" y="0" letter-spacing="0em">witch/</tspan><tspan x="32.702" y="0" letter-spacing="-0.024em">P</tspan><tspan x="37.723" y="0">eriph Blade 2</tspan></text>
        <rect x="343.545" y="343.612" width="10.649" height="129.142" transform="translate(-59.314 757.053) rotate(-90)" fill="#fffbde" stroke="#454547" stroke-linecap="round" stroke-linejoin="bevel" stroke-width="0.5"/>
        <text transform="translate(300.801 410.613)" font-size="8.678" fill="#141414" font-family="Verdana"><tspan letter-spacing="-0.01em">S</tspan><tspan x="5.848" y="0" letter-spacing="0em">witch/</tspan><tspan x="32.702" y="0" letter-spacing="-0.024em">P</tspan><tspan x="37.723" y="0">eriph Blade 1</tspan></text>
        <rect x="343.545" y="355.498" width="10.649" height="129.142" transform="translate(-71.2 768.939) rotate(-90)" fill="#fffbde" stroke="#454547" stroke-linecap="round" stroke-linejoin="bevel" stroke-width="0.5"/>
        <text transform="translate(300.801 422.81)" font-size="8.678" fill="#141414" font-family="Verdana"><tspan letter-spacing="-0.01em">S</tspan><tspan x="5.848" y="0" letter-spacing="0em">witch/</tspan><tspan x="32.702" y="0" letter-spacing="-0.024em">P</tspan><tspan x="37.723" y="0">eriph Blade 0</tspan></text>
        <rect x="343.585" y="296.991" width="10.569" height="129.142" transform="translate(-12.693 710.432) rotate(-90)" fill="#fff" stroke="#454547" stroke-linecap="round" stroke-linejoin="bevel" stroke-width="0.246"/>
        <text transform="translate(340 363.146)" font-size="6.942" fill="#141414" font-family="Verdana">Blank</text>
        <rect x="343.585" y="308.862" width="10.569" height="129.142" transform="translate(-24.563 722.302) rotate(-90)" fill="#fffbde" stroke="#454547" stroke-linecap="round" stroke-linejoin="bevel" stroke-width="0.5"/>
        <text transform="translate(335.444 374.952)" font-size="8.438" fill="#141414" font-family="Verdana">CMM 2</text>
      </g>
      <g>
        <rect x="176.94" y="386.965" width="9.983" height="129.142" transform="translate(-269.605 633.468) rotate(-90)" fill="#fff" stroke="#1f1f1f" stroke-miterlimit="10" stroke-width="0.75"/>
        <text transform="translate(134.515 454.196)" font-size="8.678" fill="#141414" font-family="Verdana"><tspan letter-spacing="-0.01em">S</tspan><tspan x="5.848" y="0" letter-spacing="0em">witch/</tspan><tspan x="32.702" y="0" letter-spacing="-0.024em">P</tspan><tspan x="37.723" y="0">eriph Blade 7</tspan></text>
        <rect x="176.94" y="398.208" width="9.983" height="129.142" transform="translate(-280.848 644.711) rotate(-90)" fill="#fff" stroke="#1f1f1f" stroke-miterlimit="10" stroke-width="0.75"/>
        <text transform="translate(134.515 465.735)" font-size="8.678" fill="#141414" font-family="Verdana"><tspan letter-spacing="-0.01em">S</tspan><tspan x="5.848" y="0" letter-spacing="0em">witch/</tspan><tspan x="32.702" y="0" letter-spacing="-0.024em">P</tspan><tspan x="37.723" y="0">eriph Blade 6</tspan></text>
        <rect x="177.062" y="409.512" width="9.74" height="129.142" transform="translate(-292.151 656.015) rotate(-90)" fill="#fff" stroke="#1f1f1f" stroke-miterlimit="10" stroke-width="0.75"/>
        <text transform="translate(134.515 477.274)" font-size="8.678" fill="#141414" font-family="Verdana"><tspan letter-spacing="-0.01em">S</tspan><tspan x="5.848" y="0" letter-spacing="0em">witch/</tspan><tspan x="32.702" y="0" letter-spacing="-0.024em">P</tspan><tspan x="37.723" y="0">eriph Blade 5</tspan></text>
        <rect x="176.94" y="421.316" width="9.983" height="129.142" transform="translate(-303.955 667.819) rotate(-90)" fill="#fff" stroke="#1f1f1f" stroke-miterlimit="10" stroke-width="0.75"/>
        <text transform="translate(134.515 488.811)" font-size="8.678" fill="#141414" font-family="Verdana"><tspan letter-spacing="-0.01em">S</tspan><tspan x="5.848" y="0" letter-spacing="0em">witch/</tspan><tspan x="32.702" y="0" letter-spacing="-0.024em">P</tspan><tspan x="37.723" y="0">eriph Blade 4</tspan></text>
        <rect x="176.94" y="456.55" width="9.983" height="129.142" transform="translate(-339.189 703.053) rotate(-90)" fill="#fff" stroke="#1f1f1f" stroke-miterlimit="10" stroke-width="0.75"/>
        <text transform="translate(134.515 523.782)" font-size="8.678" fill="#141414" font-family="Verdana"><tspan letter-spacing="-0.01em">S</tspan><tspan x="5.848" y="0" letter-spacing="0em">witch/</tspan><tspan x="32.702" y="0" letter-spacing="-0.024em">P</tspan><tspan x="37.723" y="0">eriph Blade 3</tspan></text>
        <rect x="176.94" y="468.027" width="9.983" height="129.142" transform="translate(-350.666 714.53) rotate(-90)" fill="#fff" stroke="#1f1f1f" stroke-miterlimit="10" stroke-width="0.75"/>
        <text transform="translate(134.515 535.581)" font-size="8.678" fill="#141414" font-family="Verdana"><tspan letter-spacing="-0.01em">S</tspan><tspan x="5.848" y="0" letter-spacing="0em">witch/</tspan><tspan x="32.702" y="0" letter-spacing="-0.024em">P</tspan><tspan x="37.723" y="0">eriph Blade 2</tspan></text>
        <rect x="176.607" y="479.98" width="10.649" height="129.142" transform="translate(-362.619 726.483) rotate(-90)" fill="#fff" stroke="#1f1f1f" stroke-miterlimit="10" stroke-width="0.75"/>
        <text transform="translate(134.515 546.98)" font-size="8.678" fill="#141414" font-family="Verdana"><tspan letter-spacing="-0.01em">S</tspan><tspan x="5.848" y="0" letter-spacing="0em">witch/</tspan><tspan x="32.702" y="0" letter-spacing="-0.024em">P</tspan><tspan x="37.723" y="0">eriph Blade 1</tspan></text>
        <rect x="176.607" y="491.866" width="10.649" height="129.142" transform="translate(-374.505 738.369) rotate(-90)" fill="#fff" stroke="#1f1f1f" stroke-miterlimit="10" stroke-width="0.75"/>
        <text transform="translate(134.515 559.177)" font-size="8.678" fill="#141414" font-family="Verdana"><tspan letter-spacing="-0.01em">S</tspan><tspan x="5.848" y="0" letter-spacing="0em">witch/</tspan><tspan x="32.702" y="0" letter-spacing="-0.024em">P</tspan><tspan x="37.723" y="0">eriph Blade 0</tspan></text>
        <rect x="176.647" y="433.359" width="10.569" height="129.142" transform="translate(-315.998 679.862) rotate(-90)" fill="#fff" stroke="#454547" stroke-linecap="round" stroke-linejoin="bevel" stroke-width="0.246"/>
        <text transform="translate(173.061 499.992)" font-size="6.942" fill="#141414" font-family="Verdana">Blank</text>
        <rect x="176.647" y="445.229" width="10.569" height="129.142" transform="translate(-327.869 691.732) rotate(-90)" fill="#fff" stroke="#1f1f1f" stroke-miterlimit="10" stroke-width="0.75"/>
        <text transform="translate(168.505 512.539)" font-size="8.438" fill="#141414" font-family="Verdana">CMM 1</text>
      </g>
      <g>
        <rect x="343.878" y="386.965" width="9.983" height="129.142" transform="translate(-102.667 800.406) rotate(-90)" fill="#fffbde" stroke="#454547" stroke-linecap="round" stroke-linejoin="bevel" stroke-width="0.5"/>
        <text transform="translate(300.801 454.196)" font-size="8.678" fill="#141414" font-family="Verdana"><tspan letter-spacing="-0.01em">S</tspan><tspan x="5.848" y="0" letter-spacing="0em">witch/</tspan><tspan x="32.702" y="0" letter-spacing="-0.024em">P</tspan><tspan x="37.723" y="0">eriph Blade 7</tspan></text>
        <rect x="343.878" y="398.208" width="9.983" height="129.142" transform="translate(-113.91 811.649) rotate(-90)" fill="#fffbde" stroke="#454547" stroke-linecap="round" stroke-linejoin="bevel" stroke-width="0.5"/>
        <text transform="translate(300.801 465.735)" font-size="8.678" fill="#141414" font-family="Verdana"><tspan letter-spacing="-0.01em">S</tspan><tspan x="5.848" y="0" letter-spacing="0em">witch/</tspan><tspan x="32.702" y="0" letter-spacing="-0.024em">P</tspan><tspan x="37.723" y="0">eriph Blade 6</tspan></text>
        <rect x="343.999" y="409.512" width="9.74" height="129.142" transform="translate(-125.213 822.952) rotate(-90)" fill="#fffbde" stroke="#454547" stroke-linecap="round" stroke-linejoin="bevel" stroke-width="0.5"/>
        <text transform="translate(300.801 477.274)" font-size="8.678" fill="#141414" font-family="Verdana"><tspan letter-spacing="-0.01em">S</tspan><tspan x="5.848" y="0" letter-spacing="0em">witch/</tspan><tspan x="32.702" y="0" letter-spacing="-0.024em">P</tspan><tspan x="37.723" y="0">eriph Blade 5</tspan></text>
        <rect x="343.878" y="421.316" width="9.983" height="129.142" transform="translate(-137.017 834.756) rotate(-90)" fill="#fffbde" stroke="#454547" stroke-linecap="round" stroke-linejoin="bevel" stroke-width="0.5"/>
        <text transform="translate(300.801 488.811)" font-size="8.678" fill="#141414" font-family="Verdana"><tspan letter-spacing="-0.01em">S</tspan><tspan x="5.848" y="0" letter-spacing="0em">witch/</tspan><tspan x="32.702" y="0" letter-spacing="-0.024em">P</tspan><tspan x="37.723" y="0">eriph Blade 4</tspan></text>
        <rect x="343.878" y="456.55" width="9.983" height="129.142" transform="translate(-172.251 869.99) rotate(-90)" fill="#fffbde" stroke="#454547" stroke-linecap="round" stroke-linejoin="bevel" stroke-width="0.5"/>
        <text transform="translate(300.802 523.782)" font-size="8.678" fill="#141414" font-family="Verdana"><tspan letter-spacing="-0.01em">S</tspan><tspan x="5.848" y="0" letter-spacing="0em">witch/</tspan><tspan x="32.702" y="0" letter-spacing="-0.024em">P</tspan><tspan x="37.723" y="0">eriph Blade 3</tspan></text>
        <rect x="343.878" y="468.027" width="9.983" height="129.142" transform="translate(-183.728 881.467) rotate(-90)" fill="#fffbde" stroke="#454547" stroke-linecap="round" stroke-linejoin="bevel" stroke-width="0.5"/>
        <text transform="translate(300.802 535.581)" font-size="8.678" fill="#141414" font-family="Verdana"><tspan letter-spacing="-0.01em">S</tspan><tspan x="5.848" y="0" letter-spacing="0em">witch/</tspan><tspan x="32.702" y="0" letter-spacing="-0.024em">P</tspan><tspan x="37.723" y="0">eriph Blade 2</tspan></text>
        <rect x="343.545" y="479.98" width="10.649" height="129.142" transform="translate(-195.681 893.421) rotate(-90)" fill="#fffbde" stroke="#454547" stroke-linecap="round" stroke-linejoin="bevel" stroke-width="0.5"/>
        <text transform="translate(300.802 546.98)" font-size="8.678" fill="#141414" font-family="Verdana"><tspan letter-spacing="-0.01em">S</tspan><tspan x="5.848" y="0" letter-spacing="0em">witch/</tspan><tspan x="32.702" y="0" letter-spacing="-0.024em">P</tspan><tspan x="37.723" y="0">eriph Blade 1</tspan></text>
        <rect x="343.545" y="491.866" width="10.649" height="129.142" transform="translate(-207.567 905.306) rotate(-90)" fill="#fffbde" stroke="#454547" stroke-linecap="round" stroke-linejoin="bevel" stroke-width="0.5"/>
        <text transform="translate(300.802 559.177)" font-size="8.678" fill="#141414" font-family="Verdana"><tspan letter-spacing="-0.01em">S</tspan><tspan x="5.848" y="0" letter-spacing="0em">witch/</tspan><tspan x="32.702" y="0" letter-spacing="-0.024em">P</tspan><tspan x="37.723" y="0">eriph Blade 0</tspan></text>
        <rect x="343.585" y="433.359" width="10.569" height="129.142" transform="translate(-149.06 846.799) rotate(-90)" fill="#fff" stroke="#454547" stroke-linecap="round" stroke-linejoin="bevel" stroke-width="0.246"/>
        <text transform="translate(340 499.992)" font-size="6.942" fill="#141414" font-family="Verdana">Blank</text>
        <rect x="343.585" y="445.229" width="10.569" height="129.142" transform="translate(-160.931 858.67) rotate(-90)" fill="#fffbde" stroke="#454547" stroke-linecap="round" stroke-linejoin="bevel" stroke-width="0.5"/>
        <text transform="translate(335.444 512.539)" font-size="8.438" fill="#141414" font-family="Verdana">CMM 0</text>
      </g>
    </g>
  </g>
</svg>
