<svg id="Layer_1" data-name="Layer 1" xmlns="http://www.w3.org/2000/svg" width="6.539in" height="7.809in" viewBox="0 0 470.812 562.223">
  <text transform="translate(243.495 19.848)" font-size="7.003" fill="#3b3a3c" font-family="Verdana">HMN</text>
  <g>
    <g>
      <line x1="110.592" y1="101.851" x2="252.843" y2="101.851" fill="none" stroke="#3b3a3c" stroke-linecap="round" stroke-linejoin="bevel" stroke-width="3"/>
      <line x1="206.804" y1="55.148" x2="252.931" y2="55.148" fill="none" stroke="#3b3a3c" stroke-linecap="round" stroke-linejoin="bevel" stroke-width="3"/>
      <line x1="110.592" y1="253.929" x2="252.843" y2="253.929" fill="none" stroke="#3b3a3c" stroke-linecap="round" stroke-linejoin="bevel" stroke-width="3"/>
      <line x1="206.804" y1="177.51" x2="252.931" y2="177.51" fill="none" stroke="#3b3a3c" stroke-linecap="round" stroke-linejoin="bevel" stroke-width="3"/>
      <line x1="253.19" y1="525.195" x2="253.19" y2="23.725" fill="none" stroke="#3b3a3c" stroke-linecap="round" stroke-linejoin="bevel" stroke-width="3"/>
      <line x1="206.804" y1="330.873" x2="252.931" y2="330.873" fill="none" stroke="#3b3a3c" stroke-linecap="round" stroke-linejoin="bevel" stroke-width="3"/>
    </g>
    <g>
      <line x1="110.592" y1="101.851" x2="252.843" y2="101.851" fill="none" stroke="#00a551" stroke-linecap="round" stroke-linejoin="bevel" stroke-width="2"/>
      <line x1="206.804" y1="55.148" x2="252.931" y2="55.148" fill="none" stroke="#00a551" stroke-linecap="round" stroke-linejoin="bevel" stroke-width="2"/>
      <line x1="110.592" y1="253.929" x2="252.843" y2="253.929" fill="none" stroke="#00a551" stroke-linecap="round" stroke-linejoin="bevel" stroke-width="2"/>
      <line x1="206.804" y1="177.51" x2="252.931" y2="177.51" fill="none" stroke="#00a551" stroke-linecap="round" stroke-linejoin="bevel" stroke-width="2"/>
      <line x1="253.19" y1="525.195" x2="253.19" y2="23.725" fill="none" stroke="#00a551" stroke-linecap="round" stroke-linejoin="bevel" stroke-width="2"/>
      <line x1="206.804" y1="330.873" x2="252.931" y2="330.873" fill="none" stroke="#00a551" stroke-linecap="round" stroke-linejoin="bevel" stroke-width="2"/>
    </g>
  </g>
  <text transform="translate(269.982 19.848)" font-size="7.003" fill="#3b3a3c" font-family="Verdana">NMN</text>
  <g>
    <g>
      <line x1="212.63" y1="43.706" x2="279.299" y2="43.706" fill="none" stroke="#3b3a3c" stroke-linecap="round" stroke-linejoin="bevel" stroke-width="3"/>
      <line x1="279.312" y1="525.195" x2="279.312" y2="22.825" fill="none" stroke="#3b3a3c" stroke-linecap="round" stroke-linejoin="bevel" stroke-width="3"/>
      <line x1="212.63" y1="166.069" x2="279.299" y2="166.069" fill="none" stroke="#3b3a3c" stroke-linecap="round" stroke-linejoin="bevel" stroke-width="3"/>
      <line x1="212.63" y1="319.432" x2="279.299" y2="319.432" fill="none" stroke="#3b3a3c" stroke-linecap="round" stroke-linejoin="bevel" stroke-width="3"/>
    </g>
    <g>
      <line x1="212.63" y1="43.706" x2="279.299" y2="43.706" fill="none" stroke="#d1ecf6" stroke-linecap="round" stroke-linejoin="bevel" stroke-width="2"/>
      <line x1="279.312" y1="525.195" x2="279.312" y2="22.825" fill="none" stroke="#d1ecf6" stroke-linecap="round" stroke-linejoin="bevel" stroke-width="2"/>
      <line x1="212.63" y1="166.069" x2="279.299" y2="166.069" fill="none" stroke="#d1ecf6" stroke-linecap="round" stroke-linejoin="bevel" stroke-width="2"/>
      <line x1="212.63" y1="319.432" x2="279.299" y2="319.432" fill="none" stroke="#d1ecf6" stroke-linecap="round" stroke-linejoin="bevel" stroke-width="2"/>
    </g>
  </g>
  <text transform="translate(371.396 11.094)" font-size="7.003" fill="#3b3a3c" font-family="Verdana">Default<tspan x="-2.424" y="8.404">MT</tspan><tspan x="7.794" y="8.404" letter-spacing="-0.078em">L</tspan><tspan x="11.145" y="8.404" letter-spacing="0em">-PXE</tspan></text>
  <g>
    <g>
      <polyline points="209.95 283.902 426.909 283.902 426.909 112.752" fill="none" stroke="#3b3a3c" stroke-linecap="round" stroke-linejoin="bevel" stroke-width="3"/>
      <line x1="212.63" y1="32.221" x2="385.199" y2="32.221" fill="none" stroke="#3b3a3c" stroke-linecap="round" stroke-linejoin="bevel" stroke-width="3"/>
      <g>
        <line x1="212.63" y1="154.583" x2="385.199" y2="154.583" fill="none" stroke="#3b3a3c" stroke-linecap="round" stroke-linejoin="bevel" stroke-width="3"/>
        <line x1="212.63" y1="154.583" x2="385.199" y2="154.583" fill="none" stroke="#3b3a3c" stroke-linecap="round" stroke-linejoin="bevel" stroke-width="3"/>
      </g>
      <line x1="385.462" y1="22.825" x2="385.462" y2="525.195" fill="none" stroke="#3b3a3c" stroke-linecap="round" stroke-linejoin="bevel" stroke-width="3"/>
      <g>
        <line x1="212.63" y1="307.946" x2="385.199" y2="307.946" fill="none" stroke="#3b3a3c" stroke-linecap="round" stroke-linejoin="bevel" stroke-width="3"/>
        <line x1="212.63" y1="307.946" x2="385.199" y2="307.946" fill="none" stroke="#3b3a3c" stroke-linecap="round" stroke-linejoin="bevel" stroke-width="3"/>
      </g>
    </g>
    <g>
      <line x1="212.63" y1="32.221" x2="385.199" y2="32.221" fill="none" stroke="#b9c5c2" stroke-linecap="round" stroke-linejoin="bevel" stroke-width="2"/>
      <g>
        <line x1="212.63" y1="154.583" x2="385.199" y2="154.583" fill="none" stroke="#b9c5c2" stroke-linecap="round" stroke-linejoin="bevel" stroke-width="2"/>
        <line x1="212.63" y1="154.583" x2="385.199" y2="154.583" fill="none" stroke="#b9c5c2" stroke-linecap="round" stroke-linejoin="bevel" stroke-width="2"/>
      </g>
      <line x1="385.462" y1="22.825" x2="385.462" y2="525.195" fill="none" stroke="#b9c5c2" stroke-linecap="round" stroke-linejoin="bevel" stroke-width="2"/>
      <g>
        <line x1="212.63" y1="307.946" x2="385.199" y2="307.946" fill="none" stroke="#b9c5c2" stroke-linecap="round" stroke-linejoin="bevel" stroke-width="2"/>
        <line x1="212.63" y1="307.946" x2="385.199" y2="307.946" fill="none" stroke="#b9c5c2" stroke-linecap="round" stroke-linejoin="bevel" stroke-width="2"/>
      </g>
    </g>
  </g>
  <text transform="translate(349.951 19.848)" font-size="7.003" fill="#3b3a3c" font-family="Verdana">HSN</text>
  <g>
    <g>
      <line x1="358.727" y1="23.503" x2="358.727" y2="525.195" fill="none" stroke="#3b3a3c" stroke-linecap="round" stroke-linejoin="bevel" stroke-width="3"/>
      <line x1="209.278" y1="241.41" x2="358.727" y2="241.41" fill="none" stroke="#3b3a3c" stroke-linecap="round" stroke-linejoin="bevel" stroke-width="3"/>
      <line x1="205.276" y1="395.773" x2="358.727" y2="395.773" fill="none" stroke="#3b3a3c" stroke-linecap="round" stroke-linejoin="bevel" stroke-width="3"/>
    </g>
    <g>
      <line x1="358.727" y1="23.503" x2="358.727" y2="525.195" fill="none" stroke="#97b8e0" stroke-linecap="round" stroke-linejoin="bevel" stroke-width="2"/>
      <line x1="209.278" y1="241.41" x2="358.727" y2="241.41" fill="none" stroke="#97b8e0" stroke-linecap="round" stroke-linejoin="bevel" stroke-width="2"/>
      <line x1="205.276" y1="395.773" x2="358.727" y2="395.773" fill="none" stroke="#97b8e0" stroke-linecap="round" stroke-linejoin="bevel" stroke-width="2"/>
    </g>
  </g>
  <text transform="translate(323.545 19.848)" font-size="7.003" fill="#3b3a3c" font-family="Verdana">USN</text>
  <g>
    <line x1="206.804" y1="77.937" x2="332.454" y2="77.937" fill="none" stroke="#3b3a3c" stroke-linecap="round" stroke-linejoin="bevel" stroke-width="3"/>
    <line x1="206.804" y1="200.299" x2="332.454" y2="200.299" fill="none" stroke="#3b3a3c" stroke-linecap="round" stroke-linejoin="bevel" stroke-width="3"/>
    <line x1="332.693" y1="23.503" x2="332.693" y2="525.195" fill="none" stroke="#3b3a3c" stroke-linecap="round" stroke-linejoin="bevel" stroke-width="3"/>
    <line x1="206.804" y1="353.663" x2="332.454" y2="353.663" fill="none" stroke="#3b3a3c" stroke-linecap="round" stroke-linejoin="bevel" stroke-width="3"/>
  </g>
  <g>
    <line x1="206.804" y1="77.937" x2="332.454" y2="77.937" fill="none" stroke="#f8f0ac" stroke-linecap="round" stroke-linejoin="bevel" stroke-width="2"/>
    <line x1="206.804" y1="200.299" x2="332.454" y2="200.299" fill="none" stroke="#f8f0ac" stroke-linecap="round" stroke-linejoin="bevel" stroke-width="2"/>
    <line x1="332.693" y1="23.503" x2="332.693" y2="525.195" fill="none" stroke="#f8f0ac" stroke-linecap="round" stroke-linejoin="bevel" stroke-width="2"/>
    <line x1="206.804" y1="353.663" x2="332.454" y2="353.663" fill="none" stroke="#f8f0ac" stroke-linecap="round" stroke-linejoin="bevel" stroke-width="2"/>
  </g>
  <text transform="translate(297.189 19.848)" font-size="7.003" fill="#3b3a3c" font-family="Verdana">CAN</text>
  <g>
    <g>
      <line x1="206.804" y1="66.747" x2="305.87" y2="66.747" fill="none" stroke="#3b3a3c" stroke-linecap="round" stroke-linejoin="bevel" stroke-width="3"/>
      <line x1="206.804" y1="189.11" x2="305.87" y2="189.11" fill="none" stroke="#3b3a3c" stroke-linecap="round" stroke-linejoin="bevel" stroke-width="3"/>
      <line x1="306.046" y1="22.825" x2="306.046" y2="525.195" fill="none" stroke="#3b3a3c" stroke-linecap="round" stroke-linejoin="bevel" stroke-width="3"/>
      <line x1="206.804" y1="342.473" x2="305.87" y2="342.473" fill="none" stroke="#3b3a3c" stroke-linecap="round" stroke-linejoin="bevel" stroke-width="3"/>
    </g>
    <g>
      <line x1="206.804" y1="66.747" x2="305.87" y2="66.747" fill="none" stroke="#d2b3d4" stroke-linecap="round" stroke-linejoin="bevel" stroke-width="2"/>
      <line x1="206.804" y1="189.11" x2="305.87" y2="189.11" fill="none" stroke="#d2b3d4" stroke-linecap="round" stroke-linejoin="bevel" stroke-width="2"/>
      <line x1="306.046" y1="22.825" x2="306.046" y2="525.195" fill="none" stroke="#d2b3d4" stroke-linecap="round" stroke-linejoin="bevel" stroke-width="2"/>
      <line x1="206.804" y1="342.473" x2="305.87" y2="342.473" fill="none" stroke="#d2b3d4" stroke-linecap="round" stroke-linejoin="bevel" stroke-width="2"/>
    </g>
  </g>
  <polyline points="110.592 408.292 435.835 408.292 435.835 117.834" fill="none" stroke="#3b3a3c" stroke-linecap="round" stroke-linejoin="bevel" stroke-width="3"/>
  <rect x="113.247" y="3.853" width="52.448" height="9.46" fill="#fff" stroke="#262626" stroke-linecap="round" stroke-linejoin="bevel" stroke-width="0.75"/>
  <rect x="113.247" y="14.537" width="52.448" height="9.46" fill="#fff" stroke="#262626" stroke-linecap="round" stroke-linejoin="bevel" stroke-width="0.75"/>
  <rect x="113.247" y="26.972" width="52.448" height="56.102" fill="#fff" stroke="#262626" stroke-linecap="round" stroke-linejoin="bevel" stroke-width="0.75"/>
  <rect x="27.322" y="3.227" width="84.058" height="93.476" fill="#fff" stroke="#262626" stroke-linecap="round" stroke-linejoin="bevel" stroke-width="0.75"/>
  <rect x="27.322" y="97.002" width="84.058" height="13.851" fill="#fff" stroke="#262626" stroke-linecap="round" stroke-linejoin="bevel" stroke-width="0.75"/>
  <text transform="translate(43.604 45.756)" font-size="8" fill="#3b3a3c" font-family="Verdana">Sto<tspan x="13.477" y="0" letter-spacing="-0.018em">r</tspan><tspan x="16.75" y="0">age NCN</tspan></text>
  <text transform="translate(59.718 105.85)" font-size="8" fill="#3b3a3c" font-family="Verdana">BMC</text>
  <text transform="translate(119.599 10.856)" font-size="7.003" fill="#3b3a3c" font-family="Verdana">eth0 1GbE</text>
  <text transform="translate(119.599 21.249)" font-size="7.003" fill="#3b3a3c" font-family="Verdana">eth1 1GbE</text>
  <rect x="113.247" y="86.304" width="52.448" height="9.46" fill="#fff" stroke="#262626" stroke-linecap="round" stroke-linejoin="bevel" stroke-width="0.75"/>
  <text transform="translate(119.599 93.191)" font-size="7.003" fill="#3b3a3c" font-family="Verdana">eth3 40GbE</text>
  <text transform="translate(119.599 53.822)" font-size="7.003" fill="#3b3a3c" font-family="Verdana">eth2 40GbE</text>
  <text transform="translate(119.599 112.086)" font-size="7.003" fill="#3b3a3c" font-family="Verdana">1GbE</text>
  <polygon points="205.867 36.822 214.906 32.16 205.867 27.498 167.572 27.498 167.572 36.822 205.867 36.822" fill="#b9c5c2" stroke="#262626" stroke-linecap="round" stroke-linejoin="bevel" stroke-width="0.75"/>
  <text transform="translate(170.891 34.822)" font-size="7.003" fill="#3b3a3c" font-family="Verdana">Default</text>
  <g>
    <polygon points="205.867 48.362 214.906 43.7 205.867 39.038 167.572 39.038 167.572 48.362 205.867 48.362" fill="#d1ecf6" stroke="#262626" stroke-linecap="round" stroke-linejoin="bevel" stroke-width="0.75"/>
    <text transform="translate(170.891 46.363)" font-size="7.003" fill="#3b3a3c" font-family="Verdana">VLAN 002</text>
  </g>
  <g>
    <polygon points="205.867 59.903 214.906 55.241 205.867 50.579 167.572 50.579 167.572 59.903 205.867 59.903" fill="#c4e1b4" stroke="#262626" stroke-linecap="round" stroke-linejoin="bevel" stroke-width="0.75"/>
    <text transform="translate(170.891 57.903)" font-size="7.003" fill="#3b3a3c" font-family="Verdana">VLAN 004</text>
  </g>
  <g>
    <polygon points="205.867 71.443 214.906 66.781 205.867 62.12 167.572 62.12 167.572 71.443 205.867 71.443" fill="#d2b3d4" stroke="#262626" stroke-linecap="round" stroke-linejoin="bevel" stroke-width="0.75"/>
    <text transform="translate(170.891 69.443)" font-size="7.003" fill="#3b3a3c" font-family="Verdana">VLAN 007</text>
  </g>
  <g>
    <polygon points="205.867 82.796 214.906 78.134 205.867 73.473 167.572 73.473 167.572 82.796 205.867 82.796" fill="#f8f0ac" stroke="#262626" stroke-linecap="round" stroke-linejoin="bevel" stroke-width="0.75"/>
    <text transform="translate(170.891 80.797)" font-size="7.003" fill="#3b3a3c" font-family="Verdana">VLAN 010</text>
  </g>
  <rect x="113.247" y="125.515" width="52.448" height="9.46" fill="#fff" stroke="#262626" stroke-linecap="round" stroke-linejoin="bevel" stroke-width="0.75"/>
  <rect x="113.247" y="136.899" width="52.448" height="9.46" fill="#fff" stroke="#262626" stroke-linecap="round" stroke-linejoin="bevel" stroke-width="0.75"/>
  <rect x="113.247" y="148.334" width="52.448" height="61.102" fill="#fff" stroke="#262626" stroke-linecap="round" stroke-linejoin="bevel" stroke-width="0.75"/>
  <rect x="27.322" y="122.714" width="84.058" height="126.367" fill="#fff" stroke="#262626" stroke-linecap="round" stroke-linejoin="bevel" stroke-width="0.75"/>
  <rect x="27.322" y="249.081" width="84.058" height="13.851" fill="#fff" stroke="#262626" stroke-linecap="round" stroke-linejoin="bevel" stroke-width="0.75"/>
  <text transform="translate(36.305 193.805)" font-size="8" fill="#3b3a3c" font-family="Verdana">k8S <tspan x="18.102" y="0" letter-spacing="-0.049em">W</tspan><tspan x="25.621" y="0">or</tspan><tspan x="33.891" y="0" letter-spacing="-0.01em">k</tspan><tspan x="38.547" y="0">er NCN</tspan></text>
  <text transform="translate(59.718 257.928)" font-size="8" fill="#3b3a3c" font-family="Verdana">BMC</text>
  <text transform="translate(116.097 132.518)" font-size="7.003" fill="#3b3a3c" font-family="Verdana">eth0 1GbE</text>
  <text transform="translate(116.097 143.611)" font-size="7.003" fill="#3b3a3c" font-family="Verdana">eth1 1GbE</text>
  <rect x="113.247" y="212.667" width="52.448" height="9.46" fill="#fff" stroke="#262626" stroke-linecap="round" stroke-linejoin="bevel" stroke-width="0.75"/>
  <text transform="translate(116.097 219.554)" font-size="7.003" fill="#3b3a3c" font-family="Verdana">eth3 40GbE</text>
  <text transform="translate(116.097 176.184)" font-size="7.003" fill="#3b3a3c" font-family="Verdana">eth2 40GbE</text>
  <text transform="translate(119.599 264.164)" font-size="7.003" fill="#3b3a3c" font-family="Verdana">1GbE</text>
  <polygon points="205.867 159.184 214.906 154.522 205.867 149.86 167.572 149.86 167.572 159.184 205.867 159.184" fill="#b9c5c2" stroke="#262626" stroke-linecap="round" stroke-linejoin="bevel" stroke-width="0.75"/>
  <text transform="translate(170.891 157.184)" font-size="7.003" fill="#3b3a3c" font-family="Verdana">Default</text>
  <g>
    <polygon points="205.867 170.724 214.906 166.063 205.867 161.401 167.572 161.401 167.572 170.724 205.867 170.724" fill="#d1ecf6" stroke="#262626" stroke-linecap="round" stroke-linejoin="bevel" stroke-width="0.75"/>
    <text transform="translate(170.891 168.725)" font-size="7.003" fill="#3b3a3c" font-family="Verdana">VLAN 002</text>
  </g>
  <g>
    <polygon points="205.867 182.265 214.906 177.603 205.867 172.941 167.572 172.941 167.572 182.265 205.867 182.265" fill="#c4e1b4" stroke="#262626" stroke-linecap="round" stroke-linejoin="bevel" stroke-width="0.75"/>
    <text transform="translate(170.891 180.265)" font-size="7.003" fill="#3b3a3c" font-family="Verdana">VLAN 004</text>
  </g>
  <g>
    <polygon points="205.867 193.805 214.906 189.144 205.867 184.482 167.572 184.482 167.572 193.805 205.867 193.805" fill="#d2b3d4" stroke="#262626" stroke-linecap="round" stroke-linejoin="bevel" stroke-width="0.75"/>
    <text transform="translate(170.891 191.805)" font-size="7.003" fill="#3b3a3c" font-family="Verdana">VLAN 007</text>
  </g>
  <g>
    <polygon points="205.867 205.158 214.906 200.497 205.867 195.835 167.572 195.835 167.572 205.158 205.867 205.158" fill="#f8f0ac" stroke="#262626" stroke-linecap="round" stroke-linejoin="bevel" stroke-width="0.75"/>
    <text transform="translate(170.891 203.158)" font-size="7.003" fill="#3b3a3c" font-family="Verdana">VLAN 010</text>
  </g>
  <text transform="translate(34.239 451.723)" font-size="8" fill="#3b3a3c" font-family="Verdana">HMN</text>
  <text transform="translate(34.266 463.426)" font-size="8" fill="#3b3a3c" font-family="Verdana">NMN</text>
  <text transform="translate(35.938 476.126)" font-size="8" fill="#3b3a3c" font-family="Verdana">CAN</text>
  <text transform="translate(35.668 488.828)" font-size="8" fill="#3b3a3c" font-family="Verdana">USN</text>
  <text transform="translate(35.512 501.528)" font-size="8" fill="#3b3a3c" font-family="Verdana">HSN</text>
  <g>
    <text transform="translate(18.481 514.23)" font-size="8" fill="#3b3a3c" font-family="Verdana">MT<tspan x="11.672" y="0" letter-spacing="-0.078em">L</tspan><tspan x="15.5" y="0">-PXE</tspan></text>
    <text transform="translate(102.363 451.723)" font-size="8" fill="#3b3a3c" font-family="Verdana">Hard<tspan x="19.215" y="0" letter-spacing="-0.01em">w</tspan><tspan x="25.684" y="0">are Management Network</tspan></text>
    <text transform="translate(102.363 463.426)" font-size="8" fill="#3b3a3c" font-family="Verdana">Node Management Network</text>
    <text transform="translate(102.363 476.126)" font-size="8" fill="#3b3a3c" font-family="Verdana">Customer Access Network</text>
    <text transform="translate(102.363 488.828)" font-size="8" fill="#3b3a3c" font-family="Verdana">Utili<tspan x="15.594" y="0" letter-spacing="-0.005em">t</tspan><tspan x="18.707" y="0">y Sto</tspan><tspan x="39.73" y="0" letter-spacing="-0.018em">r</tspan><tspan x="43.004" y="0">age Network</tspan></text>
    <text transform="translate(102.363 501.528)" font-size="8" fill="#3b3a3c" font-family="Verdana">High-speed Network</text>
    <text transform="translate(102.363 514.23)" font-size="8" fill="#3b3a3c" font-family="Verdana">Material Lib<tspan x="46.52" y="0" letter-spacing="-0.018em">r</tspan><tspan x="49.793" y="0">ary File-PXE Boot</tspan></text>
  </g>
  <rect x="113.247" y="224.708" width="52.448" height="9.46" fill="#fff" stroke="#262626" stroke-linecap="round" stroke-linejoin="bevel" stroke-width="0.75"/>
  <text transform="translate(116.097 231.595)" font-size="7.003" fill="#3b3a3c" font-family="Verdana">eth4 100GbE</text>
  <rect x="113.247" y="236.68" width="52.448" height="9.46" fill="#fff" stroke="#262626" stroke-linecap="round" stroke-linejoin="bevel" stroke-width="0.75"/>
  <text transform="translate(116.097 243.567)" font-size="7.003" fill="#3b3a3c" font-family="Verdana">eth5 100GbE</text>
  <rect x="113.247" y="279.578" width="52.448" height="9.46" fill="#fff" stroke="#262626" stroke-linecap="round" stroke-linejoin="bevel" stroke-width="0.75"/>
  <rect x="113.247" y="291.062" width="52.448" height="9.46" fill="#fff" stroke="#262626" stroke-linecap="round" stroke-linejoin="bevel" stroke-width="0.75"/>
  <rect x="113.247" y="302.697" width="52.448" height="61.102" fill="#fff" stroke="#262626" stroke-linecap="round" stroke-linejoin="bevel" stroke-width="0.75"/>
  <rect x="27.322" y="276.077" width="84.058" height="127.367" fill="#fff" stroke="#262626" stroke-linecap="round" stroke-linejoin="bevel" stroke-width="0.75"/>
  <rect x="27.322" y="403.444" width="84.058" height="13.851" fill="#fff" stroke="#262626" stroke-linecap="round" stroke-linejoin="bevel" stroke-width="0.75"/>
  <text transform="translate(37.094 347.168)" font-size="8" fill="#3b3a3c" font-family="Verdana">k8S Master NCN<tspan x="12.275" y="8.404">ncn-m001</tspan></text>
  <text transform="translate(59.718 412.291)" font-size="8" fill="#3b3a3c" font-family="Verdana">BMC</text>
  <text transform="translate(116.097 286.58)" font-size="7.003" fill="#3b3a3c" font-family="Verdana">eth0 1GbE</text>
  <text transform="translate(116.097 297.774)" font-size="7.003" fill="#3b3a3c" font-family="Verdana">eth1 1GbE</text>
  <rect x="113.247" y="367.83" width="52.448" height="9.46" fill="#fff" stroke="#262626" stroke-linecap="round" stroke-linejoin="bevel" stroke-width="0.75"/>
  <text transform="translate(116.097 374.717)" font-size="7.003" fill="#3b3a3c" font-family="Verdana">eth3 40GbE</text>
  <text transform="translate(116.097 329.548)" font-size="7.003" fill="#3b3a3c" font-family="Verdana">eth2 40GbE</text>
  <text transform="translate(119.599 418.528)" font-size="7.003" fill="#3b3a3c" font-family="Verdana">1GbE</text>
  <polygon points="205.867 312.547 214.906 307.885 205.867 303.223 167.572 303.223 167.572 312.547 205.867 312.547" fill="#b9c5c2" stroke="#262626" stroke-linecap="round" stroke-linejoin="bevel" stroke-width="0.75"/>
  <text transform="translate(170.891 310.547)" font-size="7.003" fill="#3b3a3c" font-family="Verdana">Default</text>
  <polygon points="205.867 288.564 214.906 283.902 205.867 279.241 167.572 279.241 167.572 288.564 205.867 288.564" fill="#555b5b" stroke="#262626" stroke-linecap="round" stroke-linejoin="bevel" stroke-width="0.75"/>
  <text transform="translate(170.891 286.565)" font-size="7.003" fill="#fff" font-family="Verdana">External</text>
  <g>
    <polygon points="205.867 324.087 214.906 319.426 205.867 314.764 167.572 314.764 167.572 324.087 205.867 324.087" fill="#d1ecf6" stroke="#262626" stroke-linecap="round" stroke-linejoin="bevel" stroke-width="0.75"/>
    <text transform="translate(170.891 322.088)" font-size="7.003" fill="#3b3a3c" font-family="Verdana">VLAN 002</text>
  </g>
  <g>
    <polygon points="205.867 335.628 214.906 330.966 205.867 326.304 167.572 326.304 167.572 335.628 205.867 335.628" fill="#c4e1b4" stroke="#262626" stroke-linecap="round" stroke-linejoin="bevel" stroke-width="0.75"/>
    <text transform="translate(170.891 333.628)" font-size="7.003" fill="#3b3a3c" font-family="Verdana">VLAN 004</text>
  </g>
  <g>
    <polygon points="205.867 347.169 214.906 342.507 205.867 337.845 167.572 337.845 167.572 347.169 205.867 347.169" fill="#d2b3d4" stroke="#262626" stroke-linecap="round" stroke-linejoin="bevel" stroke-width="0.75"/>
    <text transform="translate(170.891 345.168)" font-size="7.003" fill="#3b3a3c" font-family="Verdana">VLAN 007</text>
  </g>
  <g>
    <polygon points="205.867 358.522 214.906 353.86 205.867 349.198 167.572 349.198 167.572 358.522 205.867 358.522" fill="#f8f0ac" stroke="#262626" stroke-linecap="round" stroke-linejoin="bevel" stroke-width="0.75"/>
    <text transform="translate(170.891 356.522)" font-size="7.003" fill="#3b3a3c" font-family="Verdana">VLAN 010</text>
  </g>
  <rect x="113.247" y="379.472" width="52.448" height="9.46" fill="#fff" stroke="#262626" stroke-linecap="round" stroke-linejoin="bevel" stroke-width="0.75"/>
  <text transform="translate(116.097 386.359)" font-size="7.003" fill="#3b3a3c" font-family="Verdana">eth4 100GbE</text>
  <rect x="113.247" y="391.043" width="52.448" height="9.46" fill="#fff" stroke="#262626" stroke-linecap="round" stroke-linejoin="bevel" stroke-width="0.75"/>
  <text transform="translate(116.097 397.931)" font-size="7.003" fill="#3b3a3c" font-family="Verdana">eth5 100GbE</text>
  <g>
    <polygon points="205.867 234.1 214.906 229.438 205.867 224.777 167.572 224.777 167.572 234.1 205.867 234.1" fill="#97b8e0" stroke="#262626" stroke-linecap="round" stroke-linejoin="bevel" stroke-width="0.75"/>
    <text transform="translate(170.891 232.1)" font-size="7.003" fill="#3b3a3c" font-family="Verdana">HSN</text>
  </g>
  <g>
    <polygon points="205.867 246.004 214.906 241.342 205.867 236.68 167.572 236.68 167.572 246.004 205.867 246.004" fill="#97b8e0" stroke="#262626" stroke-linecap="round" stroke-linejoin="bevel" stroke-width="0.75"/>
    <text transform="translate(170.891 244.003)" font-size="7.003" fill="#3b3a3c" font-family="Verdana">HSN</text>
  </g>
  <g>
    <polygon points="205.867 388.829 214.906 384.167 205.867 379.505 167.572 379.505 167.572 388.829 205.867 388.829" fill="#97b8e0" stroke="#262626" stroke-linecap="round" stroke-linejoin="bevel" stroke-width="0.75"/>
    <text transform="translate(170.891 386.829)" font-size="7.003" fill="#3b3a3c" font-family="Verdana">HSN</text>
  </g>
  <g>
    <polygon points="205.867 400.332 214.906 395.671 205.867 391.009 167.572 391.009 167.572 400.332 205.867 400.332" fill="#97b8e0" stroke="#262626" stroke-linecap="round" stroke-linejoin="bevel" stroke-width="0.75"/>
    <text transform="translate(170.891 398.332)" font-size="7.003" fill="#3b3a3c" font-family="Verdana">HSN</text>
  </g>
  <g>
    <polyline points="305.87 522.765 305.87 549.712 435.692 549.712 435.692 460.99" fill="none" stroke="#3b3a3c" stroke-linecap="round" stroke-linejoin="bevel" stroke-width="3"/>
    <polyline points="305.87 522.765 305.87 549.712 435.692 549.712 435.692 460.99" fill="none" stroke="#d2b3d4" stroke-linecap="round" stroke-linejoin="bevel" stroke-width="2"/>
  </g>
  <path d="M461.665,105.153c2.209-2.909-.607-7.156-6.29-9.485a20.028,20.028,0,0,0-5.322-1.365c-1.509-1.706-5.026-2.9-9.125-2.9-3.776,0-7.057,1.016-8.731,2.51a18.36,18.36,0,0,0-5.274-.736c-5.1,0-9.293,1.851-9.847,4.231-2.981.962-4.929,2.844-5.065,4.745-2.369.041-4.269.642-5.151,1.8-.813,1.071-.614,2.435.36,3.82-2.217.875-3.632,2.2-3.632,3.688,0,2,2.555,3.7,6.176,4.414a2.433,2.433,0,0,0-.2.952c0,2.633,4.439,4.768,9.914,4.768a14.892,14.892,0,0,0,8.165-2.066,7.225,7.225,0,0,0,3.82,3.264c3.955,1.621,8.88.686,11.164-2.071a5.881,5.881,0,0,0,2.452,1.818c4.048,1.659,9.865-.336,12.993-4.457a8.1,8.1,0,0,0,1.817-6.342,6.5,6.5,0,0,0,1.288-1.255,4.588,4.588,0,0,0,.382-5.216C461.593,105.23,461.634,105.194,461.665,105.153Z" fill="#fff" stroke="#545456" stroke-linecap="round" stroke-linejoin="bevel" stroke-width="2"/>
  <text transform="translate(418.004 105.933)" font-size="7.003" fill="#3b3a3c" font-family="Verdana">Customer<tspan x="2.334" y="8.404">Network</tspan></text>
  <path d="M411.133,460.017c-1.892,3.385.521,8.327,5.39,11.037a13.664,13.664,0,0,0,4.56,1.589c1.293,1.985,4.307,3.378,7.818,3.378,3.235,0,6.047-1.182,7.481-2.92a11.938,11.938,0,0,0,4.519.856c4.368,0,7.962-2.154,8.437-4.924a6.8,6.8,0,0,0,4.34-5.521c2.03-.049,3.658-.747,4.413-2.1a4.662,4.662,0,0,0-.308-4.446c1.9-1.017,3.112-2.562,3.112-4.291,0-2.324-2.189-4.311-5.292-5.137a3.7,3.7,0,0,0,.171-1.109c0-3.064-3.8-5.548-8.494-5.548a10.3,10.3,0,0,0-7,2.4,7.243,7.243,0,0,0-3.274-3.8,7.124,7.124,0,0,0-9.566,2.41,5.506,5.506,0,0,0-2.1-2.115c-3.468-1.931-8.453.391-11.133,5.186a11.962,11.962,0,0,0-1.557,7.38,6.863,6.863,0,0,0-1.1,1.461,6.937,6.937,0,0,0-.328,6.07C411.2,459.927,411.16,459.969,411.133,460.017Z" fill="#fff" stroke="#545456" stroke-linecap="round" stroke-linejoin="bevel" stroke-width="2"/>
  <text transform="translate(425.035 454.677)" font-size="7.003" fill="#3b3a3c" font-family="Verdana">User<tspan x="-6.773" y="8.404">Services</tspan></text>
  <g>
    <ellipse cx="302.574" cy="528.943" rx="15.433" ry="14.9" fill="#fff" stroke="#4d4d4f" stroke-linecap="round" stroke-linejoin="bevel" stroke-width="0.75"/>
    <rect x="290.166" y="525.243" width="4.578" height="6.783" fill="#626366"/>
    <g>
      <rect x="303.393" y="516.914" width="4.578" height="6.783" fill="#626366"/>
      <rect x="303.393" y="525.243" width="4.578" height="6.783" fill="#626366"/>
      <rect x="303.393" y="533.573" width="4.578" height="6.783" fill="#626366"/>
    </g>
    <g>
      <polygon points="293.833 527.5 293.414 526.908 301.424 521.224 301.843 521.815 293.833 527.5" fill="#626366"/>
      <polygon points="304.137 519.743 301.632 523.688 301.446 521.652 299.586 520.805 304.137 519.743" fill="#626366"/>
    </g>
    <g>
      <polygon points="301.424 535.776 293.414 530.092 293.833 529.5 301.843 535.184 301.424 535.776" fill="#626366"/>
      <polygon points="304.137 537.257 299.586 536.195 301.446 535.347 301.632 533.312 304.137 537.257" fill="#626366"/>
    </g>
    <g>
      <rect x="293.624" y="528.028" width="6.699" height="0.725" fill="#626366"/>
      <polygon points="303.393 528.391 299.067 530.158 300.093 528.391 299.067 526.623 303.393 528.391" fill="#626366"/>
    </g>
  </g>
  <text transform="translate(321.46 541.704)" font-size="8" fill="#3b3a3c" font-family="Verdana">Load Balancer</text>
  <g>
    <line x1="58.339" y1="448.92" x2="96.169" y2="448.92" fill="none" stroke="#3b3a3c" stroke-linecap="round" stroke-linejoin="bevel" stroke-width="3"/>
    <line x1="58.339" y1="448.92" x2="96.169" y2="448.92" fill="none" stroke="#00a551" stroke-linecap="round" stroke-linejoin="bevel" stroke-width="2"/>
  </g>
  <g>
    <line x1="58.339" y1="461.111" x2="96.169" y2="461.111" fill="none" stroke="#3b3a3c" stroke-linecap="round" stroke-linejoin="bevel" stroke-width="3"/>
    <line x1="58.339" y1="461.111" x2="96.169" y2="461.111" fill="none" stroke="#d1ecf6" stroke-linecap="round" stroke-linejoin="bevel" stroke-width="2"/>
  </g>
  <g>
    <line x1="58.339" y1="473.303" x2="96.169" y2="473.303" fill="none" stroke="#3b3a3c" stroke-linecap="round" stroke-linejoin="bevel" stroke-width="3"/>
    <line x1="58.339" y1="473.303" x2="96.169" y2="473.303" fill="none" stroke="#d2b3d4" stroke-linecap="round" stroke-linejoin="bevel" stroke-width="2"/>
  </g>
  <g>
    <line x1="58.339" y1="485.495" x2="96.169" y2="485.495" fill="none" stroke="#3b3a3c" stroke-linecap="round" stroke-linejoin="bevel" stroke-width="3"/>
    <line x1="58.339" y1="485.495" x2="96.169" y2="485.495" fill="none" stroke="#f8f0ac" stroke-linecap="round" stroke-linejoin="bevel" stroke-width="2"/>
  </g>
  <g>
    <line x1="58.339" y1="498.84" x2="96.169" y2="498.84" fill="none" stroke="#3b3a3c" stroke-linecap="round" stroke-linejoin="bevel" stroke-width="3"/>
    <line x1="58.339" y1="498.84" x2="96.169" y2="498.84" fill="none" stroke="#97b8e0" stroke-linecap="round" stroke-linejoin="bevel" stroke-width="2"/>
  </g>
  <g>
    <line x1="58.339" y1="512.185" x2="96.169" y2="512.185" fill="none" stroke="#3b3a3c" stroke-linecap="round" stroke-linejoin="bevel" stroke-width="3"/>
    <line x1="58.339" y1="512.185" x2="96.169" y2="512.185" fill="none" stroke="#b9c5c2" stroke-linecap="round" stroke-linejoin="bevel" stroke-width="2"/>
  </g>
</svg>
