<svg id="Layer_2" data-name="Layer 2" xmlns="http://www.w3.org/2000/svg" width="6.188in" height="1.516in" viewBox="0 0 445.562 109.16">
  <path d="M21.329,44.87a2.159,2.159,0,0,1-2.172-2.213V6.065s.519-1.928,1.929-1.928H425.9s2.034.389,2.034,2.034V43.079s-.389,1.794-1.8,1.794H21.409Z" fill="#fafafa" stroke="#1f1f1f" stroke-miterlimit="10" stroke-width="0.75"/>
  <g>
    <g>
      <polygon points="27.107 8.263 28.573 5.802 31.348 5.802 32.919 8.315 31.4 10.829 28.521 10.829 27.107 8.263" fill="#737373" stroke="#1f1f1f" stroke-miterlimit="10" stroke-width="0.25"/>
      <polygon points="27.107 14.795 28.573 12.334 31.348 12.334 32.919 14.847 31.4 17.36 28.521 17.36 27.107 14.795" fill="#737373" stroke="#1f1f1f" stroke-miterlimit="10" stroke-width="0.25"/>
      <polygon points="32.749 11.45 34.215 8.989 36.99 8.989 38.561 11.502 37.042 14.016 34.162 14.016 32.749 11.45" fill="#737373" stroke="#1f1f1f" stroke-miterlimit="10" stroke-width="0.25"/>
      <polygon points="32.749 17.982 34.215 15.521 36.99 15.521 38.561 18.034 37.042 20.547 34.162 20.547 32.749 17.982" fill="#737373" stroke="#1f1f1f" stroke-miterlimit="10" stroke-width="0.25"/>
      <polygon points="27.107 21.327 28.573 18.866 31.348 18.866 32.919 21.379 31.4 23.892 28.521 23.892 27.107 21.327" fill="#737373" stroke="#1f1f1f" stroke-miterlimit="10" stroke-width="0.25"/>
    </g>
    <g>
      <polygon points="38.352 8.263 39.818 5.802 42.593 5.802 44.164 8.315 42.646 10.829 39.766 10.829 38.352 8.263" fill="#737373" stroke="#1f1f1f" stroke-miterlimit="10" stroke-width="0.25"/>
      <polygon points="38.352 14.795 39.818 12.334 42.593 12.334 44.164 14.847 42.646 17.36 39.766 17.36 38.352 14.795" fill="#737373" stroke="#1f1f1f" stroke-miterlimit="10" stroke-width="0.25"/>
      <polygon points="43.994 11.45 45.46 8.989 48.235 8.989 49.806 11.502 48.287 14.016 45.407 14.016 43.994 11.45" fill="#737373" stroke="#1f1f1f" stroke-miterlimit="10" stroke-width="0.25"/>
      <polygon points="43.994 17.982 45.46 15.521 48.235 15.521 49.806 18.034 48.287 20.547 45.407 20.547 43.994 17.982" fill="#737373" stroke="#1f1f1f" stroke-miterlimit="10" stroke-width="0.25"/>
      <polygon points="38.352 21.327 39.818 18.866 42.593 18.866 44.164 21.379 42.646 23.892 39.766 23.892 38.352 21.327" fill="#737373" stroke="#1f1f1f" stroke-miterlimit="10" stroke-width="0.25"/>
    </g>
    <g>
      <polygon points="49.597 8.263 51.063 5.802 53.838 5.802 55.409 8.315 53.891 10.829 51.011 10.829 49.597 8.263" fill="#737373" stroke="#1f1f1f" stroke-miterlimit="10" stroke-width="0.25"/>
      <polygon points="49.597 14.795 51.063 12.334 53.838 12.334 55.409 14.847 53.891 17.36 51.011 17.36 49.597 14.795" fill="#737373" stroke="#1f1f1f" stroke-miterlimit="10" stroke-width="0.25"/>
      <polygon points="55.239 11.45 56.705 8.989 59.48 8.989 61.051 11.502 59.532 14.016 56.652 14.016 55.239 11.45" fill="#737373" stroke="#1f1f1f" stroke-miterlimit="10" stroke-width="0.25"/>
      <polygon points="55.239 17.982 56.705 15.521 59.48 15.521 61.051 18.034 59.532 20.547 56.652 20.547 55.239 17.982" fill="#737373" stroke="#1f1f1f" stroke-miterlimit="10" stroke-width="0.25"/>
      <polygon points="49.597 21.327 51.063 18.866 53.838 18.866 55.409 21.379 53.891 23.892 51.011 23.892 49.597 21.327" fill="#737373" stroke="#1f1f1f" stroke-miterlimit="10" stroke-width="0.25"/>
    </g>
    <g>
      <polygon points="60.842 8.263 62.308 5.802 65.083 5.802 66.654 8.315 65.136 10.829 62.256 10.829 60.842 8.263" fill="#737373" stroke="#1f1f1f" stroke-miterlimit="10" stroke-width="0.25"/>
      <polygon points="60.842 14.795 62.308 12.334 65.083 12.334 66.654 14.847 65.136 17.36 62.256 17.36 60.842 14.795" fill="#737373" stroke="#1f1f1f" stroke-miterlimit="10" stroke-width="0.25"/>
      <polygon points="66.484 11.45 67.95 8.989 70.725 8.989 72.296 11.502 70.777 14.016 67.897 14.016 66.484 11.45" fill="#737373" stroke="#1f1f1f" stroke-miterlimit="10" stroke-width="0.25"/>
      <polygon points="66.484 17.982 67.95 15.521 70.725 15.521 72.296 18.034 70.777 20.547 67.897 20.547 66.484 17.982" fill="#737373" stroke="#1f1f1f" stroke-miterlimit="10" stroke-width="0.25"/>
      <polygon points="60.842 21.327 62.308 18.866 65.083 18.866 66.654 21.379 65.136 23.892 62.256 23.892 60.842 21.327" fill="#737373" stroke="#1f1f1f" stroke-miterlimit="10" stroke-width="0.25"/>
    </g>
    <g>
      <polygon points="72.039 8.263 73.505 5.802 76.28 5.802 77.851 8.315 76.333 10.829 73.453 10.829 72.039 8.263" fill="#737373" stroke="#1f1f1f" stroke-miterlimit="10" stroke-width="0.25"/>
      <polygon points="72.039 14.795 73.505 12.334 76.28 12.334 77.851 14.847 76.333 17.36 73.453 17.36 72.039 14.795" fill="#737373" stroke="#1f1f1f" stroke-miterlimit="10" stroke-width="0.25"/>
      <polygon points="77.681 11.45 79.147 8.989 81.922 8.989 83.493 11.502 81.975 14.016 79.095 14.016 77.681 11.45" fill="#737373" stroke="#1f1f1f" stroke-miterlimit="10" stroke-width="0.25"/>
      <polygon points="77.681 17.982 79.147 15.521 81.922 15.521 83.493 18.034 81.975 20.547 79.095 20.547 77.681 17.982" fill="#737373" stroke="#1f1f1f" stroke-miterlimit="10" stroke-width="0.25"/>
      <polygon points="72.039 21.327 73.505 18.866 76.28 18.866 77.851 21.379 76.333 23.892 73.453 23.892 72.039 21.327" fill="#737373" stroke="#1f1f1f" stroke-miterlimit="10" stroke-width="0.25"/>
    </g>
    <g>
      <polygon points="83.284 8.263 84.75 5.802 87.526 5.802 89.096 8.315 87.578 10.829 84.698 10.829 83.284 8.263" fill="#737373" stroke="#1f1f1f" stroke-miterlimit="10" stroke-width="0.25"/>
      <polygon points="83.284 14.795 84.75 12.334 87.526 12.334 89.096 14.847 87.578 17.36 84.698 17.36 83.284 14.795" fill="#737373" stroke="#1f1f1f" stroke-miterlimit="10" stroke-width="0.25"/>
      <polygon points="88.926 11.45 90.392 8.989 93.167 8.989 94.738 11.502 93.22 14.016 90.34 14.016 88.926 11.45" fill="#737373" stroke="#1f1f1f" stroke-miterlimit="10" stroke-width="0.25"/>
      <polygon points="88.926 17.982 90.392 15.521 93.167 15.521 94.738 18.034 93.22 20.547 90.34 20.547 88.926 17.982" fill="#737373" stroke="#1f1f1f" stroke-miterlimit="10" stroke-width="0.25"/>
      <polygon points="83.284 21.327 84.75 18.866 87.526 18.866 89.096 21.379 87.578 23.892 84.698 23.892 83.284 21.327" fill="#737373" stroke="#1f1f1f" stroke-miterlimit="10" stroke-width="0.25"/>
    </g>
    <g>
      <polygon points="94.529 8.263 95.995 5.802 98.771 5.802 100.341 8.315 98.823 10.829 95.943 10.829 94.529 8.263" fill="#737373" stroke="#1f1f1f" stroke-miterlimit="10" stroke-width="0.25"/>
      <polygon points="94.529 14.795 95.995 12.334 98.771 12.334 100.341 14.847 98.823 17.36 95.943 17.36 94.529 14.795" fill="#737373" stroke="#1f1f1f" stroke-miterlimit="10" stroke-width="0.25"/>
      <polygon points="100.171 11.45 101.637 8.989 104.412 8.989 105.983 11.502 104.465 14.016 101.585 14.016 100.171 11.45" fill="#737373" stroke="#1f1f1f" stroke-miterlimit="10" stroke-width="0.25"/>
      <polygon points="100.171 17.982 101.637 15.521 104.412 15.521 105.983 18.034 104.465 20.547 101.585 20.547 100.171 17.982" fill="#737373" stroke="#1f1f1f" stroke-miterlimit="10" stroke-width="0.25"/>
      <polygon points="94.529 21.327 95.995 18.866 98.771 18.866 100.341 21.379 98.823 23.892 95.943 23.892 94.529 21.327" fill="#737373" stroke="#1f1f1f" stroke-miterlimit="10" stroke-width="0.25"/>
    </g>
    <g>
      <polygon points="105.774 8.263 107.241 5.802 110.016 5.802 111.587 8.315 110.068 10.829 107.188 10.829 105.774 8.263" fill="#737373" stroke="#1f1f1f" stroke-miterlimit="10" stroke-width="0.25"/>
      <polygon points="105.774 14.795 107.241 12.334 110.016 12.334 111.587 14.847 110.068 17.36 107.188 17.36 105.774 14.795" fill="#737373" stroke="#1f1f1f" stroke-miterlimit="10" stroke-width="0.25"/>
      <polygon points="111.416 11.45 112.882 8.989 115.657 8.989 117.228 11.502 115.71 14.016 112.83 14.016 111.416 11.45" fill="#737373" stroke="#1f1f1f" stroke-miterlimit="10" stroke-width="0.25"/>
      <polygon points="111.416 17.982 112.882 15.521 115.657 15.521 117.228 18.034 115.71 20.547 112.83 20.547 111.416 17.982" fill="#737373" stroke="#1f1f1f" stroke-miterlimit="10" stroke-width="0.25"/>
      <polygon points="105.774 21.327 107.241 18.866 110.016 18.866 111.587 21.379 110.068 23.892 107.188 23.892 105.774 21.327" fill="#737373" stroke="#1f1f1f" stroke-miterlimit="10" stroke-width="0.25"/>
    </g>
    <g>
      <polygon points="116.828 8.263 118.294 5.802 121.069 5.802 122.64 8.315 121.122 10.829 118.242 10.829 116.828 8.263" fill="#737373" stroke="#1f1f1f" stroke-miterlimit="10" stroke-width="0.25"/>
      <polygon points="116.828 14.795 118.294 12.334 121.069 12.334 122.64 14.847 121.122 17.36 118.242 17.36 116.828 14.795" fill="#737373" stroke="#1f1f1f" stroke-miterlimit="10" stroke-width="0.25"/>
      <polygon points="122.47 11.45 123.936 8.989 126.711 8.989 128.282 11.502 126.763 14.016 123.884 14.016 122.47 11.45" fill="#737373" stroke="#1f1f1f" stroke-miterlimit="10" stroke-width="0.25"/>
      <polygon points="122.47 17.982 123.936 15.521 126.711 15.521 128.282 18.034 126.763 20.547 123.884 20.547 122.47 17.982" fill="#737373" stroke="#1f1f1f" stroke-miterlimit="10" stroke-width="0.25"/>
      <polygon points="116.828 21.327 118.294 18.866 121.069 18.866 122.64 21.379 121.122 23.892 118.242 23.892 116.828 21.327" fill="#737373" stroke="#1f1f1f" stroke-miterlimit="10" stroke-width="0.25"/>
    </g>
    <g>
      <polygon points="128.073 8.263 129.539 5.802 132.314 5.802 133.885 8.315 132.367 10.829 129.487 10.829 128.073 8.263" fill="#737373" stroke="#1f1f1f" stroke-miterlimit="10" stroke-width="0.25"/>
      <polygon points="128.073 14.795 129.539 12.334 132.314 12.334 133.885 14.847 132.367 17.36 129.487 17.36 128.073 14.795" fill="#737373" stroke="#1f1f1f" stroke-miterlimit="10" stroke-width="0.25"/>
      <polygon points="133.715 11.45 135.181 8.989 137.956 8.989 139.527 11.502 138.008 14.016 135.129 14.016 133.715 11.45" fill="#737373" stroke="#1f1f1f" stroke-miterlimit="10" stroke-width="0.25"/>
      <polygon points="133.715 17.982 135.181 15.521 137.956 15.521 139.527 18.034 138.008 20.547 135.129 20.547 133.715 17.982" fill="#737373" stroke="#1f1f1f" stroke-miterlimit="10" stroke-width="0.25"/>
      <polygon points="128.073 21.327 129.539 18.866 132.314 18.866 133.885 21.379 132.367 23.892 129.487 23.892 128.073 21.327" fill="#737373" stroke="#1f1f1f" stroke-miterlimit="10" stroke-width="0.25"/>
    </g>
    <g>
      <polygon points="139.318 8.263 140.784 5.802 143.559 5.802 145.13 8.315 143.612 10.829 140.732 10.829 139.318 8.263" fill="#737373" stroke="#1f1f1f" stroke-miterlimit="10" stroke-width="0.25"/>
      <polygon points="139.318 14.795 140.784 12.334 143.559 12.334 145.13 14.847 143.612 17.36 140.732 17.36 139.318 14.795" fill="#737373" stroke="#1f1f1f" stroke-miterlimit="10" stroke-width="0.25"/>
      <polygon points="144.96 11.45 146.426 8.989 149.201 8.989 150.772 11.502 149.253 14.016 146.374 14.016 144.96 11.45" fill="#737373" stroke="#1f1f1f" stroke-miterlimit="10" stroke-width="0.25"/>
      <polygon points="144.96 17.982 146.426 15.521 149.201 15.521 150.772 18.034 149.253 20.547 146.374 20.547 144.96 17.982" fill="#737373" stroke="#1f1f1f" stroke-miterlimit="10" stroke-width="0.25"/>
      <polygon points="139.318 21.327 140.784 18.866 143.559 18.866 145.13 21.379 143.612 23.892 140.732 23.892 139.318 21.327" fill="#737373" stroke="#1f1f1f" stroke-miterlimit="10" stroke-width="0.25"/>
    </g>
    <g>
      <polygon points="150.563 8.263 152.029 5.802 154.805 5.802 156.375 8.315 154.857 10.829 151.977 10.829 150.563 8.263" fill="#737373" stroke="#1f1f1f" stroke-miterlimit="10" stroke-width="0.25"/>
      <polygon points="150.563 14.795 152.029 12.334 154.805 12.334 156.375 14.847 154.857 17.36 151.977 17.36 150.563 14.795" fill="#737373" stroke="#1f1f1f" stroke-miterlimit="10" stroke-width="0.25"/>
      <polygon points="156.205 11.45 157.671 8.989 160.446 8.989 162.017 11.502 160.499 14.016 157.619 14.016 156.205 11.45" fill="#737373" stroke="#1f1f1f" stroke-miterlimit="10" stroke-width="0.25"/>
      <polygon points="156.205 17.982 157.671 15.521 160.446 15.521 162.017 18.034 160.499 20.547 157.619 20.547 156.205 17.982" fill="#737373" stroke="#1f1f1f" stroke-miterlimit="10" stroke-width="0.25"/>
      <polygon points="150.563 21.327 152.029 18.866 154.805 18.866 156.375 21.379 154.857 23.892 151.977 23.892 150.563 21.327" fill="#737373" stroke="#1f1f1f" stroke-miterlimit="10" stroke-width="0.25"/>
    </g>
    <g>
      <polygon points="161.904 8.263 163.37 5.802 166.145 5.802 167.716 8.315 166.198 10.829 163.318 10.829 161.904 8.263" fill="#737373" stroke="#1f1f1f" stroke-miterlimit="10" stroke-width="0.25"/>
      <polygon points="161.904 14.795 163.37 12.334 166.145 12.334 167.716 14.847 166.198 17.36 163.318 17.36 161.904 14.795" fill="#737373" stroke="#1f1f1f" stroke-miterlimit="10" stroke-width="0.25"/>
      <polygon points="167.546 11.45 169.012 8.989 171.787 8.989 173.358 11.502 171.839 14.016 168.959 14.016 167.546 11.45" fill="#737373" stroke="#1f1f1f" stroke-miterlimit="10" stroke-width="0.25"/>
      <polygon points="167.546 17.982 169.012 15.521 171.787 15.521 173.358 18.034 171.839 20.547 168.959 20.547 167.546 17.982" fill="#737373" stroke="#1f1f1f" stroke-miterlimit="10" stroke-width="0.25"/>
      <polygon points="161.904 21.327 163.37 18.866 166.145 18.866 167.716 21.379 166.198 23.892 163.318 23.892 161.904 21.327" fill="#737373" stroke="#1f1f1f" stroke-miterlimit="10" stroke-width="0.25"/>
    </g>
    <g>
      <polygon points="173.149 8.263 174.615 5.802 177.39 5.802 178.961 8.315 177.443 10.829 174.563 10.829 173.149 8.263" fill="#737373" stroke="#1f1f1f" stroke-miterlimit="10" stroke-width="0.25"/>
      <polygon points="173.149 14.795 174.615 12.334 177.39 12.334 178.961 14.847 177.443 17.36 174.563 17.36 173.149 14.795" fill="#737373" stroke="#1f1f1f" stroke-miterlimit="10" stroke-width="0.25"/>
      <polygon points="178.791 11.45 180.257 8.989 183.032 8.989 184.603 11.502 183.084 14.016 180.205 14.016 178.791 11.45" fill="#737373" stroke="#1f1f1f" stroke-miterlimit="10" stroke-width="0.25"/>
      <polygon points="178.791 17.982 180.257 15.521 183.032 15.521 184.603 18.034 183.084 20.547 180.205 20.547 178.791 17.982" fill="#737373" stroke="#1f1f1f" stroke-miterlimit="10" stroke-width="0.25"/>
      <polygon points="173.149 21.327 174.615 18.866 177.39 18.866 178.961 21.379 177.443 23.892 174.563 23.892 173.149 21.327" fill="#737373" stroke="#1f1f1f" stroke-miterlimit="10" stroke-width="0.25"/>
    </g>
    <g>
      <polygon points="184.394 8.263 185.86 5.802 188.635 5.802 190.206 8.315 188.688 10.829 185.808 10.829 184.394 8.263" fill="#737373" stroke="#1f1f1f" stroke-miterlimit="10" stroke-width="0.25"/>
      <polygon points="184.394 14.795 185.86 12.334 188.635 12.334 190.206 14.847 188.688 17.36 185.808 17.36 184.394 14.795" fill="#737373" stroke="#1f1f1f" stroke-miterlimit="10" stroke-width="0.25"/>
      <polygon points="190.036 11.45 191.502 8.989 194.277 8.989 195.848 11.502 194.329 14.016 191.45 14.016 190.036 11.45" fill="#737373" stroke="#1f1f1f" stroke-miterlimit="10" stroke-width="0.25"/>
      <polygon points="190.036 17.982 191.502 15.521 194.277 15.521 195.848 18.034 194.329 20.547 191.45 20.547 190.036 17.982" fill="#737373" stroke="#1f1f1f" stroke-miterlimit="10" stroke-width="0.25"/>
      <polygon points="184.394 21.327 185.86 18.866 188.635 18.866 190.206 21.379 188.688 23.892 185.808 23.892 184.394 21.327" fill="#737373" stroke="#1f1f1f" stroke-miterlimit="10" stroke-width="0.25"/>
    </g>
    <g>
      <polygon points="195.639 8.263 197.105 5.802 199.88 5.802 201.451 8.315 199.933 10.829 197.053 10.829 195.639 8.263" fill="#737373" stroke="#1f1f1f" stroke-miterlimit="10" stroke-width="0.25"/>
      <polygon points="195.639 14.795 197.105 12.334 199.88 12.334 201.451 14.847 199.933 17.36 197.053 17.36 195.639 14.795" fill="#737373" stroke="#1f1f1f" stroke-miterlimit="10" stroke-width="0.25"/>
      <polygon points="201.281 11.45 202.747 8.989 205.522 8.989 207.093 11.502 205.575 14.016 202.695 14.016 201.281 11.45" fill="#737373" stroke="#1f1f1f" stroke-miterlimit="10" stroke-width="0.25"/>
      <polygon points="201.281 17.808 202.747 15.347 205.522 15.347 207.093 17.86 205.575 20.373 202.695 20.373 201.281 17.808" fill="#737373" stroke="#1f1f1f" stroke-miterlimit="10" stroke-width="0.25"/>
      <polygon points="195.639 21.327 197.105 18.866 199.88 18.866 201.451 21.379 199.933 23.892 197.053 23.892 195.639 21.327" fill="#737373" stroke="#1f1f1f" stroke-miterlimit="10" stroke-width="0.25"/>
    </g>
    <g>
      <polygon points="206.693 8.263 208.159 5.802 210.934 5.802 212.505 8.315 210.986 10.829 208.107 10.829 206.693 8.263" fill="#737373" stroke="#1f1f1f" stroke-miterlimit="10" stroke-width="0.25"/>
      <polygon points="206.693 14.795 208.159 12.334 210.934 12.334 212.505 14.847 210.986 17.36 208.107 17.36 206.693 14.795" fill="#737373" stroke="#1f1f1f" stroke-miterlimit="10" stroke-width="0.25"/>
      <polygon points="212.335 11.45 213.801 8.989 216.576 8.989 218.147 11.502 216.628 14.016 213.748 14.016 212.335 11.45" fill="#737373" stroke="#1f1f1f" stroke-miterlimit="10" stroke-width="0.25"/>
    </g>
    <g>
      <polygon points="217.938 8.263 219.404 5.802 222.179 5.802 223.75 8.315 222.232 10.829 219.352 10.829 217.938 8.263" fill="#737373" stroke="#1f1f1f" stroke-miterlimit="10" stroke-width="0.25"/>
      <polygon points="217.938 14.795 219.404 12.334 222.179 12.334 223.75 14.847 222.232 17.36 219.352 17.36 217.938 14.795" fill="#737373" stroke="#1f1f1f" stroke-miterlimit="10" stroke-width="0.25"/>
      <polygon points="223.58 11.45 225.046 8.989 227.821 8.989 229.392 11.502 227.873 14.016 224.993 14.016 223.58 11.45" fill="#737373" stroke="#1f1f1f" stroke-miterlimit="10" stroke-width="0.25"/>
    </g>
    <g>
      <polygon points="229.183 8.263 230.649 5.802 233.424 5.802 234.995 8.315 233.477 10.829 230.597 10.829 229.183 8.263" fill="#737373" stroke="#1f1f1f" stroke-miterlimit="10" stroke-width="0.25"/>
      <polygon points="229.183 14.795 230.649 12.334 233.424 12.334 234.995 14.847 233.477 17.36 230.597 17.36 229.183 14.795" fill="#737373" stroke="#1f1f1f" stroke-miterlimit="10" stroke-width="0.25"/>
      <polygon points="234.825 11.45 236.291 8.989 239.066 8.989 240.637 11.502 239.118 14.016 236.238 14.016 234.825 11.45" fill="#737373" stroke="#1f1f1f" stroke-miterlimit="10" stroke-width="0.25"/>
      <polygon points="234.825 17.982 236.291 15.521 239.066 15.521 240.637 18.034 239.118 20.547 236.238 20.547 234.825 17.982" fill="#737373" stroke="#1f1f1f" stroke-miterlimit="10" stroke-width="0.25"/>
    </g>
    <g>
      <polygon points="240.428 8.263 241.894 5.802 244.669 5.802 246.24 8.315 244.722 10.829 241.842 10.829 240.428 8.263" fill="#737373" stroke="#1f1f1f" stroke-miterlimit="10" stroke-width="0.25"/>
      <polygon points="240.428 14.795 241.894 12.334 244.669 12.334 246.24 14.847 244.722 17.36 241.842 17.36 240.428 14.795" fill="#737373" stroke="#1f1f1f" stroke-miterlimit="10" stroke-width="0.25"/>
      <polygon points="246.07 11.45 247.536 8.989 250.311 8.989 251.882 11.502 250.363 14.016 247.483 14.016 246.07 11.45" fill="#737373" stroke="#1f1f1f" stroke-miterlimit="10" stroke-width="0.25"/>
      <polygon points="246.07 17.982 247.536 15.521 250.311 15.521 251.882 18.034 250.363 20.547 247.483 20.547 246.07 17.982" fill="#737373" stroke="#1f1f1f" stroke-miterlimit="10" stroke-width="0.25"/>
      <polygon points="257.419 17.982 258.885 15.521 261.66 15.521 263.231 18.034 261.713 20.547 258.833 20.547 257.419 17.982" fill="#737373" stroke="#1f1f1f" stroke-miterlimit="10" stroke-width="0.25"/>
      <polygon points="251.754 8.263 253.221 5.802 255.996 5.802 257.567 8.315 256.048 10.829 253.168 10.829 251.754 8.263" fill="#737373" stroke="#1f1f1f" stroke-miterlimit="10" stroke-width="0.25"/>
      <polygon points="257.325 11.522 258.791 9.061 261.566 9.061 263.137 11.574 261.619 14.087 258.739 14.087 257.325 11.522" fill="#737373" stroke="#1f1f1f" stroke-miterlimit="10" stroke-width="0.25"/>
      <polygon points="251.754 14.795 253.221 12.334 255.996 12.334 257.567 14.847 256.048 17.36 253.168 17.36 251.754 14.795" fill="#737373" stroke="#1f1f1f" stroke-miterlimit="10" stroke-width="0.25"/>
    </g>
  </g>
  <g>
    <path d="M32.223,34.79a1.086,1.086,0,0,1,0-2.172h1.6V31.48H66.562v1.138h1.293a1.086,1.086,0,0,1,0,2.172H66.614v1.241H33.775V34.79Z" fill="#4b4b4b" stroke="#1f1f1f" stroke-miterlimit="10" stroke-width="0.25"/>
    <g>
      <path d="M45.458,28.794l.64.2a1.44,1.44,0,0,1-.489.8,1.542,1.542,0,0,1-1.941-.185,1.7,1.7,0,0,1-.42-1.218,1.789,1.789,0,0,1,.422-1.269,1.444,1.444,0,0,1,1.109-.452,1.36,1.36,0,0,1,.976.355,1.292,1.292,0,0,1,.335.6l-.655.157a.675.675,0,0,0-.689-.549.747.747,0,0,0-.591.261,1.28,1.28,0,0,0-.226.846,1.374,1.374,0,0,0,.223.884.726.726,0,0,0,.58.263.667.667,0,0,0,.454-.167A.979.979,0,0,0,45.458,28.794Z" fill="#141414"/>
      <path d="M46.656,30V26.724h.989l.594,2.233.587-2.233h.991V30H49.2V27.421L48.554,30h-.636l-.648-2.576V30Z" fill="#141414"/>
      <path d="M50.465,30V26.724h.989l.593,2.233.587-2.233h.991V30h-.613V27.421L52.362,30h-.636l-.648-2.576V30Z" fill="#141414"/>
      <path d="M56.474,26.711a.891.891,0,0,1,.743.34,2.16,2.16,0,0,1,.319,1.332,2.174,2.174,0,0,1-.321,1.335.893.893,0,0,1-.741.335.938.938,0,0,1-.77-.367,2.171,2.171,0,0,1-.293-1.309,2.157,2.157,0,0,1,.322-1.331A.893.893,0,0,1,56.474,26.711Zm0,.521a.308.308,0,0,0-.2.072.484.484,0,0,0-.139.26,3.588,3.588,0,0,0-.065.819,3.517,3.517,0,0,0,.059.791.546.546,0,0,0,.146.287.319.319,0,0,0,.405,0,.484.484,0,0,0,.138-.26,3.5,3.5,0,0,0,.065-.817,3.534,3.534,0,0,0-.058-.791.562.562,0,0,0-.146-.288A.305.305,0,0,0,56.474,27.232Z" fill="#141414"/>
    </g>
  </g>
  <g>
    <path d="M79.6,34.79a1.086,1.086,0,0,1,0-2.172h1.6V31.48h32.736v1.138h1.293a1.086,1.086,0,0,1,0,2.172h-1.242v1.241H81.146V34.79Z" fill="#4b4b4b" stroke="#1f1f1f" stroke-miterlimit="10" stroke-width="0.25"/>
    <g>
      <path d="M92.829,28.794l.641.2a1.442,1.442,0,0,1-.49.8,1.542,1.542,0,0,1-1.941-.185,1.7,1.7,0,0,1-.42-1.218,1.789,1.789,0,0,1,.422-1.269,1.444,1.444,0,0,1,1.11-.452,1.359,1.359,0,0,1,.975.355,1.283,1.283,0,0,1,.335.6l-.654.157a.675.675,0,0,0-.69-.549.745.745,0,0,0-.59.261,1.28,1.28,0,0,0-.227.846,1.373,1.373,0,0,0,.224.884.725.725,0,0,0,.58.263.664.664,0,0,0,.453-.167A.973.973,0,0,0,92.829,28.794Z" fill="#141414"/>
      <path d="M94.028,30V26.724h.989l.593,2.233.587-2.233h.991V30h-.613V27.421L95.925,30h-.636l-.648-2.576V30Z" fill="#141414"/>
      <path d="M97.836,30V26.724h.989l.594,2.233.587-2.233H101V30h-.614V27.421L99.733,30H99.1l-.647-2.576V30Z" fill="#141414"/>
      <path d="M104.39,30h-.627V27.633a2.181,2.181,0,0,1-.811.476v-.57a1.808,1.808,0,0,0,.534-.3,1.155,1.155,0,0,0,.395-.524h.509Z" fill="#141414"/>
    </g>
  </g>
  <g>
    <path d="M126.759,34.79a1.086,1.086,0,0,1,0-2.172h1.6V31.48H161.1v1.138h1.293a1.086,1.086,0,1,1,0,2.172H161.15v1.241H128.311V34.79Z" fill="#4b4b4b" stroke="#1f1f1f" stroke-miterlimit="10" stroke-width="0.25"/>
    <g>
      <path d="M139.994,28.794l.64.2a1.44,1.44,0,0,1-.489.8,1.542,1.542,0,0,1-1.941-.185,1.7,1.7,0,0,1-.42-1.218,1.784,1.784,0,0,1,.422-1.269,1.444,1.444,0,0,1,1.109-.452,1.356,1.356,0,0,1,.975.355,1.275,1.275,0,0,1,.335.6l-.654.157a.688.688,0,0,0-.242-.4.7.7,0,0,0-.447-.147.745.745,0,0,0-.591.261,1.28,1.28,0,0,0-.226.846,1.374,1.374,0,0,0,.223.884.726.726,0,0,0,.58.263.667.667,0,0,0,.454-.167A.979.979,0,0,0,139.994,28.794Z" fill="#141414"/>
      <path d="M141.192,30V26.724h.989l.594,2.233.587-2.233h.991V30h-.614V27.421L143.09,30h-.636l-.648-2.576V30Z" fill="#141414"/>
      <path d="M145,30V26.724h.989l.593,2.233.587-2.233h.991V30h-.613V27.421L146.9,30h-.636l-.648-2.576V30Z" fill="#141414"/>
      <path d="M152.068,29.414V30h-2.2a1.517,1.517,0,0,1,.214-.626,4.189,4.189,0,0,1,.706-.785,4.44,4.44,0,0,0,.52-.536.689.689,0,0,0,.129-.383.437.437,0,0,0-.112-.323.423.423,0,0,0-.312-.112.415.415,0,0,0-.312.118.606.606,0,0,0-.134.393l-.625-.063a1.024,1.024,0,0,1,.35-.743,1.174,1.174,0,0,1,.737-.226,1.061,1.061,0,0,1,.761.262.857.857,0,0,1,.277.649,1.153,1.153,0,0,1-.079.421,1.7,1.7,0,0,1-.252.418,4.112,4.112,0,0,1-.41.418c-.2.181-.324.3-.376.361a1.142,1.142,0,0,0-.129.174Z" fill="#141414"/>
    </g>
  </g>
  <g>
    <path d="M173.82,34.79a1.086,1.086,0,1,1,0-2.172h1.6V31.48h32.736v1.138h1.293a1.086,1.086,0,1,1,0,2.172h-1.241v1.241H175.372V34.79Z" fill="#4b4b4b" stroke="#1f1f1f" stroke-miterlimit="10" stroke-width="0.25"/>
    <g>
      <path d="M187.055,28.794l.64.2a1.44,1.44,0,0,1-.489.8,1.542,1.542,0,0,1-1.941-.185,1.7,1.7,0,0,1-.42-1.218,1.789,1.789,0,0,1,.422-1.269,1.444,1.444,0,0,1,1.109-.452,1.356,1.356,0,0,1,.975.355,1.275,1.275,0,0,1,.335.6l-.654.157a.688.688,0,0,0-.242-.4.7.7,0,0,0-.447-.147.745.745,0,0,0-.591.261,1.28,1.28,0,0,0-.226.846,1.374,1.374,0,0,0,.223.884.726.726,0,0,0,.58.263.667.667,0,0,0,.454-.167A.979.979,0,0,0,187.055,28.794Z" fill="#141414"/>
      <path d="M188.253,30V26.724h.989l.594,2.233.587-2.233h.991V30H190.8V27.421L190.151,30h-.636l-.648-2.576V30Z" fill="#141414"/>
      <path d="M192.062,30V26.724h.989l.593,2.233.587-2.233h.991V30h-.613V27.421L193.959,30h-.636l-.648-2.576V30Z" fill="#141414"/>
      <path d="M196.988,29.129l.607-.074a.578.578,0,0,0,.157.355.441.441,0,0,0,.635-.025.572.572,0,0,0,.133-.4.531.531,0,0,0-.128-.375.406.406,0,0,0-.31-.138,1.064,1.064,0,0,0-.288.047l.069-.512a.55.55,0,0,0,.389-.11.393.393,0,0,0,.133-.311.337.337,0,0,0-.359-.362.375.375,0,0,0-.274.112.526.526,0,0,0-.139.325l-.578-.1a1.286,1.286,0,0,1,.182-.474.81.81,0,0,1,.339-.279,1.137,1.137,0,0,1,.488-.1.971.971,0,0,1,.741.3.746.746,0,0,1-.241,1.232.764.764,0,0,1,.45.27.786.786,0,0,1,.168.507.984.984,0,0,1-.314.734,1.177,1.177,0,0,1-1.521.049A1.01,1.01,0,0,1,196.988,29.129Z" fill="#141414"/>
    </g>
  </g>
  <g>
    <path d="M128.887,39.775l.589.2a1.453,1.453,0,0,1-.45.8,1.211,1.211,0,0,1-.8.26,1.243,1.243,0,0,1-.985-.445,1.794,1.794,0,0,1-.386-1.218,1.89,1.89,0,0,1,.388-1.269,1.278,1.278,0,0,1,1.019-.452,1.2,1.2,0,0,1,.9.355,1.329,1.329,0,0,1,.308.6l-.6.156a.71.71,0,0,0-.223-.4.606.606,0,0,0-.411-.147.662.662,0,0,0-.543.261,1.361,1.361,0,0,0-.208.846,1.461,1.461,0,0,0,.2.884.643.643,0,0,0,.533.263.578.578,0,0,0,.417-.167A1,1,0,0,0,128.887,39.775Z" fill="#141414"/>
    <path d="M132.71,40.979h-.66l-.263-.744h-1.2l-.249.744h-.644l1.171-3.273h.643Zm-1.118-1.3-.415-1.214-.406,1.214Z" fill="#141414"/>
    <path d="M133.035,37.706h1.2a3.271,3.271,0,0,1,.533.032.745.745,0,0,1,.314.136.819.819,0,0,1,.231.273.8.8,0,0,1,.092.383.812.812,0,0,1-.114.422.727.727,0,0,1-.309.288.785.785,0,0,1,.423.3.829.829,0,0,1,.148.493,1.037,1.037,0,0,1-.1.434.851.851,0,0,1-.26.337.815.815,0,0,1-.407.155q-.153.018-.733.023h-1.024Zm.607.545v.756h.4c.236,0,.383,0,.441-.011a.382.382,0,0,0,.245-.117.364.364,0,0,0,.089-.256.379.379,0,0,0-.077-.246.335.335,0,0,0-.229-.115c-.06-.007-.233-.011-.519-.011Zm0,1.3v.875h.563a2.446,2.446,0,0,0,.416-.02.366.366,0,0,0,.221-.131.421.421,0,0,0,.085-.277.458.458,0,0,0-.065-.25.38.38,0,0,0-.19-.15,1.917,1.917,0,0,0-.539-.047Z" fill="#141414"/>
    <path d="M136.049,40.979V37.706h.608v3.273Z" fill="#141414"/>
    <path d="M137.242,40.979V37.706h.591l1.231,2.185V37.706h.564v3.273h-.609l-1.213-2.135v2.135Z" fill="#141414"/>
    <path d="M140.271,40.979V37.706h2.23v.554h-1.623v.725h1.511v.552h-1.511v.89h1.681v.552Z" fill="#141414"/>
    <path d="M143.751,40.979V38.26h-.893v-.554h2.391v.554h-.89v2.719Z" fill="#141414"/>
    <path d="M146.809,40.979V37.706h2.231v.554h-1.624v.725h1.511v.552h-1.511v.89H149.1v.552Z" fill="#141414"/>
    <path d="M149.619,40.979V37.706h.591l1.231,2.185V37.706h.564v3.273H151.4l-1.213-2.135v2.135Z" fill="#141414"/>
    <path d="M153.415,40.979l-1.075-3.273H153l.762,2.422.736-2.422h.645l-1.077,3.273Z" fill="#141414"/>
    <path d="M155.432,40.979V37.706h.608v3.273Z" fill="#141414"/>
    <path d="M156.62,40.979V37.706H157.9a2.023,2.023,0,0,1,.7.088.712.712,0,0,1,.35.314,1.009,1.009,0,0,1,.131.515.855.855,0,0,1-.794.911,1.446,1.446,0,0,1,.325.275,3.731,3.731,0,0,1,.346.531l.367.639H158.6l-.44-.712a4.627,4.627,0,0,0-.32-.482.47.47,0,0,0-.182-.136.948.948,0,0,0-.306-.036h-.123v1.366Zm.608-1.889h.449a2.132,2.132,0,0,0,.546-.04.335.335,0,0,0,.17-.138.458.458,0,0,0,.062-.246.417.417,0,0,0-.081-.267.361.361,0,0,0-.229-.128c-.049-.008-.2-.011-.443-.011h-.474Z" fill="#141414"/>
    <path d="M159.531,39.362a2.236,2.236,0,0,1,.137-.839,1.578,1.578,0,0,1,.28-.449,1.185,1.185,0,0,1,.389-.294,1.529,1.529,0,0,1,.649-.13,1.356,1.356,0,0,1,1.064.449,2.145,2.145,0,0,1,0,2.488,1.49,1.49,0,0,1-2.126,0A1.782,1.782,0,0,1,159.531,39.362Zm.625-.022a1.3,1.3,0,0,0,.236.843.745.745,0,0,0,.6.286.735.735,0,0,0,.6-.284,1.328,1.328,0,0,0,.233-.854,1.3,1.3,0,0,0-.227-.839.794.794,0,0,0-1.208,0A1.315,1.315,0,0,0,160.156,39.34Z" fill="#141414"/>
    <path d="M162.929,40.979V37.706h.591l1.231,2.185V37.706h.564v3.273h-.609l-1.213-2.135v2.135Z" fill="#141414"/>
    <path d="M165.95,40.979V37.706h.909l.546,2.232.54-2.232h.911v3.273h-.564V38.4l-.6,2.577h-.585l-.595-2.577v2.577Z" fill="#141414"/>
    <path d="M169.459,40.979V37.706h2.231v.554h-1.624v.725h1.511v.552h-1.511v.89h1.681v.552Z" fill="#141414"/>
    <path d="M172.268,40.979V37.706h.591l1.232,2.185V37.706h.564v3.273h-.609l-1.213-2.135v2.135Z" fill="#141414"/>
    <path d="M175.975,40.979V38.26h-.893v-.554h2.391v.554h-.891v2.719Z" fill="#141414"/>
    <path d="M180.266,40.979h-.661l-.263-.744h-1.2l-.248.744h-.645l1.172-3.273h.642Zm-1.119-1.3-.414-1.214-.406,1.214Z" fill="#141414"/>
    <path d="M180.6,40.979V37.733h.608v2.694h1.51v.552Z" fill="#141414"/>
    <path d="M186.172,39.775l.589.2a1.453,1.453,0,0,1-.45.8,1.211,1.211,0,0,1-.8.26,1.242,1.242,0,0,1-.985-.445,1.794,1.794,0,0,1-.386-1.218,1.89,1.89,0,0,1,.388-1.269,1.278,1.278,0,0,1,1.019-.452,1.2,1.2,0,0,1,.9.355,1.329,1.329,0,0,1,.308.6l-.6.156a.71.71,0,0,0-.223-.4.606.606,0,0,0-.411-.147.662.662,0,0,0-.543.261,1.361,1.361,0,0,0-.208.846,1.461,1.461,0,0,0,.205.884.643.643,0,0,0,.533.263.578.578,0,0,0,.417-.167A1,1,0,0,0,186.172,39.775Z" fill="#141414"/>
    <path d="M187.159,39.362a2.235,2.235,0,0,1,.138-.839,1.556,1.556,0,0,1,.28-.449,1.175,1.175,0,0,1,.389-.294,1.521,1.521,0,0,1,.648-.13,1.355,1.355,0,0,1,1.064.449,2.148,2.148,0,0,1,0,2.488,1.491,1.491,0,0,1-2.127,0A1.782,1.782,0,0,1,187.159,39.362Zm.626-.022a1.3,1.3,0,0,0,.236.843.744.744,0,0,0,.6.286.733.733,0,0,0,.595-.284,1.322,1.322,0,0,0,.234-.854,1.3,1.3,0,0,0-.227-.839.794.794,0,0,0-1.208,0A1.315,1.315,0,0,0,187.785,39.34Z" fill="#141414"/>
    <path d="M190.557,40.979V37.706h.592l1.231,2.185V37.706h.564v3.273h-.609l-1.213-2.135v2.135Z" fill="#141414"/>
    <path d="M194.264,40.979V38.26h-.893v-.554h2.391v.554h-.891v2.719Z" fill="#141414"/>
    <path d="M196.156,40.979V37.706h1.278a2.015,2.015,0,0,1,.7.088.708.708,0,0,1,.35.314,1,1,0,0,1,.132.515.856.856,0,0,1-.795.911,1.424,1.424,0,0,1,.325.275,3.731,3.731,0,0,1,.346.531l.368.639h-.727l-.439-.712a4.8,4.8,0,0,0-.32-.482.465.465,0,0,0-.183-.136.941.941,0,0,0-.305-.036h-.124v1.366Zm.607-1.889h.45a2.138,2.138,0,0,0,.546-.04.335.335,0,0,0,.17-.138.458.458,0,0,0,.062-.246.417.417,0,0,0-.081-.267.367.367,0,0,0-.229-.128c-.049-.008-.2-.011-.443-.011h-.475Z" fill="#141414"/>
    <path d="M199.066,39.362a2.236,2.236,0,0,1,.137-.839,1.559,1.559,0,0,1,.281-.449,1.172,1.172,0,0,1,.388-.294,1.529,1.529,0,0,1,.649-.13,1.355,1.355,0,0,1,1.064.449,2.145,2.145,0,0,1,0,2.488,1.49,1.49,0,0,1-2.126,0A1.782,1.782,0,0,1,199.066,39.362Zm.626-.022a1.3,1.3,0,0,0,.236.843.742.742,0,0,0,.6.286.735.735,0,0,0,.6-.284,1.328,1.328,0,0,0,.233-.854,1.3,1.3,0,0,0-.227-.839.793.793,0,0,0-1.207,0A1.309,1.309,0,0,0,199.692,39.34Z" fill="#141414"/>
    <path d="M202.475,40.979V37.733h.607v2.694h1.511v.552Z" fill="#141414"/>
  </g>
  <g>
    <path d="M85.9,38.9h5.785a.6.6,0,1,0,0-1.192H85.9a2.034,2.034,0,0,0,0,4.067h5.785a.6.6,0,0,0,0-1.192H85.9a.843.843,0,0,1,0-1.683Z" fill="#fff" stroke="#202020" stroke-width="0.25"/>
    <path d="M120.216,38.3a.6.6,0,0,0-.822-.56l-4.044,1.469-4.044-1.469a.594.594,0,0,0-.22-.042.6.6,0,0,0-.231,1.159l3.9,1.431,0,.888a.589.589,0,0,0,.586.6.6.6,0,0,0,.6-.6l-.011-.888,3.9-1.431A.6.6,0,0,0,120.216,38.3Z" fill="#fff" stroke="#202020" stroke-width="0.25"/>
    <path d="M101.305,39.113a1.437,1.437,0,0,0-1.437-1.437H93.587a.58.58,0,0,0-.595.512L93,41.142a.588.588,0,0,0,.585.6.6.6,0,0,0,.6-.6v-.326h5.153l1.013.721a.6.6,0,0,0,1.057-.395.592.592,0,0,0-.142-.387l-.5-.517A1.433,1.433,0,0,0,101.305,39.113Zm-1.5.506H94.183v-.748H99.8a.374.374,0,1,1,0,.748Z" fill="#fff" stroke="#202020" stroke-width="0.25"/>
    <path d="M106.528,37.778l-4.244,2.929a.6.6,0,1,0,.757.935l1.323-.922h5.751l1.321.928a.6.6,0,1,0,.735-.953l-4.221-2.933A1.4,1.4,0,0,0,106.528,37.778Zm-.859,2.016,1.29-.892a.444.444,0,0,1,.545-.016l1.306.908Z" fill="#fff" stroke="#202020" stroke-width="0.25"/>
  </g>
  <text transform="translate(82.232 76.545)" font-size="9" fill="#141414" font-family="ArialMT, Arial">CEC Sideband Cable<tspan x="0" y="10.8">Connectors CMM 0 - CMM 3</tspan></text>
  <g>
    <line x1="123.605" y1="39.703" x2="123.605" y2="67.422" fill="none" stroke="#fff" stroke-linecap="round" stroke-linejoin="round" stroke-width="3"/>
    <line x1="123.605" y1="39.703" x2="123.605" y2="67.422" fill="none" stroke="#1f1f1f" stroke-linecap="round" stroke-linejoin="round"/>
  </g>
  <g>
    <g>
      <path d="M209.979,22.041V18.87h2.139v.537h-1.556v.7h1.448v.534h-1.448v.863h1.612v.534Z" fill="#141414"/>
      <path d="M213.317,22.041V19.407h-.856V18.87h2.293v.537H213.9v2.634Z" fill="#141414"/>
      <path d="M215.131,22.041V18.87h.583v1.249h1.141V18.87h.583v3.171h-.583V20.655h-1.141v1.386Z" fill="#141414"/>
      <path d="M218.04,22.041V18.87h2.139v.537h-1.556v.7h1.448v.534h-1.448v.863h1.611v.534Z" fill="#141414"/>
      <path d="M220.73,22.041V18.87h1.226a1.922,1.922,0,0,1,.673.086.682.682,0,0,1,.335.3.979.979,0,0,1,.126.5.9.9,0,0,1-.191.59.89.89,0,0,1-.571.293,1.381,1.381,0,0,1,.312.266,3.619,3.619,0,0,1,.332.515l.352.618h-.7l-.421-.69a4.444,4.444,0,0,0-.307-.466.448.448,0,0,0-.175-.132.872.872,0,0,0-.293-.035h-.118v1.323Zm.583-1.83h.431a1.975,1.975,0,0,0,.523-.039.321.321,0,0,0,.164-.133.452.452,0,0,0,.059-.238.4.4,0,0,0-.078-.259.349.349,0,0,0-.219-.124,4.174,4.174,0,0,0-.425-.011h-.455Z" fill="#141414"/>
      <path d="M223.645,22.041V18.87h.567l1.18,2.118V18.87h.541v3.171h-.584l-1.163-2.068v2.068Z" fill="#141414"/>
      <path d="M226.55,22.041V18.87h2.139v.537h-1.557v.7h1.449v.534h-1.449v.863h1.612v.534Z" fill="#141414"/>
      <path d="M229.887,22.041V19.407h-.856V18.87h2.293v.537h-.855v2.634Z" fill="#141414"/>
    </g>
    <g>
      <rect x="214.599" y="22.996" width="11.964" height="12.819" transform="translate(191.175 249.986) rotate(-90)" fill="#333"/>
      <polygon points="223.543 24.422 224.874 24.422 224.874 26.418 227.014 26.418 227.014 35.365 214.171 35.365 214.171 26.418 216.427 26.418 216.427 24.422 217.758 24.422 217.758 23.397 212.69 23.397 212.69 37.125 228.496 37.125 228.496 23.397 223.543 23.397 223.543 24.422" fill="#fff" stroke="#000" stroke-miterlimit="10" stroke-width="0.35" fill-rule="evenodd"/>
      <rect x="226.004" y="23.831" width="1.557" height="2.385" transform="translate(201.759 251.805) rotate(-90)" fill="#f0c219" stroke="#211e1e" stroke-miterlimit="10" stroke-width="0.054"/>
      <rect x="217.705" y="23.452" width="5.766" height="1.51" fill="#676767" stroke="#211e1e" stroke-miterlimit="10" stroke-width="0.35"/>
      <rect x="213.717" y="23.831" width="1.557" height="2.385" transform="translate(189.472 239.519) rotate(-90)" fill="#00a54c" stroke="#211e1e" stroke-miterlimit="10" stroke-width="0.054"/>
      <g>
        <line x1="215.933" y1="35.28" x2="215.933" y2="32.951" fill="none" stroke="#e5ae53" stroke-miterlimit="10" stroke-width="0.401"/>
        <line x1="225.253" y1="35.28" x2="225.253" y2="32.951" fill="none" stroke="#e5ae53" stroke-miterlimit="10" stroke-width="0.401"/>
        <line x1="222.59" y1="35.28" x2="222.59" y2="32.951" fill="none" stroke="#e5ae53" stroke-miterlimit="10" stroke-width="0.401"/>
        <line x1="217.264" y1="35.28" x2="217.264" y2="32.951" fill="none" stroke="#e5ae53" stroke-miterlimit="10" stroke-width="0.401"/>
        <line x1="218.596" y1="35.28" x2="218.596" y2="32.951" fill="none" stroke="#e5ae53" stroke-miterlimit="10" stroke-width="0.401"/>
        <line x1="219.927" y1="35.28" x2="219.927" y2="32.951" fill="none" stroke="#e5ae53" stroke-miterlimit="10" stroke-width="0.401"/>
        <line x1="221.259" y1="35.28" x2="221.259" y2="32.951" fill="none" stroke="#e5ae53" stroke-miterlimit="10" stroke-width="0.401"/>
        <line x1="223.921" y1="35.28" x2="223.921" y2="32.951" fill="none" stroke="#e5ae53" stroke-miterlimit="10" stroke-width="0.401"/>
      </g>
    </g>
    <text transform="translate(205.542 58.731)" font-size="9" fill="#141414" font-family="ArialMT, Arial">Ethernet<tspan x="8.758" y="10.8">Port</tspan></text>
    <g>
      <line x1="220.896" y1="36.301" x2="220.896" y2="50.933" fill="none" stroke="#fff" stroke-linecap="round" stroke-linejoin="round" stroke-width="3"/>
      <line x1="220.896" y1="36.301" x2="220.896" y2="50.933" fill="none" stroke="#1f1f1f" stroke-linecap="round" stroke-linejoin="round"/>
    </g>
  </g>
  <g>
    <g>
      <g>
        <path d="M254.828,27.857l.564.2a1.409,1.409,0,0,1-.432.771,1.153,1.153,0,0,1-.766.252,1.192,1.192,0,0,1-.945-.431,1.76,1.76,0,0,1-.37-1.181,1.843,1.843,0,0,1,.372-1.229,1.221,1.221,0,0,1,.978-.438,1.136,1.136,0,0,1,.86.344,1.279,1.279,0,0,1,.295.584l-.576.151a.693.693,0,0,0-.214-.389.577.577,0,0,0-.394-.143.635.635,0,0,0-.521.253,1.333,1.333,0,0,0-.2.82,1.432,1.432,0,0,0,.2.857.617.617,0,0,0,.512.255.552.552,0,0,0,.4-.162A.981.981,0,0,0,254.828,27.857Z" fill="#141414"/>
        <path d="M255.744,27.991l.567-.06a.788.788,0,0,0,.208.46.591.591,0,0,0,.422.148.61.61,0,0,0,.424-.131.407.407,0,0,0,.143-.307.309.309,0,0,0-.06-.191.472.472,0,0,0-.21-.137q-.1-.039-.466-.139a1.517,1.517,0,0,1-.658-.313.894.894,0,0,1-.14-1.091.8.8,0,0,1,.36-.322,1.338,1.338,0,0,1,.568-.11,1.14,1.14,0,0,1,.817.262.967.967,0,0,1,.289.7l-.583.028a.561.561,0,0,0-.16-.351.551.551,0,0,0-.369-.107.624.624,0,0,0-.4.114.239.239,0,0,0-.092.2.252.252,0,0,0,.086.193,1.46,1.46,0,0,0,.535.212,2.653,2.653,0,0,1,.629.228.843.843,0,0,1,.319.322,1.088,1.088,0,0,1-.022,1.016.859.859,0,0,1-.39.354,1.506,1.506,0,0,1-.628.115,1.171,1.171,0,0,1-.84-.278A1.26,1.26,0,0,1,255.744,27.991Z" fill="#141414"/>
        <path d="M258.583,25.852h1.153a3.137,3.137,0,0,1,.51.031.711.711,0,0,1,.3.131.786.786,0,0,1,.222.265.776.776,0,0,1,.088.371.79.79,0,0,1-.109.409.7.7,0,0,1-.3.279.751.751,0,0,1,.405.288A.808.808,0,0,1,261,28.1a1.015,1.015,0,0,1-.091.42.831.831,0,0,1-.25.327.779.779,0,0,1-.391.15q-.145.018-.7.022h-.981Zm.582.528v.733h.382c.227,0,.368,0,.423-.011a.374.374,0,0,0,.235-.113.356.356,0,0,0,.086-.248.371.371,0,0,0-.074-.239.325.325,0,0,0-.22-.111c-.057-.008-.223-.011-.5-.011Zm0,1.261v.848h.539a2.386,2.386,0,0,0,.4-.02.35.35,0,0,0,.211-.126.411.411,0,0,0,.082-.269.444.444,0,0,0-.063-.243.362.362,0,0,0-.182-.145,1.825,1.825,0,0,0-.517-.045Z" fill="#141414"/>
        <path d="M264.093,29.023h-.634l-.252-.72h-1.153l-.238.72H261.2l1.123-3.171h.617Zm-1.073-1.255-.4-1.176-.39,1.176Z" fill="#141414"/>
      </g>
      <circle cx="242.272" cy="34.004" r="1.522" fill="#fff" stroke="#1f1f1f" stroke-miterlimit="10" stroke-width="0.25"/>
      <circle cx="275.552" cy="34.004" r="1.522" fill="#fff" stroke="#1f1f1f" stroke-miterlimit="10" stroke-width="0.25"/>
    </g>
    <text transform="translate(245.255 75.991)" font-size="9" fill="#141414" font-family="ArialMT, Arial">Cabinet<tspan x="0" y="10.8">Sensors</tspan><tspan x="0" y="21.6">from CSB</tspan><tspan x="39.006" y="21.6" letter-spacing="-0.055em">A</tspan></text>
    <rect x="244.36" y="31.399" width="28.831" height="4.432" rx="1.571" fill="#fff" stroke="#1f1f1f" stroke-miterlimit="10" stroke-width="0.25"/>
    <g>
      <line x1="259.231" y1="39.148" x2="259.231" y2="66.868" fill="none" stroke="#fff" stroke-linecap="round" stroke-linejoin="round" stroke-width="3"/>
      <line x1="259.231" y1="39.148" x2="259.231" y2="66.868" fill="none" stroke="#1f1f1f" stroke-linecap="round" stroke-linejoin="round"/>
    </g>
  </g>
  <g>
    <g>
      <path d="M399.145,7.351a17.016,17.016,0,0,1,0,34.031l-.487,0H383.72a1.225,1.225,0,0,1-1.251-1.25A1.418,1.418,0,0,0,381,38.661H299.319a1.031,1.031,0,0,1-1.17-1.17l0-1.234a1.1,1.1,0,0,0-1.122-1.122h-8.944s-2.612-.513-2.612-2.612V16.318s.32-2.781,2.78-2.781h8.487a1.335,1.335,0,0,0,1.431-1.43v-.982s.256-1.208,1.208-1.208h81.908a1.229,1.229,0,0,0,1.255-1.255,1.208,1.208,0,0,1,1.347-1.305h14.921Z" fill="#828282" stroke="#000" stroke-miterlimit="10" stroke-width="0.75"/>
      <g>
        <rect x="304.798" y="12.165" width="72.929" height="22.169" fill="#b9e5fb" stroke="#b9e5fb" stroke-linecap="round" stroke-linejoin="round" stroke-width="0.25"/>
        <g>
          <circle cx="289.818" cy="16.752" r="1.351" fill="#75bf43" stroke="#221f1f" stroke-miterlimit="10" stroke-width="0.35"/>
          <circle cx="289.818" cy="21.42" r="1.351" fill="#75bf43" stroke="#221f1f" stroke-miterlimit="10" stroke-width="0.35"/>
          <circle cx="289.818" cy="26.087" r="1.351" fill="#75bf43" stroke="#221f1f" stroke-miterlimit="10" stroke-width="0.35"/>
          <circle cx="289.818" cy="30.755" r="1.351" fill="#75bf43" stroke="#221f1f" stroke-miterlimit="10" stroke-width="0.35"/>
        </g>
      </g>
    </g>
    <text transform="translate(293.26 17.821)" font-size="4.173" fill="#141414" font-family="ArialMT, Arial">1</text>
    <text transform="translate(293.26 22.692)" font-size="4.173" fill="#141414" font-family="ArialMT, Arial">2</text>
    <text transform="translate(293.26 27.457)" font-size="4.173" fill="#141414" font-family="ArialMT, Arial">3</text>
    <text transform="translate(293.26 32.168)" font-size="4.173" fill="#141414" font-family="ArialMT, Arial">4</text>
    <g>
      <path d="M309.835,17.163a3.4,3.4,0,0,1-.425.094,2.989,2.989,0,0,1-.429.03,2.359,2.359,0,0,1-.631-.075,1.271,1.271,0,0,1-.463-.222.948.948,0,0,1-.285-.366,1.238,1.238,0,0,1-.1-.508,1.265,1.265,0,0,1,.106-.529,1.087,1.087,0,0,1,.3-.391,1.377,1.377,0,0,1,.479-.243,2.218,2.218,0,0,1,.634-.083c.075,0,.147,0,.213,0s.132.007.2.014.129.015.195.026.134.024.2.041v.44a2.379,2.379,0,0,0-.409-.1,2.233,2.233,0,0,0-.354-.031,1.19,1.19,0,0,0-.4.06.738.738,0,0,0-.275.17.659.659,0,0,0-.157.259,1.02,1.02,0,0,0-.051.33,1.041,1.041,0,0,0,.052.342.618.618,0,0,0,.161.254.707.707,0,0,0,.278.16,1.324,1.324,0,0,0,.4.055,1.51,1.51,0,0,0,.181-.012c.064-.008.13-.018.2-.031s.132-.028.2-.045.125-.035.18-.053Z" fill="#202020"/>
      <path d="M312.106,17.255l-.015-.24a1.6,1.6,0,0,1-.169.113,1.165,1.165,0,0,1-.2.089,1.3,1.3,0,0,1-.231.058,1.671,1.671,0,0,1-.275.021,1.324,1.324,0,0,1-.346-.041.772.772,0,0,1-.25-.115.5.5,0,0,1-.154-.178.522.522,0,0,1-.051-.231.41.41,0,0,1,.077-.239.619.619,0,0,1,.235-.189,1.476,1.476,0,0,1,.394-.124,2.917,2.917,0,0,1,.555-.046h.337v-.11a.291.291,0,0,0-.028-.126.237.237,0,0,0-.09-.1.519.519,0,0,0-.16-.061,1.193,1.193,0,0,0-.243-.021,2.785,2.785,0,0,0-.449.036,3.109,3.109,0,0,0-.428.1v-.351a3.069,3.069,0,0,1,.426-.086,3.539,3.539,0,0,1,.5-.035,2.66,2.66,0,0,1,.491.039,1.1,1.1,0,0,1,.338.116.507.507,0,0,1,.2.194.556.556,0,0,1,.063.271v1.249Zm-.088-.809h-.377a1.4,1.4,0,0,0-.265.022.629.629,0,0,0-.177.06.264.264,0,0,0-.1.087.192.192,0,0,0,.069.275.552.552,0,0,0,.276.059.613.613,0,0,0,.268-.067,1.877,1.877,0,0,0,.306-.191Z" fill="#202020"/>
      <path d="M315.654,16.308a.9.9,0,0,1-.1.436.872.872,0,0,1-.278.3,1.267,1.267,0,0,1-.421.18,2.257,2.257,0,0,1-.529.058,4.254,4.254,0,0,1-.522-.029,4.458,4.458,0,0,1-.461-.081V14.711h.617v.6l-.026.36a1.1,1.1,0,0,1,.326-.205,1.145,1.145,0,0,1,.446-.078,1.173,1.173,0,0,1,.4.065.78.78,0,0,1,.481.475A1.089,1.089,0,0,1,315.654,16.308Zm-.647.018a.946.946,0,0,0-.031-.257.463.463,0,0,0-.087-.175.329.329,0,0,0-.139-.1.527.527,0,0,0-.189-.032.554.554,0,0,0-.3.091,1.89,1.89,0,0,0-.3.244v.8a1.262,1.262,0,0,0,.18.032,1.981,1.981,0,0,0,.219.013.8.8,0,0,0,.267-.043.609.609,0,0,0,.205-.123.531.531,0,0,0,.13-.193A.7.7,0,0,0,315.007,16.326Z" fill="#202020"/>
      <path d="M317.019,15.768h-.725v-.342h1.357v1.487h.741v.342h-2.187v-.342h.814Zm.683-.843a.221.221,0,0,1-.03.112.305.305,0,0,1-.085.091.434.434,0,0,1-.128.061.536.536,0,0,1-.159.023.554.554,0,0,1-.161-.023.434.434,0,0,1-.128-.061.282.282,0,0,1-.085-.091.216.216,0,0,1,0-.223.285.285,0,0,1,.085-.092.435.435,0,0,1,.128-.062.554.554,0,0,1,.161-.023.536.536,0,0,1,.159.023.435.435,0,0,1,.128.062.308.308,0,0,1,.085.092A.22.22,0,0,1,317.7,14.925Z" fill="#202020"/>
      <path d="M320.57,17.255V16.063c0-.2-.105-.3-.314-.3a.557.557,0,0,0-.3.091,1.89,1.89,0,0,0-.3.244v1.158h-.617V15.426h.533l.016.27a1.41,1.41,0,0,1,.163-.128,1.033,1.033,0,0,1,.183-.1,1.076,1.076,0,0,1,.213-.062,1.4,1.4,0,0,1,.255-.022,1.174,1.174,0,0,1,.344.046.688.688,0,0,1,.245.13.532.532,0,0,1,.148.2.679.679,0,0,1,.05.264v1.228Z" fill="#202020"/>
      <path d="M324.122,16.2c0,.03,0,.069,0,.117s-.006.093-.011.135h-1.689a.425.425,0,0,0,.052.213.446.446,0,0,0,.146.154.741.741,0,0,0,.228.094,1.273,1.273,0,0,0,.294.032,3.813,3.813,0,0,0,.4-.021,4.123,4.123,0,0,0,.444-.067v.349c-.066.013-.138.025-.215.036s-.157.021-.238.029-.162.015-.245.019-.163.006-.24.006a2.158,2.158,0,0,1-.526-.059,1.165,1.165,0,0,1-.395-.176.773.773,0,0,1-.247-.287.862.862,0,0,1-.086-.4.932.932,0,0,1,.086-.406.9.9,0,0,1,.242-.313,1.135,1.135,0,0,1,.381-.2,1.657,1.657,0,0,1,.5-.071,1.763,1.763,0,0,1,.483.06,1.078,1.078,0,0,1,.352.169.709.709,0,0,1,.288.585Zm-.627-.063a.386.386,0,0,0-.038-.188.364.364,0,0,0-.11-.132.469.469,0,0,0-.162-.078.736.736,0,0,0-.2-.025.625.625,0,0,0-.382.111.442.442,0,0,0-.177.312Z" fill="#202020"/>
      <path d="M326.85,17.237c-.111.018-.223.032-.336.043s-.22.016-.321.016a2.2,2.2,0,0,1-.436-.037.9.9,0,0,1-.3-.116.458.458,0,0,1-.177-.2.659.659,0,0,1-.057-.285v-.893h-.691v-.342h.691v-.468l.631-.117v.585h1v.342h-1v.86a.282.282,0,0,0,.1.237.547.547,0,0,0,.338.08,2.4,2.4,0,0,0,.3-.018c.095-.012.183-.026.262-.041Z" fill="#202020"/>
      <path d="M332.224,17.255l-.182-.465h-1.154l-.187.465h-.617l.979-2.353h.87l.978,2.353Zm-.751-1.921-.435,1.095h.865Z" fill="#202020"/>
      <path d="M334.888,17.255l-.015-.27a2,2,0,0,1-.167.128,1.078,1.078,0,0,1-.184.1,1.151,1.151,0,0,1-.211.063,1.282,1.282,0,0,1-.249.022,1.155,1.155,0,0,1-.405-.065.8.8,0,0,1-.3-.184.808.808,0,0,1-.184-.291,1.1,1.1,0,0,1-.063-.381.91.91,0,0,1,.1-.437.873.873,0,0,1,.277-.306,1.253,1.253,0,0,1,.42-.18,2.254,2.254,0,0,1,.528-.058c.064,0,.129,0,.194.008s.122.014.173.024v-.715h.617v2.544Zm-1.127-.9a.966.966,0,0,0,.029.258.46.46,0,0,0,.086.176.326.326,0,0,0,.14.1.537.537,0,0,0,.19.032.547.547,0,0,0,.3-.09,1.855,1.855,0,0,0,.3-.247v-.8a1.253,1.253,0,0,0-.181-.032,1.728,1.728,0,0,0-.216-.013.8.8,0,0,0-.268.043.589.589,0,0,0-.2.123.544.544,0,0,0-.13.193A.7.7,0,0,0,333.761,16.355Z" fill="#202020"/>
      <path d="M337.736,17.255l-.016-.27a1.849,1.849,0,0,1-.167.128,1.042,1.042,0,0,1-.184.1,1.151,1.151,0,0,1-.211.063,1.275,1.275,0,0,1-.249.022,1.155,1.155,0,0,1-.4-.065.769.769,0,0,1-.48-.475,1.1,1.1,0,0,1-.063-.381.91.91,0,0,1,.1-.437.873.873,0,0,1,.277-.306,1.253,1.253,0,0,1,.42-.18,2.254,2.254,0,0,1,.528-.058c.065,0,.129,0,.194.008a1.723,1.723,0,0,1,.173.024v-.715h.617v2.544Zm-1.128-.9a1.008,1.008,0,0,0,.029.258.46.46,0,0,0,.086.176.332.332,0,0,0,.14.1.537.537,0,0,0,.19.032.547.547,0,0,0,.3-.09,1.855,1.855,0,0,0,.3-.247v-.8a1.253,1.253,0,0,0-.181-.032,1.728,1.728,0,0,0-.216-.013.8.8,0,0,0-.268.043.585.585,0,0,0-.2.123.533.533,0,0,0-.131.193A.7.7,0,0,0,336.608,16.355Z" fill="#202020"/>
      <path d="M340.621,16.137a.62.62,0,0,0-.014-.175.282.282,0,0,0-.061-.118.247.247,0,0,0-.1-.069.427.427,0,0,0-.139-.021.574.574,0,0,0-.282.08,1.379,1.379,0,0,0-.32.263v1.158h-.632V15.426h.559l.022.266a.915.915,0,0,1,.143-.126.934.934,0,0,1,.177-.1,1.031,1.031,0,0,1,.216-.062,1.5,1.5,0,0,1,.261-.022,1.137,1.137,0,0,1,.345.048.684.684,0,0,1,.253.141.562.562,0,0,1,.151.235.881.881,0,0,1,.042.327Z" fill="#202020"/>
      <path d="M344.052,16.2c0,.03,0,.069,0,.117s-.006.093-.011.135h-1.69a.426.426,0,0,0,.053.213.446.446,0,0,0,.146.154.741.741,0,0,0,.228.094,1.267,1.267,0,0,0,.294.032,3.827,3.827,0,0,0,.4-.021,4.123,4.123,0,0,0,.444-.067v.349c-.066.013-.138.025-.215.036s-.157.021-.238.029-.163.015-.245.019-.163.006-.24.006a2.158,2.158,0,0,1-.526-.059,1.165,1.165,0,0,1-.4-.176.785.785,0,0,1-.248-.287.875.875,0,0,1-.086-.4.947.947,0,0,1,.086-.406.916.916,0,0,1,.243-.313,1.135,1.135,0,0,1,.381-.2,1.652,1.652,0,0,1,.5-.071,1.763,1.763,0,0,1,.483.06,1.078,1.078,0,0,1,.352.169.731.731,0,0,1,.215.257A.748.748,0,0,1,344.052,16.2Zm-.627-.063a.386.386,0,0,0-.038-.188.364.364,0,0,0-.11-.132.469.469,0,0,0-.162-.078.741.741,0,0,0-.2-.025.622.622,0,0,0-.382.111.442.442,0,0,0-.177.312Z" fill="#202020"/>
      <path d="M346.78,16.717a.39.39,0,0,1-.1.267.709.709,0,0,1-.258.18,1.5,1.5,0,0,1-.364.1,2.725,2.725,0,0,1-.416.031c-.189,0-.359-.006-.511-.018s-.3-.032-.43-.055v-.4a3.246,3.246,0,0,0,.475.1,3.378,3.378,0,0,0,.446.032.923.923,0,0,0,.362-.055c.08-.037.121-.084.121-.143a.13.13,0,0,0-.025-.076.241.241,0,0,0-.1-.066,1.267,1.267,0,0,0-.2-.064c-.085-.023-.195-.048-.331-.075a2.66,2.66,0,0,1-.333-.086.918.918,0,0,1-.237-.112.45.45,0,0,1-.14-.15.417.417,0,0,1-.047-.2.357.357,0,0,1,.071-.211.6.6,0,0,1,.211-.174,1.35,1.35,0,0,1,.35-.118,2.533,2.533,0,0,1,.491-.043q.243,0,.429.018c.126.012.236.025.332.04V15.8a3.477,3.477,0,0,0-.8-.092.784.784,0,0,0-.3.049c-.077.033-.115.077-.115.135a.134.134,0,0,0,.022.074.244.244,0,0,0,.091.063,1.429,1.429,0,0,0,.186.064c.08.022.186.046.318.073a3.173,3.173,0,0,1,.374.1.959.959,0,0,1,.244.116.386.386,0,0,1,.133.148A.423.423,0,0,1,346.78,16.717Z" fill="#202020"/>
      <path d="M349.628,16.717a.4.4,0,0,1-.1.267.718.718,0,0,1-.258.18,1.518,1.518,0,0,1-.365.1,2.706,2.706,0,0,1-.416.031q-.282,0-.51-.018c-.152-.013-.3-.032-.43-.055v-.4a3.234,3.234,0,0,0,.474.1,3.39,3.39,0,0,0,.446.032.925.925,0,0,0,.363-.055c.08-.037.12-.084.12-.143a.13.13,0,0,0-.025-.076.236.236,0,0,0-.1-.066,1.286,1.286,0,0,0-.2-.064c-.084-.023-.194-.048-.331-.075a2.706,2.706,0,0,1-.333-.086.91.91,0,0,1-.236-.112.45.45,0,0,1-.14-.15.406.406,0,0,1-.047-.2.35.35,0,0,1,.071-.211.6.6,0,0,1,.211-.174,1.35,1.35,0,0,1,.35-.118,2.518,2.518,0,0,1,.491-.043q.243,0,.429.018c.125.012.235.025.331.04V15.8a3.477,3.477,0,0,0-.413-.071,3.552,3.552,0,0,0-.383-.021.782.782,0,0,0-.3.049c-.077.033-.116.077-.116.135a.127.127,0,0,0,.023.074.231.231,0,0,0,.09.063,1.509,1.509,0,0,0,.187.064c.08.022.186.046.318.073a3.226,3.226,0,0,1,.374.1.976.976,0,0,1,.244.116.383.383,0,0,1,.132.148A.411.411,0,0,1,349.628,16.717Z" fill="#202020"/>
      <path d="M351.428,15.408a.605.605,0,0,1,.179.025.482.482,0,0,1,.144.069.337.337,0,0,1,.1.1.241.241,0,0,1,.036.126.246.246,0,0,1-.036.128.32.32,0,0,1-.1.1.482.482,0,0,1-.144.069.653.653,0,0,1-.358,0,.5.5,0,0,1-.143-.069.317.317,0,0,1-.1-.1.246.246,0,0,1-.036-.128.241.241,0,0,1,.036-.126.333.333,0,0,1,.1-.1.5.5,0,0,1,.143-.069A.6.6,0,0,1,351.428,15.408Zm0,1.24a.64.64,0,0,1,.179.025.482.482,0,0,1,.144.069.32.32,0,0,1,.1.1.242.242,0,0,1,0,.254.337.337,0,0,1-.1.1.482.482,0,0,1-.144.069.653.653,0,0,1-.358,0,.5.5,0,0,1-.143-.069.333.333,0,0,1-.1-.1.242.242,0,0,1,0-.254.317.317,0,0,1,.1-.1.5.5,0,0,1,.143-.069A.635.635,0,0,1,351.428,16.648Z" fill="#202020"/>
      <path d="M309.3,21.679l-.587-.616-.589.616h-.745l.963-.922-.913-.907h.751l.576.6.569-.6h.693l-.885.9.933.925Z" fill="#202020"/>
      <path d="M312.857,20.493a1.425,1.425,0,0,1-.088.518,1.027,1.027,0,0,1-.259.386,1.162,1.162,0,0,1-.416.241,1.764,1.764,0,0,1-.562.082,1.743,1.743,0,0,1-.5-.068,1.046,1.046,0,0,1-.4-.215.99.99,0,0,1-.26-.375,1.434,1.434,0,0,1-.094-.548,1.4,1.4,0,0,1,.09-.518,1.031,1.031,0,0,1,.259-.386,1.141,1.141,0,0,1,.417-.241,1.778,1.778,0,0,1,.561-.083,1.75,1.75,0,0,1,.5.069,1.042,1.042,0,0,1,.4.214.993.993,0,0,1,.26.375A1.453,1.453,0,0,1,312.857,20.493ZM310.9,20.5v.068a.446.446,0,0,0,0,.063l1.239-.637a.608.608,0,0,0-.234-.264.66.66,0,0,0-.342-.085.67.67,0,0,0-.263.051.549.549,0,0,0-.211.158.773.773,0,0,0-.142.266A1.225,1.225,0,0,0,310.9,20.5Zm1.335.007c0-.02,0-.041,0-.062s0-.041,0-.061L311,21.018a.554.554,0,0,0,.228.259.713.713,0,0,0,.605.033.582.582,0,0,0,.212-.157.769.769,0,0,0,.141-.267A1.3,1.3,0,0,0,312.235,20.507Z" fill="#202020"/>
      <path d="M315.7,20.493a1.425,1.425,0,0,1-.088.518,1.027,1.027,0,0,1-.259.386,1.162,1.162,0,0,1-.416.241,1.932,1.932,0,0,1-1.065.014,1.046,1.046,0,0,1-.4-.215.99.99,0,0,1-.26-.375,1.453,1.453,0,0,1-.094-.548,1.4,1.4,0,0,1,.09-.518,1.031,1.031,0,0,1,.259-.386,1.141,1.141,0,0,1,.417-.241,1.78,1.78,0,0,1,.562-.083,1.743,1.743,0,0,1,.5.069,1.053,1.053,0,0,1,.4.214,1,1,0,0,1,.259.375A1.453,1.453,0,0,1,315.7,20.493Zm-1.957.007v.068a.446.446,0,0,0,0,.063l1.239-.637a.608.608,0,0,0-.234-.264.66.66,0,0,0-.342-.085.674.674,0,0,0-.263.051.557.557,0,0,0-.211.158.773.773,0,0,0-.142.266A1.255,1.255,0,0,0,313.747,20.5Zm1.336.007c0-.02,0-.041,0-.062s0-.041,0-.061l-1.231.634a.554.554,0,0,0,.228.259.713.713,0,0,0,.6.033.573.573,0,0,0,.212-.157.769.769,0,0,0,.141-.267A1.264,1.264,0,0,0,315.083,20.507Z" fill="#202020"/>
      <path d="M318.552,20.493a1.424,1.424,0,0,1-.089.518,1.016,1.016,0,0,1-.259.386,1.154,1.154,0,0,1-.416.241,1.932,1.932,0,0,1-1.065.014,1.041,1.041,0,0,1-.4-.215.992.992,0,0,1-.261-.375,1.454,1.454,0,0,1-.093-.548,1.424,1.424,0,0,1,.089-.518,1.043,1.043,0,0,1,.259-.386,1.138,1.138,0,0,1,.418-.241,1.769,1.769,0,0,1,.561-.083,1.743,1.743,0,0,1,.5.069,1.046,1.046,0,0,1,.4.214.991.991,0,0,1,.259.375A1.452,1.452,0,0,1,318.552,20.493Zm-1.958.007v.068a.336.336,0,0,0,.006.063l1.238-.637a.608.608,0,0,0-.234-.264.658.658,0,0,0-.342-.085A.674.674,0,0,0,317,19.7a.557.557,0,0,0-.211.158.755.755,0,0,0-.141.266A1.223,1.223,0,0,0,316.594,20.5Zm1.336.007c0-.02,0-.041,0-.062s0-.041,0-.061l-1.231.634a.554.554,0,0,0,.228.259.713.713,0,0,0,.605.033.585.585,0,0,0,.213-.157.785.785,0,0,0,.14-.267A1.264,1.264,0,0,0,317.93,20.507Z" fill="#202020"/>
      <path d="M319.07,21.679v-.391h.842V19.776l-.733.288-.2-.358,1.049-.394h.518v1.976h.726v.391Z" fill="#202020"/>
    </g>
    <g>
      <g>
        <rect x="394.491" y="19.609" width="7.976" height="7.976" rx="0.831" transform="translate(133.398 -274.856) rotate(45)" fill="#b9e5fb" stroke="#b9e5fb" stroke-linecap="round" stroke-linejoin="round" stroke-width="0.25"/>
        <polygon points="395.338 24.379 396.637 23.868 397.835 25.256 401.207 21.623 402.07 21.986 397.544 26.712 395.338 24.379" fill="#1f1f1f"/>
      </g>
      <g>
        <path d="M387.955,27.814,384.136,24a.563.563,0,0,1,0-.8l3.819-3.819h5.385l.161.241L389.924,23.2a.563.563,0,0,0,0,.8l3.593,3.594-.113.225Z" fill="#b9e5fb" stroke="#b9e5fb" stroke-linecap="round" stroke-linejoin="round" stroke-width="0.25"/>
        <path d="M384.557,23.6l4.714-1.6a2.794,2.794,0,0,0,0,2.9Z" fill="#1f1f1f"/>
      </g>
      <g>
        <path d="M408.9,19.381l3.819,3.819a.563.563,0,0,1,0,.8L408.9,27.814h-5.385l-.161-.242L406.93,24a.563.563,0,0,0,0-.8l-3.594-3.594.113-.225Z" fill="#b9e5fb" stroke="#b9e5fb" stroke-linecap="round" stroke-linejoin="round" stroke-width="0.25"/>
        <path d="M412.223,23.669l-4.714,1.6a2.8,2.8,0,0,0,0-2.9Z" fill="#1f1f1f"/>
      </g>
      <g>
        <path d="M402.644,34.069l-3.819,3.819a.564.564,0,0,1-.8,0l-3.819-3.819V28.684l.242-.161,3.577,3.578a.566.566,0,0,0,.8,0l3.593-3.594.226.113Z" fill="#b9e5fb" stroke="#b9e5fb" stroke-linecap="round" stroke-linejoin="round" stroke-width="0.25"/>
        <path d="M398.467,37.282l-1.6-4.714a2.8,2.8,0,0,0,2.9,0Z" fill="#1f1f1f"/>
      </g>
      <g>
        <path d="M394.21,13.125l3.819-3.819a.566.566,0,0,1,.8,0l3.819,3.819V18.51l-.242.161-3.577-3.577a.564.564,0,0,0-.8,0l-3.594,3.594-.225-.113Z" fill="#b9e5fb" stroke="#b9e5fb" stroke-linecap="round" stroke-linejoin="round" stroke-width="0.25"/>
        <path d="M398.424,9.95l1.6,4.713a2.794,2.794,0,0,0-2.9,0Z" fill="#1f1f1f"/>
      </g>
      <circle cx="387.195" cy="34.089" r="4.374" fill="#b9e5fb" stroke="#b9e5fb" stroke-linecap="round" stroke-linejoin="round" stroke-width="0.25"/>
      <polygon points="389.017 30.982 387.195 32.805 385.372 30.982 384.157 32.197 385.98 34.02 384.157 35.842 385.372 37.057 387.195 35.235 389.017 37.057 390.232 35.842 388.41 34.02 390.232 32.197 389.017 30.982" fill="#1f1f1f"/>
    </g>
  </g>
  <text transform="translate(332.949 75.282)" font-size="9" fill="#141414" font-family="ArialMT, Arial">Display</text>
  <text transform="translate(385.513 76.017)" font-size="9" fill="#141414" font-family="ArialMT, Arial">Display<tspan x="0" y="10.8">Controls</tspan></text>
  <text transform="translate(280.597 62.572)" font-size="9" fill="#141414" font-family="ArialMT, Arial">Debug</text>
  <g>
    <line x1="347.015" y1="29.773" x2="347.015" y2="67.422" fill="none" stroke="#fff" stroke-linecap="round" stroke-linejoin="round" stroke-width="3"/>
    <line x1="347.015" y1="29.773" x2="347.015" y2="67.422" fill="none" stroke="#1f1f1f" stroke-linecap="round" stroke-linejoin="round"/>
  </g>
  <g>
    <line x1="398.554" y1="41.512" x2="398.554" y2="69.232" fill="none" stroke="#fff" stroke-linecap="round" stroke-linejoin="round" stroke-width="3"/>
    <line x1="398.554" y1="41.512" x2="398.554" y2="69.232" fill="none" stroke="#1f1f1f" stroke-linecap="round" stroke-linejoin="round"/>
  </g>
  <g>
    <line x1="289.699" y1="35.831" x2="289.699" y2="54.035" fill="none" stroke="#fff" stroke-linecap="round" stroke-linejoin="round" stroke-width="3"/>
    <line x1="289.699" y1="35.831" x2="289.699" y2="54.035" fill="none" stroke="#1f1f1f" stroke-linecap="round" stroke-linejoin="round"/>
  </g>
  <rect x="245.022" y="32.951" width="27.217" height="1.567" fill="#dedede" stroke="#1f1f1f" stroke-miterlimit="10" stroke-width="0.25"/>
  <rect x="5.619" y="17.667" width="13.207" height="13.207" rx="1.404" fill="#fafafa" stroke="#1f1f1f" stroke-miterlimit="10" stroke-width="0.75"/>
  <g>
    <circle cx="12.068" cy="24.198" r="4.809" fill="#c4c4c4" stroke="#1f1f1f" stroke-miterlimit="10" stroke-width="0.75"/>
    <g>
      <rect x="9.49" y="23.692" width="5.154" height="1.011" fill="#585858"/>
      <rect x="9.49" y="23.692" width="5.154" height="1.011" transform="translate(-12.13 36.265) rotate(-90)" fill="#585858"/>
    </g>
  </g>
  <g>
    <rect x="428.459" y="17.667" width="13.207" height="13.207" rx="1.404" fill="#fafafa" stroke="#1f1f1f" stroke-miterlimit="10" stroke-width="0.75"/>
    <g>
      <circle cx="435.135" cy="24.062" r="4.809" fill="#c4c4c4" stroke="#1f1f1f" stroke-miterlimit="10" stroke-width="0.75"/>
      <g>
        <rect x="432.558" y="23.557" width="5.154" height="1.011" fill="#585858"/>
        <rect x="432.558" y="23.557" width="5.154" height="1.011" transform="translate(411.073 459.197) rotate(-90)" fill="#585858"/>
      </g>
    </g>
  </g>
</svg>
